<svg width="18" height="16" viewBox="0 0 18 16" fill="none" xmlns="http://www.w3.org/2000/svg">
<path d="M2.125 1.5C2.125 1.15471 1.84529 0.875 1.5 0.875C1.15486 0.875 0.875 1.15469 0.875 1.5V12.5C0.875 13.9503 2.05036 15.125 3.5 15.125H16.5C16.844 15.125 17.125 14.844 17.125 14.5C17.125 14.156 16.844 13.875 16.5 13.875H3.5C2.74062 13.875 2.125 13.2591 2.125 12.5V1.5ZM6.125 8.5C6.125 8.15596 5.84404 7.875 5.5 7.875C5.15596 7.875 4.875 8.15596 4.875 8.5V11.5C4.875 11.844 5.15596 12.125 5.5 12.125C5.84404 12.125 6.125 11.844 6.125 11.5V8.5ZM8.5 12.125C8.84404 12.125 9.125 11.844 9.125 11.5V4.5C9.125 4.15596 8.84404 3.875 8.5 3.875C8.15596 3.875 7.875 4.15596 7.875 4.5V11.5C7.875 11.844 8.15596 12.125 8.5 12.125ZM12.125 6.5C12.125 6.15596 11.844 5.875 11.5 5.875C11.156 5.875 10.875 6.15596 10.875 6.5V11.5C10.875 11.844 11.156 12.125 11.5 12.125C11.844 12.125 12.125 11.844 12.125 11.5V6.5ZM14.5 12.125C14.844 12.125 15.125 11.844 15.125 11.5V3.5C15.125 3.15596 14.844 2.875 14.5 2.875C14.156 2.875 13.875 3.15596 13.875 3.5V11.5C13.875 11.844 14.156 12.125 14.5 12.125Z" fill="white" stroke="white" stroke-width="0.25"/>
</svg>
