<svg width="18" height="18" viewBox="0 0 18 18" fill="none" xmlns="http://www.w3.org/2000/svg">
<path d="M7.27221 1.00552C5.86401 1.33198 4.5688 2.02924 3.52092 3.025C2.47304 4.02075 1.71066 5.27873 1.31284 6.66845C0.915027 8.05818 0.896273 9.52902 1.25852 10.9284C1.62078 12.3279 2.35084 13.6049 3.37299 14.627C4.39514 15.6492 5.67215 16.3792 7.07156 16.7415C8.47098 17.1037 9.94182 17.085 11.3315 16.6872C12.7213 16.2893 13.9792 15.527 14.975 14.4791C15.9708 13.4312 16.668 12.136 16.9945 10.7278C16.9945 10.489 16.8996 10.2601 16.7308 10.0912C16.562 9.92243 16.333 9.82758 16.0943 9.82758H9.97284C9.49534 9.82758 9.03739 9.6379 8.69975 9.30025C8.3621 8.96261 8.17242 8.50466 8.17242 8.02716V1.72569C8.16123 1.61904 8.12899 1.51567 8.07755 1.42157C8.02611 1.32748 7.95651 1.24453 7.87277 1.17754C7.78903 1.11055 7.69282 1.06085 7.58973 1.03132C7.48664 1.00179 7.37871 0.993023 7.27221 1.00552Z" stroke="white" stroke-width="1.5" stroke-linecap="round" stroke-linejoin="round"/>
<path d="M11.7734 1.27539C12.9165 1.67786 13.9546 2.33161 14.8115 3.18848C15.6684 4.04536 16.3221 5.08353 16.7246 6.22655H12.6736C12.4349 6.22655 12.2059 6.1317 12.0371 5.96288C11.8683 5.79406 11.7734 5.56509 11.7734 5.32634V1.27539Z" stroke="white" stroke-width="1.5" stroke-linecap="round" stroke-linejoin="round"/>
</svg>
