<svg width="16" height="14" viewBox="0 0 16 14" fill="none" xmlns="http://www.w3.org/2000/svg">
<path d="M1 0C1.55313 0 2 0.446875 2 1V11.5C2 11.775 2.225 12 2.5 12H15C15.5531 12 16 12.4469 16 13C16 13.5531 15.5531 14 15 14H2.5C1.11875 14 0 12.8813 0 11.5V1C0 0.446875 0.446875 0 1 0ZM5 6C5.55312 6 6 6.44688 6 7V9C6 9.55313 5.55312 10 5 10C4.44688 10 4 9.55313 4 9V7C4 6.44688 4.44688 6 5 6ZM9 4V9C9 9.55313 8.55313 10 8 10C7.44688 10 7 9.55313 7 9V4C7 3.44688 7.44688 3 8 3C8.55313 3 9 3.44688 9 4ZM11 5C11.5531 5 12 5.44688 12 6V9C12 9.55313 11.5531 10 11 10C10.4469 10 10 9.55313 10 9V6C10 5.44688 10.4469 5 11 5ZM15 2V9C15 9.55313 14.5531 10 14 10C13.4469 10 13 9.55313 13 9V2C13 1.44687 13.4469 1 14 1C14.5531 1 15 1.44687 15 2Z" fill="white"/>
</svg>
