<svg width="24" height="24" viewBox="0 0 24 24" fill="none" xmlns="http://www.w3.org/2000/svg">
<path d="M5.125 5.5C5.125 5.15471 4.84529 4.875 4.5 4.875C4.15486 4.875 3.875 5.15469 3.875 5.5V16.5C3.875 17.9503 5.05036 19.125 6.5 19.125H19.5C19.844 19.125 20.125 18.844 20.125 18.5C20.125 18.156 19.844 17.875 19.5 17.875H6.5C5.74062 17.875 5.125 17.2591 5.125 16.5V5.5ZM9.125 12.5C9.125 12.156 8.84404 11.875 8.5 11.875C8.15596 11.875 7.875 12.156 7.875 12.5V15.5C7.875 15.844 8.15596 16.125 8.5 16.125C8.84404 16.125 9.125 15.844 9.125 15.5V12.5ZM11.5 16.125C11.844 16.125 12.125 15.844 12.125 15.5V8.5C12.125 8.15596 11.844 7.875 11.5 7.875C11.156 7.875 10.875 8.15596 10.875 8.5V15.5C10.875 15.844 11.156 16.125 11.5 16.125ZM15.125 10.5C15.125 10.156 14.844 9.875 14.5 9.875C14.156 9.875 13.875 10.156 13.875 10.5V15.5C13.875 15.844 14.156 16.125 14.5 16.125C14.844 16.125 15.125 15.844 15.125 15.5V10.5ZM17.5 16.125C17.844 16.125 18.125 15.844 18.125 15.5V7.5C18.125 7.15596 17.844 6.875 17.5 6.875C17.156 6.875 16.875 7.15596 16.875 7.5V15.5C16.875 15.844 17.156 16.125 17.5 16.125Z" fill="white" stroke="white" stroke-width="0.25"/>
</svg>
