<svg width="20" height="16" viewBox="0 0 20 16" fill="none" xmlns="http://www.w3.org/2000/svg">
<path d="M5 2C5 0.895313 5.89687 0 7 0C8.10312 0 9 0.895313 9 2C9 2.605 8.73125 3.14687 8.30625 3.51562L9.50937 6.14062C9.825 6.05 10.1562 6 10.5 6C11.4906 6 12.3813 6.40937 13.0188 7.06875L16.1688 4.80312C16.0594 4.55625 16 4.28438 16 4C16 2.89531 16.8969 2 18 2C19.1031 2 20 2.89531 20 4C20 5.10313 19.1031 6 18 6C17.5438 6 17.1219 5.84687 16.7875 5.59062L13.6031 7.88125C13.8562 8.36563 14 8.91562 14 9.5C14 9.98125 13.9031 10.4375 13.7281 10.8531L16.5969 12.575C16.9562 12.2188 17.4531 12 18 12C19.1031 12 20 12.8969 20 14C20 15.1031 19.1031 16 18 16C16.8969 16 16 15.1031 16 14C16 13.8031 16.0281 13.6125 16.0812 13.4312L13.2125 11.7125C12.5719 12.4969 11.5938 13 10.5 13C8.7375 13 7.27813 11.6969 7.03438 10H3.90937C3.71563 10.8625 2.93187 11.5 2 11.5C0.895313 11.5 0 10.6031 0 9.5C0 8.39688 0.895313 7.5 2 7.5C2.93187 7.5 3.71563 8.1375 3.90937 9H7.03438C7.18125 7.97813 7.77187 7.09687 8.60312 6.55937L7.40938 3.95937C7.27813 3.98438 7.14062 4 7 4C5.89687 4 5 3.10469 5 2ZM7 3C7.55312 3 8 2.55219 8 2C8 1.44781 7.55312 1 7 1C6.44688 1 6 1.44781 6 2C6 2.55219 6.44688 3 7 3ZM18 5C18.5531 5 19 4.55312 19 4C19 3.44688 18.5531 3 18 3C17.4469 3 17 3.44688 17 4C17 4.55312 17.4469 5 18 5ZM18 13C17.4469 13 17 13.4469 17 14C17 14.5531 17.4469 15 18 15C18.5531 15 19 14.5531 19 14C19 13.4469 18.5531 13 18 13ZM2 10.5C2.55219 10.5 3 10.0531 3 9.5C3 8.94687 2.55219 8.5 2 8.5C1.44781 8.5 1 8.94687 1 9.5C1 10.0531 1.44781 10.5 2 10.5ZM10.5 12C11.8813 12 13 10.8813 13 9.5C13 8.11875 11.8813 7 10.5 7C9.11875 7 8 8.11875 8 9.5C8 10.8813 9.11875 12 10.5 12Z" fill="white"/>
</svg>
