<svg width="22" height="18" viewBox="0 0 22 18" fill="none" xmlns="http://www.w3.org/2000/svg">
<path d="M8 0.8C6.78652 0.8 5.8 1.78475 5.8 3C5.8 4.21525 6.78652 5.2 8 5.2C8.09942 5.2 8.19674 5.19293 8.29096 5.18079L9.35083 7.4892C8.59382 8.03061 8.04773 8.85131 7.86522 9.8H5.06299C4.79363 8.92559 3.96739 8.3 3 8.3C1.78475 8.3 0.8 9.28652 0.8 10.5C0.8 11.7135 1.78475 12.7 3 12.7C3.96739 12.7 4.79363 12.0744 5.06299 11.2H7.86519C8.19353 12.9094 9.69646 14.2 11.5 14.2C12.5938 14.2 13.5783 13.7239 14.2545 12.9708L16.8507 14.5263C16.8174 14.6795 16.8 14.8379 16.8 15C16.8 16.2136 17.7864 17.2 19 17.2C20.2136 17.2 21.2 16.2136 21.2 15C21.2 13.7864 20.2136 12.8 19 12.8C18.4553 12.8 17.9551 12.9976 17.5715 13.3265L14.9762 11.7688C15.121 11.3735 15.2 10.9467 15.2 10.5C15.2 9.94433 15.077 9.41774 14.8574 8.94474L17.7881 6.83654C18.1346 7.06592 18.5525 7.2 19 7.2C20.2136 7.2 21.2 6.21358 21.2 5C21.2 3.78475 20.2135 2.8 19 2.8C17.7865 2.8 16.8 3.78475 16.8 5C16.8 5.25521 16.8436 5.50177 16.9253 5.7319L14.039 7.80779C13.3761 7.18288 12.4846 6.8 11.5 6.8C11.1969 6.8 10.9033 6.83679 10.6211 6.90443L9.54826 4.56364C9.95039 4.16388 10.2 3.6113 10.2 3C10.2 1.78475 9.21348 0.8 8 0.8ZM8.8 3C8.8 3.44185 8.44255 3.8 8 3.8C7.55745 3.8 7.2 3.44185 7.2 3C7.2 2.55815 7.55745 2.2 8 2.2C8.44255 2.2 8.8 2.55815 8.8 3ZM19.8 5C19.8 5.44267 19.4427 5.8 19 5.8C18.5573 5.8 18.2 5.44267 18.2 5C18.2 4.55733 18.5573 4.2 19 4.2C19.4427 4.2 19.8 4.55733 19.8 5ZM18.2 15C18.2 14.5573 18.5573 14.2 19 14.2C19.4427 14.2 19.8 14.5573 19.8 15C19.8 15.4427 19.4427 15.8 19 15.8C18.5573 15.8 18.2 15.4427 18.2 15ZM3.8 10.5C3.8 10.9425 3.44185 11.3 3 11.3C2.55815 11.3 2.2 10.9425 2.2 10.5C2.2 10.0575 2.55815 9.7 3 9.7C3.44185 9.7 3.8 10.0575 3.8 10.5ZM13.8 10.5C13.8 11.7708 12.7708 12.8 11.5 12.8C10.2292 12.8 9.2 11.7708 9.2 10.5C9.2 9.22921 10.2292 8.2 11.5 8.2C12.7708 8.2 13.8 9.22921 13.8 10.5Z" fill="white" stroke="white" stroke-width="0.4"/>
</svg>
