<svg width="20" height="20" viewBox="0 0 20 20" fill="none" xmlns="http://www.w3.org/2000/svg">
<g clip-path="url(#clip0_3505_49088)">
<path d="M2.992 6.5918C2.992 7.69637 3.88743 8.5918 4.992 8.5918C6.09657 8.5918 6.992 7.69637 6.992 6.5918C6.992 5.48723 6.09657 4.5918 4.992 4.5918C3.88743 4.5918 2.992 5.48723 2.992 6.5918Z" stroke="#5F647E" stroke-width="1.5" stroke-linecap="round" stroke-linejoin="round"/>
<path d="M8.2576 13.8076C8.2576 14.5221 8.6388 15.1824 9.2576 15.5397C9.8764 15.8969 10.6388 15.8969 11.2576 15.5397C11.8764 15.1824 12.2576 14.5221 12.2576 13.8076C12.2576 13.0931 11.8764 12.4328 11.2576 12.0756C10.6388 11.7183 9.8764 11.7183 9.2576 12.0756C8.6388 12.4328 8.2576 13.0931 8.2576 13.8076Z" stroke="#5F647E" stroke-width="1.5" stroke-linecap="round" stroke-linejoin="round"/>
<path d="M7.008 6.5918H17.408" stroke="#5F647E" stroke-width="1.5" stroke-linecap="round" stroke-linejoin="round"/>
<path d="M3.10719 13.8076H8.25759" stroke="#5F647E" stroke-width="1.5" stroke-linecap="round" stroke-linejoin="round"/>
<path d="M12.2576 13.8076H17.408" stroke="#5F647E" stroke-width="1.5" stroke-linecap="round" stroke-linejoin="round"/>
</g>
<defs>
<clipPath id="clip0_3505_49088">
<rect width="20" height="20" fill="white"/>
</clipPath>
</defs>
</svg>
