<svg width="24" height="24" viewBox="0 0 24 24" fill="none" xmlns="http://www.w3.org/2000/svg">
<g clip-path="url(#clip0_3287_49950)">
<path d="M20.5508 10.632L4.13483 3.79199" stroke="#4147D5" stroke-width="1.5" stroke-linecap="round"/>
<path d="M12.3428 4.47559V7.21159" stroke="#4147D5" stroke-width="1.5" stroke-linecap="round"/>
<path d="M20.4784 15.9278L16.9883 9.15625L13.794 15.9277C13.3518 18.4626 14.6912 19.4162 16.9883 19.4162C19.2853 19.4162 20.9206 18.4627 20.4784 15.9278Z" stroke="#4147D5" stroke-width="1.5" stroke-linecap="round" stroke-linejoin="round"/>
<path d="M10.2184 11.6524L6.72825 4.88086L3.53394 11.6523C3.09184 14.1872 4.43123 15.1408 6.72825 15.1408C9.02529 15.1408 10.6605 14.1873 10.2184 11.6524Z" stroke="#4147D5" stroke-width="1.5" stroke-linecap="round" stroke-linejoin="round"/>
<path d="M13.794 15.9277C13.3519 18.4625 14.6913 19.4161 16.9883 19.4161C19.2854 19.4161 20.9206 18.4627 20.4784 15.9277H13.794Z" stroke="#4147D5" stroke-width="1.5" stroke-linecap="round" stroke-linejoin="round"/>
<path d="M3.53399 11.6523C3.09193 14.1872 4.43131 15.1407 6.72832 15.1407C9.02534 15.1407 10.6606 14.1872 10.2185 11.6523H3.53399Z" stroke="#4147D5" stroke-width="1.5" stroke-linecap="round" stroke-linejoin="round"/>
</g>
<defs>
<clipPath id="clip0_3287_49950">
<rect width="24" height="24" fill="white"/>
</clipPath>
</defs>
</svg>
