<svg width="15" height="15" viewBox="0 0 15 15" fill="none" xmlns="http://www.w3.org/2000/svg">
<path d="M0 2.50015C0 1.67171 0.671562 1.00015 1.5 1.00015H4.5C5.32812 1.00015 6 1.67171 6 2.50015V5.50015C6 6.32827 5.32812 7.00015 4.5 7.00015H1.5C0.671562 7.00015 0 6.32827 0 5.50015V2.50015ZM1 2.50015V5.50015C1 5.77515 1.22375 6.00015 1.5 6.00015H4.5C4.775 6.00015 5 5.77515 5 5.50015V2.50015C5 2.2239 4.775 2.00015 4.5 2.00015H1.5C1.22375 2.00015 1 2.2239 1 2.50015ZM0 10.5001C0 9.67202 0.671562 9.00015 1.5 9.00015H4.5C5.32812 9.00015 6 9.67202 6 10.5001V13.5001C6 14.3283 5.32812 15.0001 4.5 15.0001H1.5C0.671562 15.0001 0 14.3283 0 13.5001V10.5001ZM1 10.5001V13.5001C1 13.7751 1.22375 14.0001 1.5 14.0001H4.5C4.775 14.0001 5 13.7751 5 13.5001V10.5001C5 10.2251 4.775 10.0001 4.5 10.0001H1.5C1.22375 10.0001 1 10.2251 1 10.5001ZM8 10.5001C8 9.67202 8.67188 9.00015 9.5 9.00015H12.5C13.3281 9.00015 14 9.67202 14 10.5001V13.5001C14 14.3283 13.3281 15.0001 12.5 15.0001H9.5C8.67188 15.0001 8 14.3283 8 13.5001V10.5001ZM9 10.5001V13.5001C9 13.7751 9.225 14.0001 9.5 14.0001H12.5C12.775 14.0001 13 13.7751 13 13.5001V10.5001C13 10.2251 12.775 10.0001 12.5 10.0001H9.5C9.225 10.0001 9 10.2251 9 10.5001Z" fill="white"/>
<path fill-rule="evenodd" clip-rule="evenodd" d="M14.182 2.93949C14.7676 3.52506 14.7678 4.47502 14.182 5.06081L12.0607 7.18213C11.4751 7.7677 10.5249 7.7677 9.93934 7.18213L7.81802 5.06081C7.23245 4.47524 7.23245 3.52506 7.81802 2.93949L9.93934 0.818169C10.5251 0.232375 11.4751 0.232596 12.0607 0.818169L14.182 2.93949ZM11.3536 1.52528L13.4749 3.6466C13.6693 3.84105 13.6702 4.15836 13.4749 4.3537L11.3536 6.47502C11.1591 6.66948 10.8409 6.66948 10.6464 6.47502L8.52513 4.3537C8.33067 4.15925 8.33067 3.84105 8.52513 3.6466L10.6464 1.52528C10.8418 1.32994 11.1591 1.33082 11.3536 1.52528Z" fill="white"/>
</svg>
