<svg width="16" height="16" viewBox="0 0 16 16" fill="none" xmlns="http://www.w3.org/2000/svg">
<path d="M2.5 0.875149C1.60253 0.875149 0.875 1.60268 0.875 2.50015V5.50015C0.875 6.39729 1.60251 7.12515 2.5 7.12515H5.5C6.39716 7.12515 7.125 6.39731 7.125 5.50015V2.50015C7.125 1.60266 6.39714 0.875149 5.5 0.875149H2.5ZM2.125 5.50015V2.50015C2.125 2.29293 2.29279 2.12515 2.5 2.12515H5.5C5.70617 2.12515 5.875 2.29314 5.875 2.50015V5.50015C5.875 5.70611 5.70596 5.87515 5.5 5.87515H2.5C2.29299 5.87515 2.125 5.70632 2.125 5.50015ZM2.5 8.87515C1.60251 8.87515 0.875 9.60301 0.875 10.5001V13.5001C0.875 14.3973 1.60251 15.1251 2.5 15.1251H5.5C6.39716 15.1251 7.125 14.3973 7.125 13.5001V10.5001C7.125 9.60299 6.39716 8.87515 5.5 8.87515H2.5ZM2.125 13.5001V10.5001C2.125 10.294 2.29299 10.1251 2.5 10.1251H5.5C5.70596 10.1251 5.875 10.2942 5.875 10.5001V13.5001C5.875 13.7061 5.70596 13.8751 5.5 13.8751H2.5C2.29299 13.8751 2.125 13.7063 2.125 13.5001ZM10.5 8.87515C9.60284 8.87515 8.875 9.60299 8.875 10.5001V13.5001C8.875 14.3973 9.60284 15.1251 10.5 15.1251H13.5C14.3972 15.1251 15.125 14.3973 15.125 13.5001V10.5001C15.125 9.60299 14.3972 8.87515 13.5 8.87515H10.5ZM10.125 13.5001V10.5001C10.125 10.2942 10.294 10.1251 10.5 10.1251H13.5C13.706 10.1251 13.875 10.2942 13.875 10.5001V13.5001C13.875 13.7061 13.706 13.8751 13.5 13.8751H10.5C10.294 13.8751 10.125 13.7061 10.125 13.5001ZM15.2704 5.1492C15.905 4.51458 15.9047 3.48548 15.2704 2.8511L13.149 0.72978C12.5147 0.0954041 11.4856 0.095159 10.851 0.72978L8.72963 2.8511C8.09524 3.48549 8.09524 4.51481 8.72963 5.1492L10.851 7.27052C11.4853 7.90491 12.5147 7.90491 13.149 7.27052L15.2704 5.1492ZM12.2652 1.61366L14.3865 3.73498C14.5323 3.88077 14.5329 4.11894 14.3865 4.26531L12.2652 6.38663C12.1195 6.53227 11.8805 6.53227 11.7348 6.38663L9.61351 4.26531C9.46788 4.11968 9.46788 3.88062 9.61351 3.73498L11.7348 1.61366C11.8812 1.46728 12.1194 1.46788 12.2652 1.61366Z" fill="white" stroke="white" stroke-width="0.25"/>
</svg>
