<svg width="24" height="24" viewBox="0 0 24 24" fill="none" xmlns="http://www.w3.org/2000/svg">
<path d="M19 16.0002V18.4442C18.9887 18.602 18.9155 18.749 18.7964 18.8531C18.6773 18.9572 18.5219 19.0101 18.364 19.0002H5.636C5.47794 19.0101 5.32238 18.9571 5.20324 18.8527C5.0841 18.7484 5.01104 18.6012 5 18.4432V5.5572C5.01104 5.39921 5.0841 5.252 5.20324 5.14766C5.32238 5.04332 5.47794 4.99031 5.636 5.0002H18.364C18.5219 4.9903 18.6773 5.04317 18.7964 5.1473C18.9155 5.25143 18.9887 5.39839 19 5.5562V8.0002M13.5 8.6092L17.5 12.1092L13.5 15.6092M9 12.0002H17" stroke="#5F647E" stroke-width="1.5" stroke-linecap="round" stroke-linejoin="round"/>
</svg>
