<svg width="30" height="30" viewBox="0 0 30 30" fill="none" xmlns="http://www.w3.org/2000/svg">
<rect width="30" height="30" rx="6" fill="url(#paint0_linear_3963_12063)"/>
<path d="M14.5692 17.3252C13.1044 17.9839 11.5793 18.4947 10.0159 18.8504L9.54895 22.9999L15.3397 20.4894L21.1072 22.9999C20.6402 17.7846 19.2392 14.8999 19.2392 14.8999C19.2392 14.8999 16.9696 16.1646 14.5692 17.3252Z" fill="white"/>
<path d="M7.9196 16.2878C7.69544 15.8994 8.91897 14.7246 8.97501 14.6773C8.90496 14.7294 6.17302 16.7331 6.85484 17.9078C6.99961 18.1636 7.34986 18.2962 7.89158 18.2962C9.84363 18.2962 14.0139 16.6194 18.2683 14.1278C22.2518 11.7925 26.8004 7.41568 26.8424 7.37305C26.8144 7.37305 22.1164 9.97832 20.7714 10.7694C15.1674 14.0567 9.93703 16.4536 8.36792 16.4536C8.12975 16.4489 7.98031 16.392 7.9196 16.2878Z" fill="white"/>
<path d="M14.1398 13.1284C16.1852 12.0911 17.9318 11.0395 17.9318 11.0395C17.9318 11.0395 15.382 5.04737 15.34 5L12.1177 10.4569L6 11.8779L9.73599 15.1937C10.3664 14.9711 12.0897 14.1658 14.1398 13.1284Z" fill="white"/>
<defs>
<linearGradient id="paint0_linear_3963_12063" x1="15" y1="28.161" x2="15" y2="3.117" gradientUnits="userSpaceOnUse">
<stop offset="0.01" stop-color="#FF5252"/>
<stop offset="1" stop-color="#FD6684"/>
</linearGradient>
</defs>
</svg>
