<svg width="28" height="28" viewBox="0 0 28 28" fill="none" xmlns="http://www.w3.org/2000/svg">
<path d="M14 28C6.2804 28 0 21.7196 0 14C0 6.2804 6.2804 0 14 0C21.7196 0 28 6.2804 28 14C28 21.7196 21.7196 28 14 28ZM14 2.8C7.8246 2.8 2.8 7.8246 2.8 14C2.8 20.1754 7.8246 25.2 14 25.2C20.1754 25.2 25.2 20.1754 25.2 14C25.2 7.8246 20.1754 2.8 14 2.8Z" fill="#CFD8DC"/>
<path d="M14 28C6.2804 28 0 21.7196 0 14H2.8C2.8 20.1754 7.8246 25.2 14 25.2C20.1754 25.2 25.2 20.1754 25.2 14C25.2 7.8246 20.1754 2.8 14 2.8V0C21.7196 0 28 6.2804 28 14C28 21.7196 21.7196 28 14 28Z" fill="#17A562"/>
</svg>
