<svg width="30" height="30" viewBox="0 0 30 30" fill="none" xmlns="http://www.w3.org/2000/svg">
<rect width="30" height="30" rx="6" fill="url(#paint0_linear_4704_30391)"/>
<path d="M14.5691 17.3252C13.1043 17.9839 11.5792 18.4947 10.0158 18.8504L9.54883 22.9999L15.3396 20.4894L21.107 22.9999C20.6401 17.7846 19.2391 14.8999 19.2391 14.8999C19.2391 14.8999 16.9694 16.1646 14.5691 17.3252Z" fill="white"/>
<path d="M7.91953 16.2878C7.69538 15.8994 8.91891 14.7246 8.97495 14.6773C8.9049 14.7294 6.17296 16.7331 6.85478 17.9078C6.99955 18.1636 7.3498 18.2962 7.89152 18.2962C9.84357 18.2962 14.0139 16.6194 18.2682 14.1278C22.2517 11.7925 26.8003 7.41568 26.8423 7.37305C26.8143 7.37305 22.1163 9.97832 20.7713 10.7694C15.1674 14.0567 9.93697 16.4536 8.36785 16.4536C8.12969 16.4489 7.98024 16.392 7.91953 16.2878Z" fill="white"/>
<path d="M14.1398 13.1284C16.1852 12.0911 17.9318 11.0395 17.9318 11.0395C17.9318 11.0395 15.382 5.04737 15.34 5L12.1177 10.4569L6 11.8779L9.73599 15.1937C10.3664 14.9711 12.0897 14.1658 14.1398 13.1284Z" fill="white"/>
<defs>
<linearGradient id="paint0_linear_4704_30391" x1="0" y1="15" x2="30" y2="15" gradientUnits="userSpaceOnUse">
<stop stop-color="#17A562"/>
<stop offset="1" stop-color="#00CDAC"/>
</linearGradient>
</defs>
</svg>
