<svg width="18" height="18" viewBox="0 0 18 18" fill="none" xmlns="http://www.w3.org/2000/svg">
<path d="M16.2214 10.7028L10.7956 16.1286L8.12891 16.6619L8.66224 13.9952L14.0887 8.56944C14.3708 8.28741 14.7533 8.12891 15.1522 8.12891C15.5511 8.12891 15.9336 8.28741 16.2157 8.56944L16.2221 8.57584C16.504 8.85801 16.6623 9.24059 16.6622 9.63945C16.6621 10.0383 16.5035 10.4208 16.2214 10.7028Z" stroke="white" stroke-width="1.245" stroke-linecap="round" stroke-linejoin="round"/>
<path d="M3.86328 7.60254H10.2633" stroke="white" stroke-width="1.245" stroke-linecap="round" stroke-linejoin="round"/>
<path d="M3.86328 10.2695H8.12993" stroke="white" stroke-width="1.245" stroke-linecap="round" stroke-linejoin="round"/>
<path d="M3.86328 12.9355H5.99661" stroke="white" stroke-width="1.245" stroke-linecap="round" stroke-linejoin="round"/>
<path d="M5.99544 16.6621H1.72877C1.44588 16.6621 1.17457 16.5498 0.974527 16.3497C0.774491 16.1497 0.662109 15.8783 0.662109 15.5954V4.39544C0.662109 4.11255 0.774491 3.84123 0.974527 3.6412C1.17457 3.44116 1.44588 3.32878 1.72877 3.32878H4.39615C4.39615 2.62153 4.6771 1.94325 5.1772 1.44316C5.6773 0.943062 6.35558 0.662109 7.06282 0.662109C7.77008 0.662109 8.44833 0.943062 8.94846 1.44316C9.44851 1.94325 9.72947 2.62153 9.72947 3.32878H12.3961C12.679 3.32878 12.9504 3.44116 13.1504 3.6412C13.3504 3.84123 13.4628 4.11255 13.4628 4.39544V5.99544" stroke="white" stroke-width="1.245" stroke-linecap="round" stroke-linejoin="round"/>
<path d="M7.06159 3.33607C6.91432 3.33607 6.79492 3.21668 6.79492 3.0694C6.79492 2.92212 6.91432 2.80273 7.06159 2.80273" stroke="white" stroke-width="1.245" stroke-linecap="round"/>
<path d="M7.0625 3.33607C7.20978 3.33607 7.32915 3.21668 7.32915 3.0694C7.32915 2.92212 7.20978 2.80273 7.0625 2.80273" stroke="white" stroke-width="1.245" stroke-linecap="round"/>
</svg>
