<svg width="14" height="16" viewBox="0 0 14 16" fill="none" xmlns="http://www.w3.org/2000/svg">
<path d="M6.5 8H9.05C9.28125 6.85938 10.2906 6 11.5 6C12.8813 6 14 7.11875 14 8.5C14 9.88125 12.8813 11 11.5 11C10.2906 11 9.28125 10.1406 9.05 9H6.5C5.0875 9 3.825 8.34688 3 7.32812V11.05C4.14062 11.2812 5 12.2906 5 13.5C5 14.8813 3.88125 16 2.5 16C1.11937 16 0 14.8813 0 13.5C0 12.2906 0.85875 11.2812 2 11.05V4.95C0.85875 4.69062 0 3.70937 0 2.5C0 1.11937 1.11937 0 2.5 0C3.88125 0 5 1.11937 5 2.5C5 3.7 4.12813 4.70312 3.02781 4.94375C3.24688 6.66875 4.69063 8 6.5 8ZM2.5 4C3.32812 4 4 3.32812 4 2.5C4 1.67156 3.32812 1 2.5 1C1.67156 1 1 1.67156 1 2.5C1 3.32812 1.67156 4 2.5 4ZM10 8.5C10 9.32812 10.6719 10 11.5 10C12.3281 10 13 9.32812 13 8.5C13 7.67188 12.3281 7 11.5 7C10.6719 7 10 7.67188 10 8.5ZM2.5 15C3.32812 15 4 14.3281 4 13.5C4 12.6719 3.32812 12 2.5 12C1.67156 12 1 12.6719 1 13.5C1 14.3281 1.67156 15 2.5 15Z" fill="white"/>
</svg>
