<svg width="16" height="18" viewBox="0 0 16 18" fill="none" xmlns="http://www.w3.org/2000/svg">
<path d="M12.5 6.75C11.2412 6.75 10.1798 7.59614 9.85354 8.75H7.5C5.89525 8.75 4.60109 7.6242 4.31027 6.12706C5.41001 5.78156 6.25 4.73799 6.25 3.5C6.25 1.98134 5.01936 0.75 3.5 0.75C1.9813 0.75 0.75 1.9813 0.75 3.5C0.75 4.76452 1.60097 5.79637 2.75 6.14244V11.8535C1.59557 12.1798 0.75 13.2412 0.75 14.5C0.75 16.0194 1.98134 17.25 3.5 17.25C5.01932 17.25 6.25 16.0193 6.25 14.5C6.25 13.2412 5.40386 12.1798 4.25 11.8535V8.96327C5.09963 9.7603 6.24353 10.25 7.5 10.25H9.85354C10.1798 11.4039 11.2412 12.25 12.5 12.25C14.0193 12.25 15.25 11.0193 15.25 9.5C15.25 7.98068 14.0193 6.75 12.5 6.75ZM4.75 3.5C4.75 4.19005 4.19005 4.75 3.5 4.75C2.80967 4.75 2.25 4.19009 2.25 3.5C2.25 2.80963 2.80963 2.25 3.5 2.25C4.19009 2.25 4.75 2.80967 4.75 3.5ZM12.5 10.75C11.8099 10.75 11.25 10.1901 11.25 9.5C11.25 8.80995 11.8099 8.25 12.5 8.25C13.1901 8.25 13.75 8.80995 13.75 9.5C13.75 10.1901 13.1901 10.75 12.5 10.75ZM4.75 14.5C4.75 15.1901 4.19005 15.75 3.5 15.75C2.80967 15.75 2.25 15.1901 2.25 14.5C2.25 13.8099 2.80967 13.25 3.5 13.25C4.19005 13.25 4.75 13.8099 4.75 14.5Z" fill="white" stroke="white" stroke-width="0.5"/>
</svg>
