<svg width="19" height="19" viewBox="0 0 19 19" fill="none" xmlns="http://www.w3.org/2000/svg">
<path d="M11.6752 18.0259H11.6152C11.3951 18.0127 11.1856 17.927 11.0192 17.7824C10.8528 17.6377 10.7389 17.4421 10.6952 17.2259L9.0052 9.02594L0.805199 7.33594C0.588669 7.29294 0.392455 7.17949 0.247153 7.01329C0.101851 6.84709 0.0156276 6.63749 0.0019281 6.41715C-0.0117714 6.19682 0.0478231 5.97815 0.171419 5.79523C0.295015 5.61231 0.475664 5.47543 0.685199 5.40594L16.6852 0.075939C16.8648 0.00178202 17.0621 -0.0184467 17.253 0.0177257C17.4439 0.0538982 17.6202 0.144905 17.7602 0.279621C17.9002 0.414338 17.9979 0.586929 18.0415 0.776299C18.085 0.965669 18.0724 1.16361 18.0052 1.34594L12.6752 17.3459C12.6056 17.5529 12.4702 17.7314 12.2896 17.8542C12.1091 17.977 11.8933 18.0373 11.6752 18.0259ZM4.8752 6.12594L10.0652 7.18594C10.2592 7.22336 10.4378 7.31742 10.5784 7.45624C10.719 7.59506 10.8153 7.77242 10.8552 7.96594L11.9052 13.1559L15.4252 2.60594L4.8752 6.12594Z" fill="#503FEA"/>
</svg>
