<svg width="17" height="17" viewBox="0 0 17 17" fill="none" xmlns="http://www.w3.org/2000/svg">
<path d="M6.0013 7.66667C7.84225 7.66667 9.33464 6.17428 9.33464 4.33333C9.33464 2.49238 7.84225 1 6.0013 1C4.16035 1 2.66797 2.49238 2.66797 4.33333C2.66797 6.17428 4.16035 7.66667 6.0013 7.66667Z" stroke="white" stroke-width="1.5" stroke-linecap="round" stroke-linejoin="round"/>
<path d="M1 16V14.3333C1 13.4493 1.35119 12.6014 1.97631 11.9763C2.60143 11.3512 3.44928 11 4.33333 11H7.66667C8.55072 11 9.39857 11.3512 10.0237 11.9763C10.6488 12.6014 11 13.4493 11 14.3333V16" stroke="white" stroke-width="1.5" stroke-linecap="round" stroke-linejoin="round"/>
<path d="M11.832 1.1084C12.549 1.29198 13.1846 1.70898 13.6384 2.29366C14.0922 2.87833 14.3386 3.59742 14.3386 4.33757C14.3386 5.07771 14.0922 5.7968 13.6384 6.38147C13.1846 6.96615 12.549 7.38315 11.832 7.56673" stroke="white" stroke-width="1.5" stroke-linecap="round" stroke-linejoin="round"/>
<path d="M16 16V14.3333C15.9958 13.5976 15.7483 12.884 15.2961 12.3037C14.8439 11.7233 14.2124 11.3089 13.5 11.125" stroke="white" stroke-width="1.5" stroke-linecap="round" stroke-linejoin="round"/>
</svg>
