<svg width="17" height="17" viewBox="0 0 17 17" fill="none" xmlns="http://www.w3.org/2000/svg">
<path d="M6.00033 7.66667C7.84127 7.66667 9.33366 6.17428 9.33366 4.33333C9.33366 2.49238 7.84127 1 6.00033 1C4.15938 1 2.66699 2.49238 2.66699 4.33333C2.66699 6.17428 4.15938 7.66667 6.00033 7.66667Z" stroke="white" stroke-width="1.5" stroke-linecap="round" stroke-linejoin="round"/>
<path d="M1 16V14.3333C1 13.4493 1.35119 12.6014 1.97631 11.9763C2.60143 11.3512 3.44928 11 4.33333 11H7.66667C8.55072 11 9.39857 11.3512 10.0237 11.9763C10.6488 12.6014 11 13.4493 11 14.3333V16" stroke="white" stroke-width="1.5" stroke-linecap="round" stroke-linejoin="round"/>
<path d="M11.833 1.1084C12.55 1.29198 13.1855 1.70898 13.6394 2.29366C14.0932 2.87833 14.3395 3.59742 14.3395 4.33757C14.3395 5.07771 14.0932 5.7968 13.6394 6.38147C13.1855 6.96615 12.55 7.38315 11.833 7.56673" stroke="white" stroke-width="1.5" stroke-linecap="round" stroke-linejoin="round"/>
<path d="M16 16V14.3333C15.9958 13.5976 15.7483 12.884 15.2961 12.3037C14.8439 11.7233 14.2124 11.3089 13.5 11.125" stroke="white" stroke-width="1.5" stroke-linecap="round" stroke-linejoin="round"/>
</svg>
