<svg width="18" height="16" viewBox="0 0 18 16" fill="none" xmlns="http://www.w3.org/2000/svg">
<path d="M17.8332 7.625C18.0395 7.80625 18.0582 8.09688 17.8488 8.33125C17.6957 8.5375 17.377 8.55625 17.1707 8.34688L16.002 7.31563V13.5C16.002 14.8813 14.8832 16 13.502 16H4.50196C3.12133 16 2.00196 14.8813 2.00196 13.5V7.31563L0.832897 8.34688C0.62571 8.55625 0.309741 8.5375 0.127054 8.33125C-0.0556652 8.09688 -0.0359152 7.80625 0.171147 7.625L8.67071 0.125062C8.86133 -0.0416875 9.14258 -0.0416875 9.33321 0.125062L17.8332 7.625ZM4.50196 15H6.50196V10C6.50196 9.44687 6.94883 9 7.50196 9H10.502C11.0551 9 11.502 9.44687 11.502 10V15H13.502C14.3301 15 15.002 14.3281 15.002 13.5V6.45937L9.00196 1.16688L3.00196 6.45937V13.5C3.00196 14.3281 3.67383 15 4.50196 15ZM7.50196 15H10.502V10H7.50196V15Z" fill="white"/>
</svg>
