<svg width="20" height="20" viewBox="0 0 20 20" fill="none" xmlns="http://www.w3.org/2000/svg">
<g clip-path="url(#clip0_4734_27686)">
<path d="M5.00016 10.0003C5.92064 10.0003 6.66683 9.25413 6.66683 8.33366C6.66683 7.41318 5.92064 6.66699 5.00016 6.66699C4.07969 6.66699 3.3335 7.41318 3.3335 8.33366C3.3335 9.25413 4.07969 10.0003 5.00016 10.0003Z" stroke="white" stroke-width="1.25" stroke-linecap="round" stroke-linejoin="round"/>
<path d="M5 3.33301V6.66634" stroke="white" stroke-width="1.25" stroke-linecap="round" stroke-linejoin="round"/>
<path d="M5 10V16.6667" stroke="white" stroke-width="1.25" stroke-linecap="round" stroke-linejoin="round"/>
<path d="M10.0002 15.0003C10.9206 15.0003 11.6668 14.2541 11.6668 13.3337C11.6668 12.4132 10.9206 11.667 10.0002 11.667C9.07969 11.667 8.3335 12.4132 8.3335 13.3337C8.3335 14.2541 9.07969 15.0003 10.0002 15.0003Z" stroke="white" stroke-width="1.25" stroke-linecap="round" stroke-linejoin="round"/>
<path d="M10 3.33301V11.6663" stroke="white" stroke-width="1.25" stroke-linecap="round" stroke-linejoin="round"/>
<path d="M10 15V16.6667" stroke="white" stroke-width="1.25" stroke-linecap="round" stroke-linejoin="round"/>
<path d="M15.0002 7.50033C15.9206 7.50033 16.6668 6.75413 16.6668 5.83366C16.6668 4.91318 15.9206 4.16699 15.0002 4.16699C14.0797 4.16699 13.3335 4.91318 13.3335 5.83366C13.3335 6.75413 14.0797 7.50033 15.0002 7.50033Z" stroke="white" stroke-width="1.25" stroke-linecap="round" stroke-linejoin="round"/>
<path d="M15 3.33301V4.16634" stroke="white" stroke-width="1.25" stroke-linecap="round" stroke-linejoin="round"/>
<path d="M15 7.5V16.6667" stroke="white" stroke-width="1.25" stroke-linecap="round" stroke-linejoin="round"/>
</g>
<defs>
<clipPath id="clip0_4734_27686">
<rect width="20" height="20" fill="white"/>
</clipPath>
</defs>
</svg>
