<svg width="20" height="20" viewBox="0 0 20 20" fill="none" xmlns="http://www.w3.org/2000/svg">
<g clip-path="url(#clip0_4700_43570)">
<path d="M5.00065 10.0003C5.92113 10.0003 6.66732 9.25413 6.66732 8.33366C6.66732 7.41318 5.92113 6.66699 5.00065 6.66699C4.08018 6.66699 3.33398 7.41318 3.33398 8.33366C3.33398 9.25413 4.08018 10.0003 5.00065 10.0003Z" stroke="white" stroke-width="1.5" stroke-linecap="round" stroke-linejoin="round"/>
<path d="M5 3.33301V6.66634" stroke="white" stroke-width="1.5" stroke-linecap="round" stroke-linejoin="round"/>
<path d="M5 10V16.6667" stroke="white" stroke-width="1.5" stroke-linecap="round" stroke-linejoin="round"/>
<path d="M10.0007 15.0003C10.9211 15.0003 11.6673 14.2541 11.6673 13.3337C11.6673 12.4132 10.9211 11.667 10.0007 11.667C9.08018 11.667 8.33398 12.4132 8.33398 13.3337C8.33398 14.2541 9.08018 15.0003 10.0007 15.0003Z" stroke="white" stroke-width="1.5" stroke-linecap="round" stroke-linejoin="round"/>
<path d="M10 3.33301V11.6663" stroke="white" stroke-width="1.5" stroke-linecap="round" stroke-linejoin="round"/>
<path d="M10 15V16.6667" stroke="white" stroke-width="1.5" stroke-linecap="round" stroke-linejoin="round"/>
<path d="M15.0007 7.50033C15.9211 7.50033 16.6673 6.75413 16.6673 5.83366C16.6673 4.91318 15.9211 4.16699 15.0007 4.16699C14.0802 4.16699 13.334 4.91318 13.334 5.83366C13.334 6.75413 14.0802 7.50033 15.0007 7.50033Z" stroke="white" stroke-width="1.5" stroke-linecap="round" stroke-linejoin="round"/>
<path d="M15 3.33301V4.16634" stroke="white" stroke-width="1.5" stroke-linecap="round" stroke-linejoin="round"/>
<path d="M15 7.5V16.6667" stroke="white" stroke-width="1.5" stroke-linecap="round" stroke-linejoin="round"/>
</g>
<defs>
<clipPath id="clip0_4700_43570">
<rect width="20" height="20" fill="white"/>
</clipPath>
</defs>
</svg>
