<svg width="500" height="500" viewBox="0 0 500 500" fill="none" xmlns="http://www.w3.org/2000/svg">
<path d="M500 382.398H0V382.648H500V382.398Z" fill="#EBEBEB"/>
<path d="M449.901 398.488H416.781V398.738H449.901V398.488Z" fill="#EBEBEB"/>
<path d="M331.221 401.211H322.531V401.461H331.221V401.211Z" fill="#EBEBEB"/>
<path d="M415.78 389.211H396.59V389.461H415.78V389.211Z" fill="#EBEBEB"/>
<path d="M95.6509 390.891H52.4609V391.141H95.6509V390.891Z" fill="#EBEBEB"/>
<path d="M110.889 390.891H104.559V391.141H110.889V390.891Z" fill="#EBEBEB"/>
<path d="M225.149 395.109H131.469V395.359H225.149V395.109Z" fill="#EBEBEB"/>
<path d="M237.001 337.8H43.9109C42.3983 337.797 40.9485 337.195 39.8798 336.124C38.8112 335.053 38.2109 333.603 38.2109 332.09V60.66C38.2241 59.156 38.8301 57.718 39.8974 56.6582C40.9646 55.5985 42.4069 55.0026 43.9109 55H237.001C238.515 55 239.968 55.6016 241.039 56.6724C242.109 57.7433 242.711 59.1956 242.711 60.71V332.09C242.711 333.604 242.109 335.057 241.039 336.128C239.968 337.198 238.515 337.8 237.001 337.8ZM43.9109 55.2C42.4646 55.2026 41.0784 55.7791 40.0566 56.8027C39.0348 57.8264 38.4609 59.2136 38.4609 60.66V332.09C38.4609 333.536 39.0348 334.924 40.0566 335.947C41.0784 336.971 42.4646 337.547 43.9109 337.55H237.001C238.448 337.547 239.835 336.971 240.859 335.948C241.882 334.924 242.458 333.537 242.461 332.09V60.66C242.458 59.2127 241.882 57.8255 240.859 56.8021C239.835 55.7787 238.448 55.2026 237.001 55.2H43.9109Z" fill="#EBEBEB"/>
<path d="M453.31 337.8H260.21C258.696 337.797 257.246 337.195 256.175 336.125C255.105 335.054 254.503 333.604 254.5 332.09V60.66C254.516 59.1551 255.124 57.7171 256.193 56.6576C257.262 55.5981 258.705 55.0025 260.21 55H453.31C454.812 55.0052 456.252 55.6022 457.317 56.6617C458.382 57.7212 458.987 59.1578 459 60.66V332.09C459 333.601 458.401 335.05 457.335 336.121C456.268 337.191 454.821 337.795 453.31 337.8ZM260.21 55.2C258.763 55.2026 257.375 55.7787 256.352 56.8021C255.329 57.8255 254.753 59.2127 254.75 60.66V332.09C254.753 333.537 255.329 334.924 256.352 335.948C257.375 336.971 258.763 337.547 260.21 337.55H453.31C454.757 337.547 456.145 336.971 457.168 335.948C458.191 334.924 458.767 333.537 458.77 332.09V60.66C458.767 59.2127 458.191 57.8255 457.168 56.8021C456.145 55.7787 454.757 55.2026 453.31 55.2H260.21Z" fill="#EBEBEB"/>
<path d="M149.429 198.488H142.699V382.648H149.429V198.488Z" fill="#F5F5F5"/>
<path d="M176.039 221.871H169.309V382.651H176.039V221.871Z" fill="#F5F5F5"/>
<path d="M202.402 245.25H195.672V382.65H202.402V245.25Z" fill="#F5F5F5"/>
<path d="M228.769 229.66H222.039V382.65H228.769V229.66Z" fill="#F5F5F5"/>
<path d="M255.14 221.871H248.41V382.651H255.14V221.871Z" fill="#F5F5F5"/>
<path d="M281.5 206.281H274.77V382.651H281.5V206.281Z" fill="#F5F5F5"/>
<path d="M307.871 214.078H301.141V382.648H307.871V214.078Z" fill="#F5F5F5"/>
<path d="M334.242 206.281H327.512V382.651H334.242V206.281Z" fill="#F5F5F5"/>
<path d="M360.601 190.691H353.871V382.641H360.601V190.691Z" fill="#F5F5F5"/>
<path d="M386.968 175.109H380.238V382.649H386.968V175.109Z" fill="#F5F5F5"/>
<path d="M413.332 159.52H406.602V382.65H413.332V159.52Z" fill="#F5F5F5"/>
<path d="M199 234.301C198.625 234.286 198.269 234.133 198 233.871L141.66 178.941C141.375 178.663 141.212 178.282 141.207 177.884C141.202 177.485 141.356 177.101 141.635 176.816C141.913 176.531 142.294 176.368 142.692 176.364C143.091 176.359 143.475 176.513 143.76 176.791L199.19 230.841L277.26 173.841C277.562 173.626 277.933 173.529 278.302 173.57C278.671 173.61 279.012 173.785 279.26 174.061L304.82 203.001L410.62 142.381C410.791 142.283 410.98 142.22 411.176 142.196C411.372 142.171 411.57 142.185 411.761 142.237C411.951 142.289 412.129 142.378 412.285 142.499C412.441 142.619 412.572 142.77 412.67 142.941C412.768 143.113 412.831 143.302 412.855 143.497C412.88 143.693 412.866 143.892 412.814 144.082C412.762 144.273 412.673 144.451 412.552 144.607C412.432 144.763 412.281 144.893 412.11 144.991L305.25 206.231C304.949 206.401 304.6 206.463 304.26 206.406C303.92 206.35 303.609 206.179 303.38 205.921L277.92 177.121L199.92 234.011C199.653 234.207 199.33 234.309 199 234.301Z" fill="#F0F0F0"/>
<path d="M192.65 381.5L143.48 187.59L145.94 177.9H143.38V122.52H136.78V177.9H134.22L136.68 187.59L87.5 381.5H94.31L136.78 214.02V382.52H143.38V214.02L185.85 381.5H192.65Z" fill="#E0E0E0"/>
<path d="M177.13 185.665C181.96 165.201 169.287 144.697 148.823 139.868C128.36 135.038 107.856 147.711 103.026 168.175C98.1965 188.638 110.87 209.142 131.333 213.972C151.796 218.801 172.3 206.128 177.13 185.665Z" fill="#E6E6E6"/>
<path d="M140.078 209.43C158.027 209.43 172.578 194.879 172.578 176.93C172.578 158.98 158.027 144.43 140.078 144.43C122.129 144.43 107.578 158.98 107.578 176.93C107.578 194.879 122.129 209.43 140.078 209.43Z" fill="#F5F5F5"/>
<path d="M140.081 202.368C154.131 202.368 165.521 190.978 165.521 176.928C165.521 162.878 154.131 151.488 140.081 151.488C126.031 151.488 114.641 162.878 114.641 176.928C114.641 190.978 126.031 202.368 140.081 202.368Z" fill="#E6E6E6"/>
<path d="M148.065 196.187C158.703 191.781 163.755 179.584 159.348 168.946C154.942 158.307 142.745 153.255 132.107 157.662C121.468 162.068 116.416 174.265 120.823 184.904C125.229 195.542 137.426 200.594 148.065 196.187Z" fill="#F5F5F5"/>
<path d="M154.158 180.241C155.994 172.463 151.177 164.669 143.399 162.834C135.621 160.998 127.828 165.815 125.992 173.593C124.156 181.371 128.973 189.164 136.751 191C144.529 192.835 152.322 188.018 154.158 180.241Z" fill="#E6E6E6"/>
<path d="M144.063 186.523C149.364 184.327 151.882 178.249 149.686 172.948C147.49 167.646 141.412 165.129 136.111 167.325C130.809 169.521 128.292 175.598 130.488 180.9C132.684 186.201 138.762 188.719 144.063 186.523Z" fill="#F5F5F5"/>
<path d="M144.792 176.931C144.792 177.865 144.514 178.778 143.995 179.554C143.476 180.331 142.739 180.936 141.876 181.293C141.012 181.65 140.063 181.742 139.147 181.56C138.231 181.377 137.39 180.926 136.73 180.265C136.071 179.604 135.622 178.762 135.441 177.846C135.26 176.929 135.355 175.98 135.714 175.118C136.072 174.255 136.679 173.519 137.457 173.002C138.234 172.484 139.148 172.209 140.082 172.211C140.701 172.211 141.314 172.333 141.886 172.57C142.458 172.808 142.978 173.156 143.416 173.594C143.853 174.032 144.2 174.553 144.436 175.125C144.672 175.698 144.793 176.312 144.792 176.931Z" fill="#E6E6E6"/>
<path d="M91.2198 145.531L92.2498 152.411L85.0898 154.821L92.2498 158.581L99.3898 156.071L98.1398 149.291L91.2198 145.531Z" fill="#E6E6E6"/>
<path d="M140.08 177.93C139.92 177.928 139.763 177.891 139.62 177.82L88.3898 151.56C88.1618 151.435 87.9915 151.226 87.9152 150.977C87.8388 150.729 87.8623 150.46 87.9807 150.228C88.0991 149.997 88.3031 149.82 88.5493 149.737C88.7956 149.653 89.0648 149.669 89.2998 149.78L140.53 176C140.765 176.12 140.944 176.328 141.026 176.579C141.109 176.83 141.088 177.104 140.97 177.34C140.892 177.513 140.768 177.659 140.61 177.764C140.453 177.868 140.269 177.926 140.08 177.93Z" fill="#E0E0E0"/>
<path d="M210.578 134.161C210.573 132.785 210.892 131.427 211.507 130.196C212.123 128.966 213.019 127.897 214.123 127.076C215.227 126.255 216.509 125.705 217.864 125.469C219.22 125.234 220.612 125.32 221.928 125.721C221.537 123.067 221.723 120.361 222.472 117.786C223.222 115.211 224.518 112.827 226.272 110.798C228.025 108.769 230.196 107.142 232.636 106.028C235.075 104.913 237.726 104.338 240.408 104.341C241.559 104.34 242.707 104.447 243.838 104.661C245.679 101.636 248.453 99.2922 251.742 97.9823C255.031 96.6724 258.657 96.4677 262.073 97.3989C265.488 98.3302 268.509 100.347 270.678 103.145C272.847 105.943 274.047 109.371 274.098 112.911H274.378C278.367 112.911 282.193 114.495 285.013 117.316C287.834 120.136 289.418 123.962 289.418 127.951C289.418 131.939 287.834 135.765 285.013 138.585C282.193 141.406 278.367 142.991 274.378 142.991H219.138C216.842 142.925 214.662 141.966 213.063 140.316C211.464 138.667 210.572 136.458 210.578 134.161Z" fill="#F0F0F0"/>
<path d="M367.469 129.319C367.469 128.191 367.917 127.11 368.714 126.313C369.511 125.516 370.592 125.069 371.719 125.069C372.132 125.072 372.542 125.133 372.939 125.249C372.875 124.818 372.842 124.384 372.839 123.949C372.838 122.626 373.129 121.319 373.691 120.121C374.253 118.924 375.072 117.865 376.09 117.02C377.108 116.175 378.3 115.564 379.58 115.232C380.861 114.9 382.199 114.855 383.499 115.099C384.39 113.644 385.729 112.519 387.315 111.892C388.901 111.264 390.647 111.169 392.292 111.62C393.937 112.071 395.39 113.045 396.434 114.393C397.477 115.742 398.055 117.393 398.079 119.099H398.209C400.132 119.099 401.976 119.862 403.335 121.222C404.695 122.582 405.459 124.426 405.459 126.349C405.459 128.271 404.695 130.115 403.335 131.475C401.976 132.835 400.132 133.599 398.209 133.599H371.599C370.487 133.57 369.43 133.105 368.658 132.304C367.885 131.504 367.458 130.431 367.469 129.319Z" fill="#F0F0F0"/>
<path d="M94.7196 134.61C94.7196 134.235 94.7937 133.864 94.9375 133.517C95.0814 133.171 95.2922 132.856 95.5579 132.591C95.8236 132.326 96.139 132.117 96.4859 131.974C96.8328 131.831 97.2045 131.759 97.5796 131.76C97.8574 131.759 98.1337 131.8 98.3996 131.88C98.3561 131.589 98.3327 131.295 98.3296 131C98.3427 129.413 98.979 127.894 100.101 126.772C101.224 125.649 102.742 125.013 104.33 125C104.706 125.002 105.081 125.038 105.45 125.11C106.043 124.127 106.941 123.364 108.007 122.937C109.073 122.51 110.25 122.442 111.358 122.744C112.466 123.046 113.445 123.701 114.148 124.61C114.85 125.519 115.237 126.632 115.25 127.78H115.34C116.594 127.837 117.779 128.375 118.647 129.283C119.514 130.191 119.999 131.399 119.999 132.655C119.999 133.911 119.514 135.119 118.647 136.027C117.779 136.935 116.594 137.473 115.34 137.53H97.4996C97.1253 137.521 96.7565 137.438 96.4142 137.287C96.0719 137.135 95.7628 136.917 95.5046 136.646C95.2465 136.375 95.0442 136.055 94.9095 135.706C94.7749 135.357 94.7103 134.984 94.7196 134.61Z" fill="#F0F0F0"/>
<path d="M249.999 427.562C357.082 427.562 443.889 422.494 443.889 416.242C443.889 409.99 357.082 404.922 249.999 404.922C142.917 404.922 56.1094 409.99 56.1094 416.242C56.1094 422.494 142.917 427.562 249.999 427.562Z" fill="#F5F5F5"/>
<path d="M138.383 225.561L145.243 221.641C145.243 221.641 147.883 217.571 148.673 217.381C149.463 217.191 158.163 217.381 158.163 217.381C158.163 217.381 156.853 223.021 156.713 224.131C156.573 225.241 148.273 224.131 148.273 224.131L141.553 228.131L138.383 225.561Z" fill="#EBB376"/>
<path d="M74.4899 408L67.3099 406.57C67.1817 406.57 67.0571 406.613 66.957 406.693C66.8569 406.773 66.7873 406.885 66.7599 407.01L64.8299 414.19C64.7892 414.436 64.8415 414.687 64.9764 414.896C65.1114 415.105 65.3194 415.257 65.5599 415.32H65.7699C68.3099 415.32 70.1599 415.12 73.3399 415.12C75.3399 415.12 81.2199 415.33 83.9299 415.33C86.6399 415.33 86.9999 412.65 85.9299 412.41C80.9299 411.32 77.2099 409.82 75.6199 408.41C75.3119 408.13 74.9058 407.983 74.4899 408Z" fill="#263238"/>
<path d="M162.361 407.762H154.521C154.393 407.759 154.267 407.802 154.167 407.882C154.066 407.963 153.997 408.076 153.971 408.202L152.691 414.002C152.654 414.247 152.709 414.498 152.845 414.704C152.982 414.911 153.191 415.06 153.431 415.122H153.641C156.181 415.072 158.021 414.922 161.211 414.922C163.211 414.922 169.091 415.122 171.801 415.122C174.511 415.122 174.861 412.452 173.751 412.202C168.751 411.122 165.031 409.612 163.441 408.202C163.3 408.06 163.132 407.947 162.946 407.872C162.76 407.796 162.562 407.759 162.361 407.762Z" fill="#263238"/>
<path d="M88.3316 275.67L121.532 267.25C129.062 283.69 156.692 351.19 163.392 407.35L152.152 410.2C152.152 410.2 132.252 327.38 115.562 303.2C115.562 303.2 114.672 339.96 112.862 345.31C111.372 349.71 77.2016 408.58 77.2016 408.58L66.1016 407.33C66.1016 407.33 94.0016 347.25 95.6416 339.76C96.8016 334.66 91.7216 297.2 91.7216 297.2C90.8316 293.86 89.4916 280.03 89.4916 280.03C89.4916 280.03 88.4916 276.36 88.3316 275.67Z" fill="#17A562"/>
<path opacity="0.2" d="M115.572 303.222C118.39 307.484 120.848 311.973 122.922 316.642C120.622 303.702 113.492 291.172 113.492 291.172L115.572 303.222Z" fill="black"/>
<path opacity="0.3" d="M88.3316 275.67L121.532 267.25C129.062 283.69 156.692 351.19 163.392 407.35L152.152 410.2C152.152 410.2 132.252 327.38 115.562 303.2C115.562 303.2 114.672 339.96 112.862 345.31C111.372 349.71 77.2016 408.58 77.2016 408.58L66.1016 407.33C66.1016 407.33 94.0016 347.25 95.6416 339.76C96.8016 334.66 91.7216 297.2 91.7216 297.2C90.8316 293.86 89.4916 280.03 89.4916 280.03C89.4916 280.03 88.4916 276.36 88.3316 275.67Z" fill="black"/>
<path d="M146.051 226.132C146.051 226.132 130.911 236.352 126.921 236.892C125.331 237.112 122.051 236.572 118.661 235.892C113.521 234.792 108.161 233.252 108.161 233.252L107.491 228.182L106.781 222.762C107.981 222.362 123.641 228.762 125.981 229.762C128.321 230.762 143.451 221.762 143.451 221.762L146.051 226.132Z" fill="#263238"/>
<path d="M99.2322 273.332L100.212 277.172L89.4922 280.032L88.4922 276.052L99.2322 273.332Z" fill="black"/>
<path d="M116.142 269.039L117.072 272.679L101.402 276.859L100.422 273.029L116.142 269.039Z" fill="black"/>
<path d="M123.242 271.042L118.252 272.372L117.332 268.742L121.912 267.582L123.242 271.042Z" fill="black"/>
<path d="M107.617 275.205L113.801 273.637L112.67 269.178L106.486 270.746L107.617 275.205Z" fill="white"/>
<path d="M121.903 267.569L88.4831 276.049C86.8531 271.639 85.1931 267.199 83.5731 262.869C82.3831 259.699 81.2131 256.589 80.0731 253.579C79.7865 252.805 79.4965 252.045 79.2031 251.299L78.2031 248.639C77.4631 246.692 76.7498 244.815 76.0631 243.009L74.2231 238.199L73.3531 235.919L71.7031 231.619L106.793 222.719C118.363 242.909 121.903 267.569 121.903 267.569Z" fill="#263238"/>
<path d="M84.4431 230.761C88.0531 232.491 94.7131 229.441 94.7131 229.441C94.7131 229.441 96.9231 227.001 95.6031 225.921C92.9231 226.271 93.0931 225.391 92.1231 224.021C91.5685 223.156 91.188 222.191 91.0031 221.181C90.8832 220.623 90.793 220.059 90.7331 219.491L80.2031 215.711C82.5931 219.571 86.3031 226.881 84.4431 230.761Z" fill="#EBB376"/>
<path opacity="0.2" d="M83.4023 219.16C85.3023 224.21 89.9623 224.36 92.1223 224.02C91.5677 223.155 91.1872 222.191 91.0023 221.18L83.4023 219.16Z" fill="black"/>
<path d="M97.1222 200C97.1222 200 99.8722 208.3 95.9022 212.35C91.9322 216.4 89.2422 200.53 89.2422 200.53L97.1222 200Z" fill="#263238"/>
<path d="M83.9201 221.392C85.108 222.632 86.6696 223.448 88.3656 223.715C90.0616 223.982 91.7985 223.686 93.3101 222.872C95.292 221.848 96.8084 220.106 97.5501 218.002C97.6501 217.722 97.7401 217.422 97.8201 217.122C99.1601 211.532 98.3201 202.302 92.2301 199.822C90.8878 199.269 89.4263 199.068 87.9846 199.239C86.5428 199.41 85.1687 199.947 83.9931 200.799C82.8175 201.651 81.8793 202.789 81.2679 204.106C80.6565 205.423 80.3922 206.874 80.5001 208.322C80.8601 214.552 80.7801 218.212 83.9201 221.392Z" fill="#EBB376"/>
<path d="M89.9297 210.092C89.9297 210.592 90.1897 211.002 90.5297 211.002C90.8697 211.002 91.1197 210.592 91.1297 210.092C91.1397 209.592 90.8597 209.172 90.5297 209.172C90.1997 209.172 89.9297 209.582 89.9297 210.092Z" fill="#263238"/>
<path d="M95.6523 210.09C95.6523 210.6 95.9223 211.01 96.2523 211.01C96.5823 211.01 96.8423 210.59 96.8523 210.09C96.8623 209.59 96.5723 209.18 96.2523 209.18C95.9323 209.18 95.6523 209.61 95.6523 210.09Z" fill="#263238"/>
<path d="M93.8325 210.34C94.4304 211.888 95.2415 213.346 96.2425 214.67C95.8953 214.919 95.4976 215.088 95.0776 215.166C94.6577 215.243 94.2257 215.228 93.8125 215.12L93.8325 210.34Z" fill="#D58745"/>
<path d="M97.7412 207.75C97.6933 207.774 97.6401 207.787 97.5862 207.787C97.5323 207.787 97.4792 207.774 97.4312 207.75C97.1355 207.522 96.7904 207.368 96.4239 207.298C96.0574 207.229 95.6797 207.246 95.3212 207.35C95.2483 207.378 95.1673 207.375 95.096 207.343C95.0248 207.312 94.9691 207.253 94.9412 207.18C94.9134 207.107 94.9157 207.026 94.9475 206.954C94.9794 206.883 95.0383 206.828 95.1112 206.8C95.5597 206.658 96.0357 206.627 96.4989 206.709C96.962 206.79 97.3985 206.983 97.7712 207.27C97.804 207.291 97.8321 207.318 97.854 207.351C97.8758 207.383 97.8909 207.419 97.8984 207.458C97.9059 207.496 97.9056 207.535 97.8974 207.573C97.8893 207.612 97.8736 207.648 97.8512 207.68C97.8177 207.708 97.7807 207.731 97.7412 207.75Z" fill="#263238"/>
<path d="M88.8004 207.822C88.7432 207.814 88.6885 207.794 88.6404 207.762C88.5855 207.706 88.5547 207.63 88.5547 207.552C88.5547 207.473 88.5855 207.398 88.6404 207.342C88.99 207.022 89.4116 206.791 89.8696 206.669C90.3275 206.547 90.8081 206.538 91.2704 206.642C91.3434 206.665 91.4048 206.715 91.442 206.782C91.4792 206.849 91.4893 206.928 91.4704 207.002C91.4472 207.077 91.3959 207.141 91.3272 207.18C91.2584 207.219 91.1773 207.231 91.1004 207.212C90.7357 207.139 90.3587 207.153 90.0006 207.254C89.6425 207.355 89.3134 207.539 89.0404 207.792C89.0047 207.813 88.9649 207.827 88.9236 207.832C88.8823 207.837 88.8403 207.834 88.8004 207.822Z" fill="#263238"/>
<path d="M85.0617 200.602L85.6617 201.752C83.6617 202.522 84.1617 204.882 84.6617 205.932C85.6617 208.192 84.5117 211.822 82.8217 213.332C82.8217 213.332 82.7117 212.332 81.8817 212.612C81.0517 212.892 81.5317 218.072 83.2917 220.472C83.2917 220.472 80.7017 218.342 79.0417 212.962C77.5117 207.962 77.1517 203.792 78.1017 201.792L85.0617 200.602Z" fill="#263238"/>
<path d="M77.7831 213.441C78.1233 214.139 78.5978 214.764 79.1795 215.278C79.7612 215.793 80.4386 216.188 81.1731 216.441C83.1731 217.101 84.1731 215.371 83.7731 213.441C83.3531 211.751 81.8431 209.301 79.7731 209.491C79.3366 209.54 78.9192 209.696 78.5586 209.947C78.198 210.198 77.9057 210.535 77.7081 210.927C77.5105 211.319 77.4139 211.754 77.427 212.193C77.4401 212.632 77.5625 213.061 77.7831 213.441Z" fill="#EBB376"/>
<path d="M85 223.889C87.94 225.949 93.67 226.619 96.48 222.889C99.29 219.159 98.39 213.169 98.39 213.169C98.0672 214.506 97.4525 215.756 96.59 216.829C95 214.909 92.3 215.999 92.3 215.999C91.731 215.258 90.9146 214.747 90 214.559C88.69 214.429 85 214.649 85 214.649C83.82 213.899 83.77 210.559 83.77 210.559L83.05 211.159C83.05 211.159 82.05 221.819 85 223.889Z" fill="#263238"/>
<path d="M92.8614 202.719C92.8614 202.719 99.8614 199.319 99.0314 195.919C98.2014 192.519 96.1614 196.399 96.1614 196.399C96.1614 196.399 97.1014 193.819 95.2614 193.399C93.4214 192.979 94.0014 194.629 93.0014 195.619C92.0014 196.609 82.3014 195.169 79.1714 197.109C76.0414 199.049 78.4314 205.759 78.4314 205.759C80.2799 203.903 82.6298 202.627 85.193 202.087C87.7562 201.547 90.4212 201.767 92.8614 202.719Z" fill="#263238"/>
<path opacity="0.2" d="M85 223.889C87.94 225.949 93.67 226.619 96.48 222.889C99.29 219.159 98.39 213.169 98.39 213.169C98.0672 214.506 97.4525 215.756 96.59 216.829C95 214.909 92.3 215.999 92.3 215.999C91.731 215.258 90.9146 214.747 90 214.559C88.69 214.429 85 214.649 85 214.649C83.82 213.899 83.77 210.559 83.77 210.559L83.05 211.159C83.05 211.159 82.05 221.819 85 223.889Z" fill="white"/>
<path d="M92.5998 217.899C92.0617 218.619 91.5771 219.378 91.1498 220.169L90.6998 219.999C88.6998 219.269 87.9798 218.269 87.8198 217.369C87.7551 216.933 87.7928 216.488 87.9298 216.069C88.0027 215.826 88.1069 215.594 88.2398 215.379C89.2917 216.383 90.5465 217.15 91.9198 217.629C92.3298 217.809 92.5998 217.899 92.5998 217.899Z" fill="#263238"/>
<path d="M91.9197 217.641L91.4697 218.301C89.5697 217.611 88.3197 216.871 87.9297 216.081C88.0026 215.838 88.1068 215.606 88.2397 215.391C89.2916 216.395 90.5464 217.162 91.9197 217.641Z" fill="white"/>
<path d="M90.7003 220.001C88.7003 219.271 87.9803 218.271 87.8203 217.371C88.584 217.668 89.291 218.094 89.9103 218.631C90.3111 218.993 90.5875 219.473 90.7003 220.001Z" fill="#DE5753"/>
<path d="M96.0312 229.449L95.4413 234.629L106.241 257.639L105.171 260.689L101.641 259.059L93.9413 235.589L88.2812 231.759L92.4013 229.499L96.0312 229.449Z" fill="#17A562"/>
<path d="M84.6806 225.91L91.8306 228.86L92.1206 224.02L97.3906 225.32L97.8406 232.69L92.7706 230.62L90.6506 235.34L81.6406 229.32L84.6806 225.91Z" fill="#263238"/>
<path opacity="0.2" d="M84.6806 225.91L91.8306 228.86L92.1206 224.02L97.3906 225.32L97.8406 232.69L92.7706 230.62L90.6506 235.34L81.6406 229.32L84.6806 225.91Z" fill="white"/>
<path opacity="0.2" d="M78.1898 248.642C77.4499 246.696 76.7365 244.819 76.0499 243.012L74.2098 238.202L73.3398 235.922C74.3398 235.432 76.8898 235.722 77.5998 236.922C80.1998 241.462 78.1898 248.642 78.1898 248.642Z" fill="black"/>
<path opacity="0.2" d="M90.7231 253.721C90.296 255.685 89.4313 257.528 88.1934 259.112C86.9554 260.697 85.3762 261.981 83.5731 262.871C82.3831 259.701 81.2131 256.591 80.0731 253.581C79.7865 252.807 79.4965 252.047 79.2031 251.301L78.2031 248.641L89.7831 250.111L90.7231 253.721Z" fill="black"/>
<path opacity="0.2" d="M118.662 235.851C113.522 234.751 108.162 233.211 108.162 233.211L107.492 228.141C107.492 228.141 116.942 229.151 118.662 235.851Z" fill="black"/>
<path d="M71.6906 354C71.3771 354.011 71.0683 353.923 70.8074 353.749C70.5466 353.574 70.3469 353.323 70.2366 353.029C70.1262 352.735 70.1106 352.415 70.1921 352.112C70.2735 351.809 70.4479 351.539 70.6906 351.34C87.3806 337.64 87.0606 316.17 86.7506 295.4C86.5106 279.74 86.2906 264.94 93.6606 254.88C104.001 240.74 145.591 218.31 152.481 217.67C157.411 217.18 307.781 175.39 386.611 153.36C386.994 153.253 387.404 153.302 387.751 153.497C388.098 153.692 388.353 154.017 388.461 154.4C388.568 154.784 388.519 155.194 388.324 155.541C388.129 155.888 387.804 156.143 387.421 156.25C378.091 158.86 158.941 220.09 152.761 220.66C146.831 221.21 105.661 243.55 96.0806 256.66C89.3106 265.91 89.5206 280.22 89.7506 295.36C90.0506 315.84 90.4006 339.06 72.5906 353.67C72.3356 353.877 72.0189 353.993 71.6906 354Z" fill="#263238"/>
<path opacity="0.4" d="M387.47 156.24L366.91 162C310.36 177.78 157.91 220.2 152.81 220.67C146.88 221.22 105.71 243.56 96.1299 256.67C89.3599 265.92 89.5699 280.23 89.7999 295.37C90.0999 315.85 90.4499 339.07 72.6399 353.68C72.3597 353.912 72.0037 354.033 71.6399 354.02C71.3264 354.03 71.0175 353.942 70.7566 353.768C70.4958 353.594 70.2962 353.342 70.1858 353.049C70.0754 352.755 70.0598 352.434 70.1413 352.131C70.2228 351.828 70.3971 351.559 70.6399 351.36C87.3299 337.66 87.0099 316.19 86.6999 295.42C86.4599 279.76 86.2399 264.96 93.6099 254.9C103.95 240.76 145.54 218.33 152.43 217.69C157.07 217.23 290.29 180.25 371.71 157.53L386.56 153.38C386.943 153.272 387.353 153.322 387.7 153.517C388.047 153.712 388.302 154.037 388.41 154.42C388.517 154.803 388.468 155.213 388.273 155.56C388.078 155.907 387.753 156.162 387.37 156.27L387.47 156.24Z" fill="white"/>
<path opacity="0.2" d="M387.47 156.242L366.91 162.002C368.351 160.311 369.997 158.807 371.81 157.522L386.66 153.372C387.043 153.265 387.454 153.314 387.801 153.509C388.147 153.704 388.403 154.029 388.51 154.412C388.618 154.795 388.568 155.206 388.373 155.552C388.178 155.899 387.853 156.155 387.47 156.262V156.242Z" fill="black"/>
<path d="M81.9102 250.8L89.7701 250.11C89.7701 250.11 93.8802 247.51 94.6702 247.68C95.4602 247.85 103.29 251.68 103.29 251.68C103.29 251.68 99.7402 256.25 99.1502 257.2C98.5602 258.15 91.4902 253.67 91.4902 253.67L83.7001 254.5L81.9102 250.8Z" fill="#EBB376"/>
<path d="M71.6916 231.621C68.1216 234.171 58.8216 254.961 59.8116 258.171C60.8016 261.381 89.7416 255.051 89.7416 255.051L88.4616 249.641H72.8916L76.5916 243.801C76.5916 243.801 78.8716 241.581 77.4716 236.421C76.4616 232.701 71.6916 231.621 71.6916 231.621Z" fill="#263238"/>
<path d="M373.21 233.71L367.28 230.9C367.28 230.9 364.28 225.16 363.4 224.24C362.52 223.32 358.27 226.89 358.27 227.51C358.27 228.13 361.35 233.93 362.15 234.28C363.34 234.455 364.549 234.455 365.74 234.28L371.38 237.01L373.21 233.71Z" fill="#9F5B53"/>
<path d="M387.051 198.141L388.241 193.891C388.241 193.891 390.121 188.351 389.921 187.071C389.553 185.556 389.079 184.069 388.501 182.621C388.501 182.621 383.301 188.951 383.301 189.741C383.301 190.531 385.361 193.401 385.361 193.401L384.361 198.141H387.051Z" fill="#9F5B53"/>
<path d="M391.622 229.8C391.622 229.8 387.142 224.23 385.822 219.05C384.502 213.87 388.492 197.05 388.492 197.05L384.282 195.93C384.282 195.93 379.282 213.14 379.112 219.42C378.942 225.7 388.282 244.13 388.282 244.13L391.622 229.8Z" fill="#17A562"/>
<path opacity="0.2" d="M388.912 241.363L388.272 244.093C388.272 244.093 385.052 237.743 382.422 231.223C385.159 233.189 387.222 235.951 388.332 239.133C388.586 239.859 388.78 240.605 388.912 241.363Z" fill="black"/>
<path d="M415.34 242C415.283 243.162 415.143 244.319 414.92 245.46C414.46 247.96 413.68 250.91 412.79 254.16C412.31 255.87 411.79 257.7 411.33 259.63C409.1 268.3 407.89 271.75 406.24 282.82L374.59 275.31C376.3 265.834 378.909 256.542 382.38 247.56C383.3 245.17 384.38 242.78 385.47 240.42C387.217 236.72 389.275 233.174 391.62 229.82C391.62 229.82 396.74 234.5 412.82 237.31C414.77 237.61 415.44 239.31 415.34 242Z" fill="#17A562"/>
<path opacity="0.2" d="M411.362 238.39C411.362 239.39 415.152 244.15 414.922 245.39C414.492 245.68 413.982 246 413.402 246.39C402.692 252.62 388.642 249.46 382.402 247.53C383.322 245.14 385.402 240.75 386.482 238.39L393.992 240.06C393.992 240.06 406.272 237.26 411.362 238.39Z" fill="black"/>
<path d="M398.493 231.711C399.643 231.271 409.083 233.621 408.383 233.821C407.683 234.021 404.163 244.821 399.233 244.011C394.303 243.201 394.393 233.271 398.493 231.711Z" fill="#17A562"/>
<path d="M355.75 408.66L349.81 409.95L346.34 396.29L352.29 395L355.75 408.66Z" fill="#9F5B53"/>
<path d="M348.333 407.471H355.723C355.843 407.471 355.96 407.513 356.053 407.589C356.146 407.666 356.209 407.773 356.233 407.891L357.433 413.301C357.459 413.417 357.462 413.536 357.441 413.653C357.421 413.77 357.377 413.881 357.313 413.981C357.249 414.081 357.165 414.167 357.067 414.234C356.969 414.3 356.859 414.347 356.743 414.371H356.543C354.153 414.371 352.413 414.181 349.413 414.181C347.563 414.181 341.983 414.371 339.413 414.371C336.843 414.371 336.533 411.851 337.573 411.621C342.263 410.621 345.793 409.181 347.293 407.841C347.433 407.713 347.597 407.615 347.775 407.551C347.954 407.488 348.143 407.461 348.333 407.471Z" fill="#263238"/>
<path d="M346.322 408.542C345.909 408.572 345.496 408.463 345.152 408.232C345.04 408.14 344.954 408.021 344.901 407.886C344.848 407.751 344.832 407.605 344.852 407.462C344.848 407.377 344.868 407.293 344.911 407.22C344.953 407.147 345.016 407.089 345.092 407.052C345.772 406.702 347.732 407.912 347.952 408.052C347.978 408.064 347.998 408.085 348.011 408.11C348.023 408.135 348.027 408.164 348.022 408.192C348.019 408.221 348.006 408.248 347.987 408.269C347.967 408.291 347.941 408.306 347.912 408.312C347.393 408.447 346.859 408.525 346.322 408.542ZM345.412 407.282C345.354 407.262 345.291 407.262 345.232 407.282C345.232 407.282 345.142 407.332 345.132 407.452C345.122 407.546 345.135 407.642 345.169 407.731C345.204 407.82 345.26 407.899 345.332 407.962C346.012 408.272 346.785 408.312 347.492 408.072C346.857 407.676 346.15 407.408 345.412 407.282Z" fill="#17A562"/>
<path d="M347.872 408.32H347.802C347.182 407.98 345.962 406.64 346.082 406C346.105 405.892 346.165 405.796 346.25 405.727C346.336 405.657 346.442 405.62 346.552 405.62C346.662 405.605 346.773 405.615 346.878 405.648C346.984 405.68 347.081 405.736 347.162 405.81C347.862 406.38 348.012 408.13 348.022 408.21C348.024 408.236 348.018 408.262 348.006 408.285C347.994 408.308 347.975 408.327 347.952 408.34C347.939 408.344 347.924 408.344 347.91 408.341C347.896 408.337 347.883 408.33 347.872 408.32ZM346.652 405.85H346.582C346.392 405.85 346.382 405.96 346.372 406C346.292 406.4 347.072 407.41 347.692 407.88C347.658 407.198 347.418 406.542 347.002 406C346.957 405.952 346.903 405.914 346.843 405.889C346.783 405.863 346.718 405.85 346.652 405.85Z" fill="#17A562"/>
<path d="M406.501 283.65C406.501 283.65 401.371 308.11 389.371 314.65C387.994 315.425 386.485 315.937 384.921 316.16C384.921 316.16 372.751 321.16 362.231 325.89C355.831 328.78 350.041 331.6 347.971 333.18C342.491 337.35 355.911 402.45 355.911 402.45L346.791 402.55C346.791 402.55 327.601 344.91 330.791 329.78C333.981 314.65 368.421 291.49 368.421 291.49L373.721 276.91L406.501 283.65Z" fill="#263238"/>
<path opacity="0.2" d="M389.37 314.683C387.993 315.457 386.484 315.969 384.92 316.193C384.92 316.193 372.75 321.193 362.23 325.923C369 313.473 381.07 305.383 381.07 305.383L389.37 314.683Z" fill="black"/>
<path d="M432.211 408.66L426.271 409.95L422.801 396.29L428.751 395L432.211 408.66Z" fill="#9F5B53"/>
<path d="M424.79 407.471H432.18C432.3 407.471 432.417 407.513 432.51 407.589C432.603 407.666 432.666 407.773 432.69 407.891L433.89 413.301C433.916 413.417 433.919 413.536 433.898 413.653C433.878 413.77 433.834 413.881 433.77 413.981C433.706 414.081 433.622 414.167 433.524 414.234C433.426 414.3 433.316 414.347 433.2 414.371H433C430.61 414.371 428.87 414.181 425.87 414.181C424.02 414.181 418.44 414.371 415.87 414.371C413.3 414.371 412.99 411.851 414.03 411.621C418.72 410.621 422.25 409.181 423.75 407.841C423.89 407.713 424.054 407.615 424.232 407.551C424.411 407.488 424.6 407.461 424.79 407.471Z" fill="#263238"/>
<path d="M422.783 408.542C422.37 408.572 421.957 408.463 421.613 408.232C421.501 408.14 421.415 408.021 421.362 407.886C421.309 407.751 421.293 407.605 421.313 407.462C421.309 407.377 421.329 407.293 421.371 407.22C421.414 407.147 421.477 407.089 421.553 407.052C422.233 406.702 424.193 407.912 424.413 408.052C424.439 408.064 424.459 408.085 424.472 408.11C424.484 408.135 424.488 408.164 424.483 408.192C424.48 408.221 424.467 408.248 424.447 408.269C424.428 408.291 424.402 408.306 424.373 408.312C423.854 408.447 423.32 408.525 422.783 408.542ZM421.873 407.282C421.815 407.262 421.752 407.262 421.693 407.282C421.693 407.282 421.603 407.332 421.593 407.452C421.583 407.546 421.596 407.642 421.63 407.731C421.665 407.82 421.721 407.899 421.793 407.962C422.473 408.272 423.246 408.312 423.953 408.072C423.318 407.676 422.611 407.408 421.873 407.282Z" fill="#17A562"/>
<path d="M424.329 408.32H424.259C423.639 407.98 422.419 406.64 422.539 406C422.562 405.892 422.622 405.796 422.707 405.727C422.793 405.657 422.899 405.62 423.009 405.62C423.119 405.605 423.23 405.615 423.335 405.648C423.441 405.68 423.538 405.736 423.619 405.81C424.319 406.38 424.469 408.13 424.479 408.21C424.481 408.236 424.475 408.262 424.463 408.285C424.451 408.308 424.432 408.327 424.409 408.34C424.396 408.344 424.381 408.344 424.367 408.341C424.353 408.337 424.34 408.33 424.329 408.32ZM423.109 405.85H422.999C422.809 405.85 422.799 405.96 422.789 406C422.709 406.4 423.489 407.41 424.109 407.88C424.071 407.188 423.819 406.524 423.389 405.98C423.313 405.907 423.215 405.861 423.109 405.85Z" fill="#17A562"/>
<path d="M408.55 236.891C407.06 237.891 400.19 237.511 400.19 237.511L397 241.001L396.69 235.231C396.69 235.231 394.54 234.341 395.13 233.721C395.878 233.777 396.629 233.683 397.34 233.444C398.051 233.205 398.707 232.827 399.27 232.331C400.66 230.971 400.93 228.781 400.91 226.611C400.91 226.611 400.91 226.551 400.91 226.531L406.78 223.531L410.84 221.441C408.93 225.561 406.2 233.291 408.55 236.891Z" fill="#9F5B53"/>
<path opacity="0.2" d="M408.72 224.902C406.78 229.812 401.72 232.002 399.23 232.322C400.62 230.962 400.89 228.772 400.87 226.602C400.875 226.572 400.875 226.542 400.87 226.512L406.74 223.512C406.75 224.312 409 224.152 408.72 224.902Z" fill="black"/>
<path d="M412.452 224.699C412.452 224.699 416.262 226.699 417.532 224.309C418.802 221.919 416.992 221.779 418.862 220.919C420.732 220.059 423.392 219.459 422.782 217.649C422.172 215.839 420.282 215.649 422.382 213.649C424.482 211.649 424.942 208.829 421.802 208.279C418.662 207.729 419.862 205.279 419.702 204.279C419.542 203.279 417.782 202.579 415.872 202.979C413.962 203.379 413.162 200.549 411.982 199.669C410.802 198.789 409.172 199.869 408.742 201.059C408.312 202.249 407.182 200.669 405.502 200.469C403.822 200.269 404.212 202.039 403.692 203.689C403.172 205.339 402.142 204.269 400.942 205.629C399.742 206.989 399.632 216.269 412.452 224.699Z" fill="#263238"/>
<path d="M414.11 219.001C411.24 223.501 409.61 226.471 406.39 227.931C405.956 228.131 405.508 228.298 405.05 228.431C398.79 230.271 393.63 224.241 395.28 218.271C395.593 217.193 395.995 216.143 396.48 215.131C398.72 210.441 403.03 205.641 408.18 206.271C409.255 206.394 410.296 206.728 411.242 207.253C412.188 207.779 413.021 208.486 413.694 209.334C414.366 210.182 414.865 211.154 415.161 212.195C415.457 213.236 415.545 214.326 415.42 215.401C415.268 216.686 414.82 217.919 414.11 219.001Z" fill="#9F5B53"/>
<path d="M405.302 216.001C405.092 216.451 404.642 216.651 404.362 216.501C404.082 216.351 404.052 215.861 404.282 215.441C404.512 215.021 404.952 214.791 405.222 214.941C405.492 215.091 405.542 215.591 405.302 216.001Z" fill="#263238"/>
<path d="M400.45 213.331C400.388 213.519 400.255 213.675 400.079 213.767C399.904 213.858 399.699 213.878 399.51 213.821C399.24 213.661 399.2 213.191 399.44 212.761C399.68 212.331 400.1 212.111 400.38 212.271C400.66 212.431 400.68 212.921 400.45 213.331Z" fill="#263238"/>
<path d="M401.883 214.402C400.64 215.424 399.264 216.272 397.793 216.922C397.969 217.297 398.225 217.628 398.543 217.892C398.861 218.157 399.233 218.348 399.633 218.452L401.883 214.402Z" fill="#892B29"/>
<path d="M408.201 214.88C408.149 214.888 408.096 214.882 408.047 214.863C407.997 214.844 407.954 214.812 407.921 214.77C407.719 214.471 407.448 214.225 407.132 214.051C406.815 213.877 406.462 213.781 406.101 213.77C406.06 213.778 406.016 213.777 405.975 213.766C405.934 213.755 405.895 213.736 405.863 213.709C405.83 213.681 405.803 213.647 405.785 213.609C405.767 213.57 405.758 213.528 405.758 213.485C405.758 213.443 405.767 213.401 405.785 213.362C405.803 213.323 405.83 213.289 405.863 213.262C405.895 213.235 405.934 213.215 405.975 213.205C406.016 213.194 406.06 213.192 406.101 213.2C406.557 213.203 407.005 213.317 407.408 213.531C407.81 213.745 408.154 214.054 408.411 214.43C408.435 214.46 408.453 214.493 408.463 214.53C408.473 214.566 408.476 214.604 408.471 214.641C408.467 214.678 408.455 214.714 408.436 214.747C408.417 214.779 408.392 214.808 408.361 214.83C408.313 214.86 408.258 214.877 408.201 214.88Z" fill="#263238"/>
<path d="M400.802 221.13C401.473 221.348 402.187 221.401 402.884 221.285C403.58 221.168 404.238 220.885 404.802 220.46C404.827 220.431 404.841 220.393 404.841 220.355C404.841 220.316 404.827 220.279 404.802 220.25C404.773 220.222 404.736 220.207 404.697 220.207C404.657 220.207 404.62 220.222 404.592 220.25C404.058 220.634 403.442 220.888 402.792 220.992C402.143 221.096 401.479 221.047 400.852 220.85C400.834 220.842 400.815 220.838 400.796 220.839C400.776 220.839 400.757 220.844 400.74 220.852C400.723 220.861 400.708 220.873 400.696 220.888C400.684 220.904 400.676 220.921 400.672 220.94C400.664 220.957 400.66 220.977 400.66 220.996C400.661 221.015 400.665 221.034 400.674 221.051C400.682 221.068 400.695 221.084 400.71 221.095C400.725 221.107 400.743 221.116 400.762 221.12L400.802 221.13Z" fill="#263238"/>
<path d="M400 209.183C399.984 209.127 399.984 209.068 400 209.013C400.032 208.945 400.09 208.892 400.161 208.866C400.232 208.839 400.311 208.842 400.38 208.873C400.799 209.061 401.168 209.347 401.453 209.707C401.739 210.068 401.933 210.491 402.02 210.943C402.028 211.018 402.007 211.094 401.96 211.154C401.913 211.214 401.845 211.253 401.77 211.263C401.694 211.271 401.619 211.25 401.559 211.203C401.499 211.156 401.46 211.088 401.45 211.013C401.371 210.66 401.211 210.33 400.981 210.051C400.752 209.771 400.46 209.549 400.13 209.403C400.094 209.377 400.064 209.344 400.042 209.306C400.019 209.269 400.005 209.226 400 209.183Z" fill="#263238"/>
<path d="M404.121 206.691C405.581 206.871 406.301 208.691 406.301 208.691C408.066 209.336 409.773 210.132 411.401 211.071C411.898 211.476 412.271 212.012 412.48 212.618C412.688 213.224 412.723 213.876 412.581 214.501C412.531 214.981 411.351 215.421 411.351 215.421C411.351 215.421 409.191 220.521 408.601 221.931L408.901 226.641C412.87 224.131 416.049 220.55 418.071 216.311C421.481 209.211 407.251 202.961 407.251 202.961L404.121 206.691Z" fill="#263238"/>
<path d="M413.253 226.119C411.923 226.848 410.359 227.02 408.902 226.599C406.972 226.019 407.083 224.039 408.513 222.769C409.793 221.669 412.363 220.579 413.853 221.859C414.179 222.138 414.429 222.494 414.581 222.895C414.733 223.296 414.781 223.729 414.721 224.154C414.662 224.579 414.496 224.981 414.239 225.325C413.982 225.668 413.643 225.942 413.253 226.119Z" fill="#9F5B53"/>
<path d="M408.38 233.821L400.43 236.111L397 240.761L397.93 235.071C397.93 235.071 397.08 233.761 398.49 231.711L393.65 232.711L390.73 237.591L396.41 236.261L396.8 241.931L400.11 238.031L402.82 242.311L410.88 237.201L408.38 233.821Z" fill="#17A562"/>
<path opacity="0.2" d="M408.38 233.821L400.43 236.111L397 240.761L397.93 235.071C397.93 235.071 397.08 233.761 398.49 231.711L393.65 232.711L390.73 237.591L396.41 236.261L396.8 241.931L400.11 238.031L402.82 242.311L410.88 237.201L408.38 233.821Z" fill="black"/>
<path d="M375.01 272L373.77 276.94L406.49 283.65L406.98 278.16L375.01 272Z" fill="black"/>
<path d="M389.623 274.591C389.363 274.221 382.083 272.651 381.393 273.171C381.393 273.171 379.983 278.041 380.223 278.551C380.463 279.061 387.543 280.051 388.223 280.191C388.903 280.331 389.883 275.001 389.623 274.591ZM387.623 279.591C387.083 279.481 381.263 278.671 381.063 278.251C380.863 277.831 382.063 273.831 382.063 273.831C382.633 273.401 388.613 274.691 388.823 274.991C389.033 275.291 388.163 279.651 387.623 279.541V279.591Z" fill="white"/>
<path d="M387.9 276.251L386.45 275.951C386.318 275.926 386.181 275.951 386.066 276.021C385.951 276.091 385.867 276.202 385.83 276.331C385.809 276.403 385.803 276.479 385.814 276.554C385.824 276.628 385.85 276.7 385.889 276.764C385.929 276.828 385.981 276.883 386.043 276.926C386.105 276.968 386.176 276.997 386.25 277.011L387.7 277.291C387.84 277.319 387.986 277.29 388.105 277.21C388.224 277.13 388.307 277.007 388.335 276.866C388.362 276.725 388.333 276.58 388.254 276.46C388.174 276.341 388.05 276.259 387.91 276.231L387.9 276.251Z" fill="white"/>
<path d="M406.493 283.652C406.493 283.652 407.123 320.652 406.083 331.452C405.043 342.252 432.003 401.362 432.003 401.362H423.273C423.273 401.362 396.823 358.082 390.763 344.762C384.703 331.442 380.223 299.662 380.223 299.662L406.493 283.652Z" fill="#263238"/>
<path d="M415.45 239.4C414.1 236.34 393.37 240.87 391.5 240.34C389.63 239.81 370.17 231.66 370.17 231.66L368.48 236C368.48 236 385.93 246 389.75 247.58C393.57 249.16 408.84 248.4 412.75 246.71C413.42 246.422 414.023 246 414.525 245.471C415.026 244.943 415.415 244.317 415.667 243.634C415.92 242.95 416.031 242.223 415.993 241.495C415.956 240.767 415.771 240.054 415.45 239.4Z" fill="#17A562"/>
<path d="M411.779 159.93L405.499 119.93L372.419 143.32L383.419 147.98C372.799 172.32 338.349 243.63 279.069 296.21C203.379 363.36 97.4389 396.4 96.3789 396.72L102.239 415.85C106.739 414.47 213.319 381.27 292.379 311.14C355.379 255.26 390.799 181.56 401.919 155.76L411.779 159.93Z" fill="#17A562"/>
<path opacity="0.4" d="M405.779 152.93L405.499 119.93L372.419 143.32L383.419 147.98C372.799 172.32 338.349 243.63 279.069 296.21C203.379 363.36 97.4389 396.4 96.3789 396.72L98.2389 408.85C102.739 407.47 209.319 377.27 288.379 307.14C351.379 251.26 384.799 176.56 395.919 150.76L405.779 152.93Z" fill="white"/>
<path d="M399.997 161.619C399.841 161.62 399.686 161.596 399.537 161.549L380.327 155.339C380.129 155.288 379.944 155.196 379.782 155.071C379.621 154.945 379.487 154.788 379.389 154.609C379.29 154.43 379.229 154.233 379.21 154.029C379.19 153.826 379.213 153.62 379.276 153.426C379.338 153.231 379.44 153.052 379.575 152.898C379.71 152.744 379.875 152.62 380.059 152.532C380.244 152.444 380.444 152.395 380.649 152.388C380.853 152.38 381.057 152.415 381.247 152.489L400.457 158.689C400.799 158.797 401.091 159.024 401.28 159.329C401.468 159.634 401.542 159.997 401.486 160.351C401.43 160.706 401.25 161.029 400.976 161.261C400.703 161.494 400.356 161.621 399.997 161.619Z" fill="#263238"/>
<path opacity="0.4" d="M399.997 161.619C399.841 161.62 399.686 161.596 399.537 161.549L380.327 155.339C380.129 155.288 379.944 155.196 379.782 155.071C379.621 154.945 379.487 154.788 379.389 154.609C379.29 154.43 379.229 154.233 379.21 154.029C379.19 153.826 379.213 153.62 379.276 153.426C379.338 153.231 379.44 153.052 379.575 152.898C379.71 152.744 379.875 152.62 380.059 152.532C380.244 152.444 380.444 152.395 380.649 152.388C380.853 152.38 381.057 152.415 381.247 152.489L400.457 158.689C400.799 158.797 401.091 159.024 401.28 159.329C401.468 159.634 401.542 159.997 401.486 160.351C401.43 160.706 401.25 161.029 400.976 161.261C400.703 161.494 400.356 161.621 399.997 161.619Z" fill="white"/>
<path d="M169.93 348.821C169.532 348.821 169.15 348.663 168.869 348.382C168.588 348.1 168.43 347.719 168.43 347.321C168.43 299.581 182.3 293.321 184.9 292.551L229 261.701L229.1 261.641L398.52 161.181C398.861 160.986 399.266 160.934 399.646 161.034C400.026 161.135 400.352 161.381 400.553 161.719C400.753 162.058 400.813 162.461 400.719 162.843C400.625 163.225 400.384 163.555 400.05 163.761L230.71 264.191L186.4 295.191C186.211 295.322 185.996 295.411 185.77 295.451C185.66 295.451 171.43 298.951 171.43 347.351C171.422 347.744 171.26 348.118 170.98 348.392C170.699 348.667 170.322 348.821 169.93 348.821Z" fill="#263238"/>
<path opacity="0.4" d="M169.93 348.821C169.532 348.821 169.15 348.663 168.869 348.382C168.588 348.1 168.43 347.719 168.43 347.321C168.43 299.581 182.3 293.321 184.9 292.551L229 261.701L229.1 261.641L398.52 161.181C398.861 160.986 399.266 160.934 399.646 161.034C400.026 161.135 400.352 161.381 400.553 161.719C400.753 162.058 400.813 162.461 400.719 162.843C400.625 163.225 400.384 163.555 400.05 163.761L230.71 264.191L186.4 295.191C186.211 295.322 185.996 295.411 185.77 295.451C185.66 295.451 171.43 298.951 171.43 347.351C171.422 347.744 171.26 348.118 170.98 348.392C170.699 348.667 170.322 348.821 169.93 348.821Z" fill="white"/>
<path d="M181.448 299.282C181.448 299.282 173.738 304.282 167.878 305.792C166.432 306.281 164.88 306.367 163.388 306.042C159.028 304.662 161.618 296.222 164.218 290.892C164.638 290.022 165.058 289.242 165.448 288.582L173.068 293.292C173.068 293.292 168.448 299.882 168.978 300.292C169.508 300.702 176.628 296.732 176.978 296.602C177.328 296.472 181.448 299.282 181.448 299.282Z" fill="#17A562"/>
<path opacity="0.2" d="M181.449 299.282C181.449 299.282 173.739 304.282 167.879 305.792C166.252 300.934 165.028 295.951 164.219 290.892C164.639 290.022 165.059 289.242 165.449 288.582L173.069 293.292C173.069 293.292 168.449 299.882 168.979 300.292C169.509 300.702 176.629 296.732 176.979 296.602C177.329 296.472 181.449 299.282 181.449 299.282Z" fill="black"/>
<path d="M219 270.259L223.52 266.259C223.881 265.117 224.378 264.023 225 262.999C225.49 262.589 233.72 261.949 233.72 261.949C233.72 261.949 233.88 266.299 233.23 267.429C232.58 268.559 225.86 269.049 225.86 269.049L222.26 272.519L219 270.259Z" fill="#EEC1BB"/>
<path d="M243.078 365.05C241.788 383.61 238.338 409.95 238.338 409.95L233.898 410.95C233.898 410.95 229.798 388.9 230.448 368.44C230.565 363.98 230.986 359.533 231.708 355.13C231.708 355.13 216.328 349.22 205.648 343.93C200.548 341.41 196.518 339.02 195.748 337.48C193.368 332.73 204.188 321.57 204.188 321.57C204.528 321.84 211.058 326 218.658 330.93C228.748 337.47 240.718 345.37 242.658 347.34C243.818 348.47 243.718 355.79 243.078 365.05Z" fill="#EEC1BB"/>
<path opacity="0.2" d="M243.078 365.05C238.974 366.538 234.748 367.666 230.448 368.42C230.565 363.96 230.986 359.513 231.708 355.11C231.708 355.11 216.328 349.2 205.648 343.91L218.648 330.91C228.738 337.45 240.708 345.35 242.648 347.32C243.818 348.47 243.718 355.79 243.078 365.05Z" fill="black"/>
<path d="M208.461 318.473C208.461 318.473 251.131 343.003 256.931 348.543C262.731 354.083 296.211 405.853 296.211 405.853L293.391 408.543C293.391 408.543 265.591 384.683 254.501 362.003L208.501 339.773L208.461 318.473Z" fill="#EEC1BB"/>
<path d="M175.998 273.182C176.067 273.23 176.141 273.27 176.218 273.302C177.266 273.896 178.422 274.273 179.618 274.412C183.098 274.722 185.338 273.942 186.618 272.202C188.398 269.622 188.358 265.502 187.378 260.652C187.054 258.711 186.423 256.835 185.508 255.092C185.508 255.092 185.508 255.022 185.508 255.012L185.388 254.812C184.832 253.837 184.039 253.016 183.084 252.426C182.128 251.835 181.04 251.494 179.918 251.432C178.942 251.351 177.959 251.378 176.988 251.512C167.488 252.742 167.998 268.762 175.998 273.182Z" fill="#EEC1BB"/>
<path opacity="0.2" d="M176.262 273.301C177.312 273.862 178.465 274.202 179.652 274.301C183.122 274.611 185.352 273.711 186.652 271.961C184.707 272.736 182.563 272.859 180.542 272.311C179.8 272.139 179.029 272.139 178.287 272.311C177.545 272.482 176.853 272.821 176.262 273.301Z" fill="black"/>
<path d="M175.618 281.122C174.788 283.802 178.218 285.222 178.218 285.222C184.218 283.222 185.568 280.292 185.568 280.292C180.968 277.292 182.988 270.352 182.988 270.352L181.988 270.752L174.988 271.492C174.988 271.492 176.578 275.322 176.758 276.182C177.638 280.692 175.618 281.122 175.618 281.122Z" fill="#EBB376"/>
<path d="M185.568 255C185.568 255 187.028 261.61 181.098 265.36C181.098 265.36 179.348 272.69 175.358 273.36C169.918 274.26 164.028 267.17 164.808 258.99C165.828 248.41 181.248 245.4 185.568 255Z" fill="#263238"/>
<path d="M183.999 263.002C183.849 262.002 182.769 260.322 181.179 260.792C179.589 261.262 179.179 265.532 183.439 265.882C184.089 266.002 184.349 265.202 183.999 263.002Z" fill="#EBB376"/>
<path d="M294.352 402.673L289.752 406.213C289.658 406.288 289.592 406.394 289.565 406.512C289.537 406.629 289.551 406.753 289.602 406.863L291.942 411.863C291.992 411.968 292.063 412.063 292.15 412.142C292.237 412.22 292.339 412.281 292.45 412.32C292.56 412.359 292.677 412.376 292.795 412.369C292.912 412.363 293.026 412.333 293.132 412.283C293.192 412.255 293.249 412.221 293.302 412.183C295.162 410.693 295.222 410.463 297.592 408.643C299.042 407.523 303.592 404.283 305.592 402.733C307.592 401.183 306.332 398.993 305.372 399.443C301.052 401.443 297.372 402.513 295.372 402.363C295.005 402.335 294.641 402.445 294.352 402.673Z" fill="#263238"/>
<path d="M295.349 402.581C295.324 402.593 295.295 402.597 295.267 402.593C295.239 402.589 295.213 402.576 295.192 402.556C295.172 402.537 295.157 402.511 295.151 402.484C295.146 402.456 295.148 402.427 295.159 402.401C295.249 402.161 296.069 400.011 296.809 399.881C296.891 399.863 296.976 399.87 297.055 399.9C297.133 399.93 297.2 399.983 297.249 400.051C297.351 400.152 297.426 400.278 297.466 400.416C297.506 400.554 297.511 400.7 297.479 400.841C297.36 401.249 297.102 401.603 296.749 401.841C296.312 402.14 295.843 402.389 295.349 402.581ZM295.559 402.171C296.265 401.931 296.852 401.43 297.199 400.771C297.219 400.676 297.214 400.578 297.187 400.485C297.159 400.393 297.108 400.309 297.039 400.241C296.959 400.161 296.889 400.141 296.859 400.171C296.797 400.183 296.738 400.21 296.689 400.251C296.194 400.813 295.811 401.465 295.559 402.171Z" fill="#17A562"/>
<path d="M295.34 402.633C295.315 402.633 295.29 402.628 295.268 402.618C295.245 402.608 295.225 402.592 295.21 402.573C295.21 402.503 294.21 401.033 294.42 400.153C294.443 400.046 294.488 399.945 294.552 399.855C294.615 399.766 294.696 399.69 294.79 399.633C294.875 399.564 294.981 399.527 295.09 399.527C295.199 399.527 295.304 399.564 295.39 399.633C295.88 400.063 295.73 401.853 295.44 402.503L295.39 402.553L295.34 402.633ZM294.67 400.173C294.667 400.864 294.872 401.54 295.26 402.113C295.498 401.365 295.463 400.557 295.16 399.833C295.16 399.833 295.05 399.723 294.91 399.833H294.85C294.751 399.921 294.687 400.041 294.67 400.173Z" fill="#17A562"/>
<path d="M239.12 407.003L233.31 407.113C233.191 407.119 233.077 407.165 232.987 407.243C232.896 407.32 232.834 407.426 232.81 407.543L231.72 412.953C231.688 413.179 231.743 413.408 231.875 413.595C232.007 413.781 232.206 413.909 232.43 413.953C232.496 413.963 232.564 413.963 232.63 413.953C235 413.863 235.19 413.713 238.18 413.653C240.02 413.653 245.57 413.703 248.11 413.653C250.65 413.603 250.93 411.083 249.89 410.873C245.2 409.953 241.67 408.613 240.15 407.303C239.858 407.075 239.489 406.967 239.12 407.003Z" fill="#263238"/>
<path d="M239.638 407.643C239.609 407.639 239.582 407.624 239.562 407.602C239.542 407.581 239.53 407.553 239.528 407.523C239.52 407.496 239.522 407.468 239.533 407.442C239.544 407.417 239.564 407.396 239.588 407.383C239.798 407.243 241.728 406.003 242.408 406.333C242.485 406.368 242.551 406.424 242.597 406.495C242.643 406.566 242.668 406.648 242.668 406.733C242.688 406.875 242.672 407.02 242.621 407.155C242.571 407.289 242.487 407.409 242.378 407.503C242.042 407.745 241.632 407.862 241.218 407.833C240.686 407.83 240.156 407.766 239.638 407.643ZM240.048 407.433C240.758 407.66 241.527 407.606 242.198 407.283C242.269 407.218 242.322 407.136 242.354 407.046C242.385 406.955 242.394 406.858 242.378 406.763C242.378 406.653 242.318 406.603 242.288 406.603C242.226 406.589 242.161 406.589 242.098 406.603C241.369 406.748 240.673 407.03 240.048 407.433Z" fill="#17A562"/>
<path d="M239.602 407.67C239.579 407.658 239.559 407.639 239.547 407.616C239.534 407.593 239.529 407.566 239.532 407.54C239.532 407.46 239.642 405.72 240.332 405.13C240.414 405.056 240.511 405.001 240.616 404.968C240.721 404.935 240.833 404.926 240.942 404.94C241.051 404.938 241.158 404.973 241.243 405.041C241.329 405.108 241.389 405.204 241.412 405.31C241.542 405.94 240.412 407.31 239.742 407.65H239.672C239.652 407.665 239.627 407.673 239.602 407.67ZM240.522 405.3C240.11 405.855 239.873 406.52 239.842 407.21C240.462 406.73 241.212 405.7 241.122 405.31C241.122 405.31 241.122 405.17 240.912 405.17H240.842C240.723 405.172 240.609 405.219 240.522 405.3Z" fill="#17A562"/>
<path d="M207.269 311.9L186.099 320.79C177.349 299.04 165.449 288.58 165.449 288.58C173.929 278.41 189.589 273.73 189.589 273.73C191.902 275.613 193.898 277.855 195.499 280.37C197.265 283.103 198.803 285.976 200.099 288.96C203.245 296.35 205.646 304.035 207.269 311.9Z" fill="#17A562"/>
<path d="M185.37 259.422C185.37 259.422 192.02 252.642 185.65 248.172C179.28 243.702 172.96 249.672 172.96 249.672C172.96 249.672 157.83 253.482 161.15 263.532C164.47 273.582 166.59 274.412 161.84 279.632C157.09 284.852 152.25 292.552 157.21 297.402C162.17 302.252 179.27 297.052 184.4 289.612C189.53 282.172 180.19 266.402 185.37 259.422Z" fill="#263238"/>
<path d="M205.73 305.383L182.73 313.273C182.73 313.273 187.82 338.323 191.51 342.513C195.2 346.703 219.87 366.103 223.36 364.573C226.85 363.043 250 342.513 250 342.513L210.83 315.653L205.73 305.383Z" fill="#263238"/>
<path d="M202.38 310.091L207.27 308.471L206.06 306.051L201.43 307.681L202.38 310.091Z" fill="black"/>
<path d="M187.76 312.492L182.75 314.252L183.42 316.392L188.32 314.762L187.76 312.492Z" fill="black"/>
<path d="M189.371 314.41L201.401 310.42L200.501 308L188.711 312.15L189.371 314.41Z" fill="black"/>
<path opacity="0.2" d="M200.101 289C195.041 288.41 192.191 280.8 192.191 280.8C193.286 280.604 194.391 280.474 195.501 280.41C197.267 283.143 198.805 286.016 200.101 289Z" fill="black"/>
<path d="M189.592 273.731C195.092 272.911 207.392 277.371 208.462 277.321C209.532 277.271 221.462 267.891 221.462 267.891L224.562 270.621C224.562 270.621 212.062 283.511 209.492 283.621C206.922 283.731 193.492 282.761 193.492 282.761C193.492 282.761 190.202 281.591 189.572 278.621C189.188 277.012 189.195 275.336 189.592 273.731Z" fill="#17A562"/>
</svg>
