<svg width="301" height="301" viewBox="0 0 301 301" fill="none" xmlns="http://www.w3.org/2000/svg">
<path d="M301 230.205H0V230.355H301V230.205Z" fill="#EBEBEB"/>
<path d="M270.841 239.891H250.902V240.042H270.841V239.891Z" fill="#EBEBEB"/>
<path d="M199.393 241.529H194.162V241.679H199.393V241.529Z" fill="#EBEBEB"/>
<path d="M250.3 234.304H238.748V234.455H250.3V234.304Z" fill="#EBEBEB"/>
<path d="M57.5805 235.316H31.5801V235.466H57.5805V235.316Z" fill="#EBEBEB"/>
<path d="M66.756 235.316H62.9453V235.466H66.756V235.316Z" fill="#EBEBEB"/>
<path d="M135.54 237.856H79.1445V238.007H135.54V237.856Z" fill="#EBEBEB"/>
<path d="M142.674 203.356H26.4334C25.5227 203.354 24.65 202.991 24.0066 202.347C23.3633 201.702 23.002 200.829 23.002 199.918V36.5174C23.0099 35.612 23.3747 34.7463 24.0172 34.1084C24.6597 33.4704 25.5279 33.1117 26.4334 33.1101H142.674C143.585 33.1101 144.46 33.4723 145.104 34.1169C145.749 34.7615 146.111 35.6359 146.111 36.5475V199.918C146.111 200.83 145.749 201.704 145.104 202.349C144.46 202.994 143.585 203.356 142.674 203.356ZM26.4334 33.2305C25.5627 33.2321 24.7282 33.5791 24.113 34.1953C23.4979 34.8116 23.1525 35.6467 23.1525 36.5174V199.918C23.1525 200.789 23.4979 201.624 24.113 202.24C24.7282 202.857 25.5627 203.204 26.4334 203.205H142.674C143.545 203.204 144.38 202.857 144.996 202.241C145.612 201.625 145.959 200.79 145.96 199.918V36.5174C145.959 35.6462 145.612 34.8111 144.996 34.195C144.38 33.5789 143.545 33.2321 142.674 33.2305H26.4334Z" fill="#EBEBEB"/>
<path d="M272.893 203.356H156.646C155.735 203.354 154.862 202.991 154.218 202.347C153.573 201.703 153.211 200.829 153.209 199.918V36.5174C153.218 35.6115 153.585 34.7458 154.228 34.108C154.872 33.4702 155.74 33.1116 156.646 33.1101H272.893C273.797 33.1132 274.664 33.4727 275.305 34.1105C275.946 34.7483 276.31 35.6131 276.318 36.5174V199.918C276.318 200.828 275.957 201.7 275.315 202.345C274.673 202.989 273.802 203.353 272.893 203.356ZM156.646 33.2305C155.775 33.2321 154.94 33.5789 154.324 34.195C153.708 34.8111 153.361 35.6462 153.359 36.5174V199.918C153.361 200.79 153.708 201.625 154.324 202.241C154.94 202.857 155.775 203.204 156.646 203.205H272.893C273.764 203.204 274.599 202.857 275.215 202.241C275.831 201.625 276.178 200.79 276.18 199.918V36.5174C276.178 35.6462 275.831 34.8111 275.215 34.195C274.599 33.5789 273.764 33.2321 272.893 33.2305H156.646Z" fill="#EBEBEB"/>
<path d="M89.9577 119.491H85.9062V230.356H89.9577V119.491Z" fill="#F5F5F5"/>
<path d="M105.975 133.566H101.924V230.355H105.975V133.566Z" fill="#F5F5F5"/>
<path d="M121.844 147.641H117.793V230.355H121.844V147.641Z" fill="#F5F5F5"/>
<path d="M137.719 138.255H133.668V230.355H137.719V138.255Z" fill="#F5F5F5"/>
<path d="M153.594 133.566H149.543V230.355H153.594V133.566Z" fill="#F5F5F5"/>
<path d="M169.464 124.181H165.412V230.355H169.464V124.181Z" fill="#F5F5F5"/>
<path d="M185.339 128.876H181.287V230.355H185.339V128.876Z" fill="#F5F5F5"/>
<path d="M201.212 124.181H197.16V230.355H201.212V124.181Z" fill="#F5F5F5"/>
<path d="M217.081 114.795H213.029V230.349H217.081V114.795Z" fill="#F5F5F5"/>
<path d="M232.956 105.416H228.904V230.355H232.956V105.416Z" fill="#F5F5F5"/>
<path d="M248.825 96.0312H244.773V230.355H248.825V96.0312Z" fill="#F5F5F5"/>
<path d="M119.797 141.049C119.571 141.04 119.357 140.947 119.195 140.79L85.2784 107.722C85.1068 107.554 85.0087 107.325 85.0059 107.085C85.0031 106.845 85.0957 106.614 85.2633 106.443C85.431 106.271 85.6599 106.173 85.8998 106.17C86.1398 106.167 86.371 106.26 86.5426 106.428L119.911 138.966L166.91 104.652C167.091 104.522 167.315 104.464 167.537 104.488C167.759 104.513 167.964 104.618 168.114 104.784L183.501 122.206L247.192 85.7128C247.295 85.6539 247.409 85.6159 247.527 85.6009C247.645 85.586 247.765 85.5944 247.879 85.6257C247.994 85.657 248.101 85.7106 248.195 85.7834C248.289 85.8562 248.367 85.9467 248.426 86.0499C248.485 86.153 248.523 86.2668 248.538 86.3846C248.553 86.5025 248.545 86.6221 248.513 86.7367C248.482 86.8513 248.429 86.9586 248.356 87.0525C248.283 87.1464 248.192 87.2251 248.089 87.284L183.76 124.15C183.579 124.253 183.369 124.29 183.164 124.256C182.959 124.222 182.772 124.119 182.634 123.964L167.307 106.626L120.351 140.874C120.191 140.992 119.996 141.053 119.797 141.049Z" fill="#F0F0F0"/>
<path d="M115.976 229.663L86.3757 112.929L87.8567 107.096H86.3155V73.7571H82.3423V107.096H80.8012L82.2821 112.929L52.6758 229.663H56.7754L82.3423 128.84V230.277H86.3155V128.84L111.882 229.663H115.976Z" fill="#E0E0E0"/>
<path d="M106.631 111.77C109.538 99.4508 101.909 87.1074 89.5902 84.1999C77.2713 81.2923 64.9279 88.9217 62.0204 101.241C59.1129 113.559 66.7423 125.903 79.0611 128.81C91.38 131.718 103.723 124.089 106.631 111.77Z" fill="#E6E6E6"/>
<path d="M84.3287 126.077C95.1341 126.077 103.894 117.317 103.894 106.512C103.894 95.7066 95.1341 86.947 84.3287 86.947C73.5232 86.947 64.7637 95.7066 64.7637 106.512C64.7637 117.317 73.5232 126.077 84.3287 126.077Z" fill="#F5F5F5"/>
<path d="M84.3286 121.827C92.7867 121.827 99.6434 114.97 99.6434 106.512C99.6434 98.0537 92.7867 91.197 84.3286 91.197C75.8704 91.197 69.0137 98.0537 69.0137 106.512C69.0137 114.97 75.8704 121.827 84.3286 121.827Z" fill="#E6E6E6"/>
<path d="M89.1346 118.106C95.539 115.453 98.5803 108.111 95.9275 101.706C93.2747 95.3017 85.9323 92.2604 79.5279 94.9132C73.1235 97.566 70.0822 104.908 72.735 111.313C75.3878 117.717 82.7301 120.759 89.1346 118.106Z" fill="#F5F5F5"/>
<path d="M92.8046 108.506C93.9098 103.824 91.0099 99.132 86.3276 98.0269C81.6454 96.9218 76.9538 99.8217 75.8486 104.504C74.7435 109.186 77.6434 113.878 82.3257 114.983C87.0079 116.088 91.6995 113.188 92.8046 108.506Z" fill="#E6E6E6"/>
<path d="M86.7241 112.288C89.9155 110.966 91.4311 107.307 90.1091 104.116C88.7872 100.924 85.1283 99.4087 81.9369 100.731C78.7454 102.053 77.2299 105.711 78.5518 108.903C79.8738 112.094 83.5326 113.61 86.7241 112.288Z" fill="#F5F5F5"/>
<path d="M87.1633 106.512C87.1633 107.074 86.9965 107.624 86.6841 108.091C86.3716 108.558 85.9274 108.923 85.4079 109.138C84.8883 109.352 84.3167 109.408 83.7654 109.298C83.214 109.188 82.7077 108.917 82.3106 108.519C81.9134 108.121 81.6433 107.614 81.5343 107.062C81.4254 106.511 81.4825 105.939 81.6985 105.42C81.9145 104.901 82.2796 104.458 82.7477 104.146C83.2157 103.835 83.7657 103.669 84.3279 103.67C84.7008 103.67 85.07 103.744 85.4144 103.887C85.7588 104.03 86.0716 104.239 86.335 104.503C86.5984 104.767 86.8071 105.08 86.9492 105.425C87.0914 105.77 87.1641 106.139 87.1633 106.512Z" fill="#E6E6E6"/>
<path d="M54.9149 87.6091L55.5349 91.7509L51.2246 93.2017L55.5349 95.4652L59.8332 93.9542L59.0807 89.8726L54.9149 87.6091Z" fill="#E6E6E6"/>
<path d="M84.3281 107.114C84.232 107.113 84.1373 107.09 84.0511 107.048L53.2107 91.2393C53.0734 91.1639 52.9709 91.0381 52.925 90.8884C52.879 90.7387 52.8932 90.577 52.9644 90.4376C53.0357 90.2982 53.1585 90.192 53.3067 90.1416C53.455 90.0913 53.617 90.1006 53.7585 90.1677L84.599 105.952C84.7407 106.024 84.8482 106.15 84.8978 106.301C84.9475 106.452 84.9352 106.617 84.8638 106.759C84.8172 106.863 84.7421 106.951 84.6473 107.014C84.5525 107.077 84.4418 107.112 84.3281 107.114Z" fill="#E0E0E0"/>
<path d="M126.77 80.7643C126.767 79.936 126.958 79.1186 127.329 78.3778C127.699 77.6371 128.239 76.9937 128.904 76.4994C129.568 76.0051 130.34 75.6738 131.156 75.5321C131.972 75.3904 132.81 75.4422 133.602 75.6835C133.367 74.0861 133.479 72.4569 133.93 70.9066C134.381 69.3564 135.161 67.9217 136.217 66.7002C137.273 65.4787 138.58 64.4991 140.048 63.8283C141.517 63.1574 143.113 62.811 144.727 62.8127C145.42 62.8124 146.111 62.8769 146.792 63.0053C147.9 61.1846 149.57 59.7735 151.55 58.985C153.53 58.1965 155.713 58.0732 157.769 58.6338C159.825 59.1944 161.644 60.4085 162.95 62.0929C164.255 63.7773 164.978 65.8407 165.009 67.9718H165.177C167.578 67.9718 169.881 68.9257 171.579 70.6237C173.277 72.3217 174.231 74.6246 174.231 77.0259C174.231 79.4272 173.277 81.7301 171.579 83.4281C169.881 85.1261 167.578 86.08 165.177 86.08H131.923C130.54 86.0408 129.228 85.4631 128.265 84.4701C127.303 83.4771 126.766 82.1473 126.77 80.7643Z" fill="#F0F0F0"/>
<path d="M221.217 77.8508C221.217 77.1723 221.486 76.5215 221.966 76.0417C222.446 75.5619 223.097 75.2923 223.775 75.2923C224.024 75.2946 224.271 75.331 224.51 75.4007C224.472 75.1415 224.452 74.88 224.45 74.6181C224.449 73.8217 224.624 73.035 224.963 72.314C225.301 71.593 225.794 70.9555 226.407 70.4468C227.02 69.9381 227.737 69.5707 228.508 69.3708C229.279 69.1709 230.084 69.1435 230.867 69.2904C231.403 68.4149 232.209 67.7374 233.164 67.3598C234.119 66.9821 235.17 66.9248 236.16 67.1964C237.15 67.468 238.025 68.0539 238.654 68.8658C239.282 69.6778 239.63 70.6718 239.644 71.6984H239.722C240.88 71.6984 241.99 72.1582 242.809 72.9767C243.627 73.7952 244.087 74.9053 244.087 76.0629C244.087 77.2204 243.627 78.3305 242.809 79.149C241.99 79.9675 240.88 80.4274 239.722 80.4274H223.703C223.034 80.41 222.398 80.1302 221.932 79.6481C221.467 79.1661 221.21 78.5206 221.217 77.8508Z" fill="#F0F0F0"/>
<path d="M57.022 81.0352C57.022 80.8094 57.0666 80.5858 57.1532 80.3773C57.2398 80.1687 57.3667 79.9793 57.5267 79.8199C57.6866 79.6605 57.8765 79.5343 58.0853 79.4484C58.2942 79.3625 58.5179 79.3187 58.7437 79.3195C58.9109 79.3191 59.0773 79.3434 59.2374 79.3918C59.2112 79.2164 59.1971 79.0394 59.1952 78.862C59.2031 77.9065 59.5862 76.9923 60.2619 76.3166C60.9375 75.641 61.8517 75.2579 62.8072 75.25C63.0336 75.2509 63.2593 75.2731 63.4815 75.3162C63.8388 74.7243 64.3793 74.265 65.0212 74.008C65.663 73.751 66.3712 73.7103 67.0383 73.8921C67.7053 74.0738 68.295 74.4681 68.7177 75.0152C69.1405 75.5622 69.3734 76.2322 69.3811 76.9236H69.4353C70.1906 76.9578 70.9037 77.2819 71.4261 77.8286C71.9485 78.3752 72.2401 79.1022 72.2401 79.8583C72.2401 80.6145 71.9485 81.3415 71.4261 81.8881C70.9037 82.4347 70.1906 82.7589 69.4353 82.7931H58.6956C58.4702 82.7876 58.2482 82.7378 58.0421 82.6465C57.8361 82.5552 57.65 82.4242 57.4946 82.2609C57.3392 82.0977 57.2174 81.9054 57.1363 81.6951C57.0553 81.4848 57.0164 81.2606 57.022 81.0352Z" fill="#F0F0F0"/>
<path d="M150.499 257.391C214.963 257.391 267.221 254.34 267.221 250.576C267.221 246.813 214.963 243.762 150.499 243.762C86.0355 243.762 33.7773 246.813 33.7773 250.576C33.7773 254.34 86.0355 257.391 150.499 257.391Z" fill="#F5F5F5"/>
<path d="M83.3047 135.787L87.4344 133.427C87.4344 133.427 89.0237 130.977 89.4993 130.863C89.9748 130.748 95.2122 130.863 95.2122 130.863C95.2122 130.863 94.4236 134.258 94.3393 134.926C94.2551 135.595 89.2585 134.926 89.2585 134.926L85.213 137.334L83.3047 135.787Z" fill="#EBB376"/>
<path d="M44.8429 245.616L40.5206 244.755C40.4434 244.755 40.3684 244.781 40.3082 244.829C40.2479 244.877 40.206 244.945 40.1895 245.02L39.0276 249.343C39.0032 249.49 39.0346 249.642 39.1159 249.768C39.1971 249.893 39.3224 249.984 39.4671 250.023H39.5935C41.1226 250.023 42.2363 249.902 44.1506 249.902C45.3546 249.902 48.8944 250.029 50.5258 250.029C52.1572 250.029 52.374 248.416 51.7298 248.271C48.7198 247.615 46.4804 246.712 45.5232 245.863C45.3378 245.694 45.0934 245.606 44.8429 245.616Z" fill="#263238"/>
<path d="M97.7404 245.472H93.0207C92.9432 245.47 92.8677 245.496 92.8072 245.544C92.7467 245.592 92.7051 245.661 92.6896 245.736L91.919 249.228C91.8964 249.376 91.9295 249.526 92.0118 249.651C92.0942 249.776 92.2199 249.865 92.3645 249.902H92.4909C94.02 249.872 95.1277 249.782 97.0481 249.782C98.2521 249.782 101.792 249.902 103.423 249.902C105.055 249.902 105.265 248.295 104.597 248.144C101.587 247.494 99.3477 246.585 98.3905 245.736C98.3056 245.651 98.2042 245.583 98.0925 245.538C97.9807 245.492 97.861 245.47 97.7404 245.472Z" fill="#263238"/>
<path d="M53.1735 165.953L73.1599 160.885C77.6929 170.781 94.3262 211.416 98.3596 245.225L91.5931 246.94C91.5931 246.94 79.6133 197.083 69.5659 182.526C69.5659 182.526 69.0302 204.656 67.9405 207.877C67.0436 210.525 46.4732 245.965 46.4732 245.965L39.791 245.213C39.791 245.213 56.5868 209.045 57.5741 204.536C58.2724 201.465 55.2143 178.914 55.2143 178.914C54.6785 176.904 53.8718 168.578 53.8718 168.578C53.8718 168.578 53.2698 166.369 53.1735 165.953Z" fill="#503FEA"/>
<path opacity="0.2" d="M69.5725 182.539C71.2685 185.104 72.7485 187.807 73.9972 190.617C72.6126 182.827 68.3203 175.284 68.3203 175.284L69.5725 182.539Z" fill="black"/>
<path opacity="0.3" d="M53.1735 165.953L73.1599 160.885C77.6929 170.781 94.3262 211.416 98.3596 245.225L91.5931 246.94C91.5931 246.94 79.6133 197.083 69.5659 182.526C69.5659 182.526 69.0302 204.656 67.9405 207.877C67.0436 210.525 46.4732 245.965 46.4732 245.965L39.791 245.213C39.791 245.213 56.5868 209.045 57.5741 204.536C58.2724 201.465 55.2143 178.914 55.2143 178.914C54.6785 176.904 53.8718 168.578 53.8718 168.578C53.8718 168.578 53.2698 166.369 53.1735 165.953Z" fill="black"/>
<path d="M87.9218 136.13C87.9218 136.13 78.8075 142.283 76.4055 142.608C75.4483 142.74 73.4738 142.415 71.433 142.006C68.3387 141.344 65.112 140.416 65.112 140.416L64.7087 137.364L64.2812 134.102C65.0037 133.861 74.431 137.714 75.8397 138.316C77.2483 138.918 86.3566 133.5 86.3566 133.5L87.9218 136.13Z" fill="#263238"/>
<path d="M59.735 164.545L60.325 166.856L53.8715 168.578L53.2695 166.182L59.735 164.545Z" fill="black"/>
<path d="M69.9166 161.962L70.4764 164.153L61.0431 166.67L60.4531 164.364L69.9166 161.962Z" fill="black"/>
<path d="M74.1906 163.166L71.1867 163.967L70.6328 161.782L73.39 161.083L74.1906 163.166Z" fill="black"/>
<path d="M64.7829 165.673L68.5059 164.729L67.8252 162.045L64.1022 162.989L64.7829 165.673Z" fill="white"/>
<path d="M73.3825 161.077L53.2637 166.182C52.2824 163.527 51.2831 160.855 50.3079 158.248C49.5915 156.34 48.8871 154.467 48.2009 152.655C48.0283 152.19 47.8537 151.732 47.6771 151.283L47.0751 149.681C46.6296 148.51 46.2002 147.38 45.7868 146.292L44.6792 143.397L44.1554 142.024L43.1621 139.435L64.2863 134.078C71.2514 146.232 73.3825 161.077 73.3825 161.077Z" fill="#263238"/>
<path d="M50.8318 138.918C53.005 139.959 57.0143 138.123 57.0143 138.123C57.0143 138.123 58.3447 136.654 57.5501 136.004C55.9367 136.215 56.0391 135.685 55.4551 134.86C55.1212 134.339 54.8922 133.759 54.7809 133.15C54.7087 132.814 54.6544 132.475 54.6184 132.133L48.2793 129.857C49.7181 132.181 51.9515 136.582 50.8318 138.918Z" fill="#EBB376"/>
<path opacity="0.2" d="M50.207 131.934C51.3508 134.974 54.1562 135.065 55.4565 134.86C55.1226 134.339 54.8935 133.759 54.7822 133.15L50.207 131.934Z" fill="black"/>
<path d="M58.4664 120.4C58.4664 120.4 60.1219 125.397 57.732 127.835C55.342 130.273 53.7227 120.719 53.7227 120.719L58.4664 120.4Z" fill="#263238"/>
<path d="M50.5203 133.277C51.2354 134.023 52.1755 134.514 53.1965 134.675C54.2175 134.836 55.263 134.658 56.173 134.168C57.3661 133.551 58.2791 132.503 58.7255 131.236C58.7857 131.068 58.8399 130.887 58.8881 130.706C59.6948 127.341 59.1891 121.785 55.5229 120.292C54.7148 119.959 53.835 119.838 52.9671 119.941C52.0991 120.044 51.272 120.367 50.5642 120.88C49.8565 121.393 49.2917 122.078 48.9237 122.871C48.5556 123.663 48.3965 124.537 48.4614 125.409C48.6782 129.159 48.63 131.363 50.5203 133.277Z" fill="#EBB376"/>
<path d="M54.1367 126.474C54.1367 126.775 54.2932 127.022 54.4979 127.022C54.7026 127.022 54.8531 126.775 54.8591 126.474C54.8651 126.173 54.6966 125.92 54.4979 125.92C54.2993 125.92 54.1367 126.167 54.1367 126.474Z" fill="#263238"/>
<path d="M57.5801 126.474C57.5801 126.781 57.7426 127.028 57.9413 127.028C58.1399 127.028 58.2965 126.775 58.3025 126.474C58.3085 126.173 58.1339 125.927 57.9413 125.927C57.7486 125.927 57.5801 126.185 57.5801 126.474Z" fill="#263238"/>
<path d="M56.4847 126.625C56.8446 127.557 57.3329 128.434 57.9355 129.231C57.7265 129.381 57.4871 129.483 57.2343 129.53C56.9815 129.577 56.7214 129.567 56.4727 129.502L56.4847 126.625Z" fill="#D58745"/>
<path d="M58.8398 125.066C58.811 125.08 58.779 125.088 58.7465 125.088C58.7141 125.088 58.6821 125.08 58.6532 125.066C58.4752 124.929 58.2675 124.836 58.0468 124.794C57.8262 124.752 57.5988 124.763 57.383 124.825C57.3391 124.842 57.2903 124.84 57.2474 124.821C57.2045 124.802 57.171 124.766 57.1542 124.723C57.1375 124.679 57.1388 124.63 57.158 124.587C57.1772 124.544 57.2127 124.511 57.2566 124.494C57.5265 124.408 57.8131 124.39 58.0919 124.439C58.3707 124.488 58.6335 124.604 58.8579 124.777C58.8776 124.789 58.8945 124.806 58.9077 124.825C58.9209 124.845 58.93 124.867 58.9345 124.89C58.9389 124.913 58.9388 124.937 58.9339 124.96C58.929 124.983 58.9195 125.004 58.9061 125.024C58.8858 125.04 58.8636 125.054 58.8398 125.066Z" fill="#263238"/>
<path d="M53.4565 125.108C53.4221 125.103 53.3892 125.091 53.3602 125.072C53.3271 125.038 53.3086 124.992 53.3086 124.945C53.3086 124.898 53.3271 124.852 53.3602 124.819C53.5706 124.626 53.8245 124.487 54.1002 124.414C54.3758 124.34 54.6651 124.335 54.9435 124.397C54.9874 124.411 55.0244 124.441 55.0467 124.482C55.0691 124.522 55.0753 124.569 55.0639 124.614C55.0499 124.66 55.019 124.698 54.9776 124.721C54.9362 124.745 54.8874 124.752 54.8411 124.74C54.6215 124.696 54.3946 124.705 54.179 124.766C53.9634 124.826 53.7653 124.937 53.601 125.09C53.5795 125.102 53.5556 125.111 53.5307 125.114C53.5058 125.117 53.4806 125.115 53.4565 125.108Z" fill="#263238"/>
<path d="M51.2063 120.761L51.5675 121.454C50.3635 121.917 50.6645 123.338 50.9655 123.97C51.5675 125.33 50.8752 127.516 49.8578 128.425C49.8578 128.425 49.7916 127.823 49.2919 127.991C48.7923 128.16 49.0812 131.278 50.1407 132.723C50.1407 132.723 48.5816 131.441 47.5822 128.202C46.6612 125.192 46.4445 122.682 47.0164 121.478L51.2063 120.761Z" fill="#263238"/>
<path d="M46.8225 128.491C47.0273 128.911 47.313 129.287 47.6632 129.597C48.0133 129.907 48.4212 130.145 48.8633 130.297C50.0673 130.694 50.6693 129.653 50.4285 128.491C50.1757 127.474 49.2666 125.999 48.0205 126.113C47.7577 126.143 47.5065 126.237 47.2894 126.388C47.0723 126.539 46.8963 126.742 46.7774 126.978C46.6584 127.214 46.6002 127.476 46.6081 127.74C46.616 128.004 46.6897 128.262 46.8225 128.491Z" fill="#EBB376"/>
<path d="M51.1687 134.782C52.9385 136.022 56.388 136.425 58.0796 134.18C59.7712 131.935 59.2294 128.329 59.2294 128.329C59.0352 129.134 58.6651 129.886 58.1458 130.532C57.1887 129.376 55.5633 130.032 55.5633 130.032C55.2207 129.586 54.7293 129.279 54.1787 129.165C53.39 129.087 51.1687 129.22 51.1687 129.22C50.4583 128.768 50.4282 126.757 50.4282 126.757L49.9948 127.119C49.9948 127.119 49.3928 133.536 51.1687 134.782Z" fill="#263238"/>
<path d="M55.9017 122.038C55.9017 122.038 60.1157 119.991 59.6161 117.944C59.1164 115.897 57.8883 118.233 57.8883 118.233C57.8883 118.233 58.4542 116.68 57.3465 116.427C56.2388 116.174 56.588 117.167 55.986 117.763C55.384 118.359 49.5446 117.492 47.6603 118.66C45.7761 119.828 47.2149 123.868 47.2149 123.868C48.3277 122.75 49.7423 121.982 51.2854 121.657C52.8284 121.332 54.4327 121.464 55.9017 122.038Z" fill="#263238"/>
<path opacity="0.2" d="M51.1687 134.782C52.9385 136.022 56.388 136.425 58.0796 134.18C59.7712 131.935 59.2294 128.329 59.2294 128.329C59.0352 129.134 58.6651 129.886 58.1458 130.532C57.1887 129.376 55.5633 130.032 55.5633 130.032C55.2207 129.586 54.7293 129.279 54.1787 129.165C53.39 129.087 51.1687 129.22 51.1687 129.22C50.4583 128.768 50.4282 126.757 50.4282 126.757L49.9948 127.119C49.9948 127.119 49.3928 133.536 51.1687 134.782Z" fill="white"/>
<path d="M55.7437 131.176C55.4198 131.61 55.128 132.066 54.8708 132.543L54.5999 132.44C53.3959 132.001 52.9625 131.399 52.8662 130.857C52.8272 130.594 52.8499 130.327 52.9324 130.074C52.9763 129.928 53.039 129.789 53.119 129.659C53.7522 130.263 54.5077 130.725 55.3344 131.013C55.5812 131.122 55.7437 131.176 55.7437 131.176Z" fill="#263238"/>
<path d="M55.3356 131.019L55.0647 131.417C53.9209 131.001 53.1684 130.556 52.9336 130.08C52.9775 129.934 53.0402 129.795 53.1202 129.665C53.7534 130.269 54.5088 130.731 55.3356 131.019Z" fill="white"/>
<path d="M54.6009 132.44C53.3969 132.001 52.9635 131.399 52.8672 130.857C53.327 131.036 53.7525 131.292 54.1254 131.615C54.3666 131.834 54.533 132.122 54.6009 132.44Z" fill="#DE5753"/>
<path d="M57.81 138.129L57.4549 141.247L63.9565 155.099L63.3123 156.935L61.1873 155.954L56.5519 141.825L53.1445 139.52L55.6248 138.159L57.81 138.129Z" fill="#503FEA"/>
<path d="M50.9766 135.998L55.2809 137.774L55.4554 134.86L58.628 135.643L58.8989 140.079L55.8467 138.833L54.5705 141.675L49.1465 138.051L50.9766 135.998Z" fill="#263238"/>
<path opacity="0.2" d="M50.9766 135.998L55.2809 137.774L55.4554 134.86L58.628 135.643L58.8989 140.079L55.8467 138.833L54.5705 141.675L49.1465 138.051L50.9766 135.998Z" fill="white"/>
<path opacity="0.2" d="M47.0701 149.681C46.6246 148.509 46.1952 147.38 45.7818 146.292L44.6741 143.396L44.1504 142.024C44.7524 141.729 46.2875 141.903 46.7149 142.626C48.2801 145.359 47.0701 149.681 47.0701 149.681Z" fill="black"/>
<path opacity="0.2" d="M54.6132 152.74C54.3561 153.922 53.8355 155.032 53.0903 155.985C52.3451 156.939 51.3944 157.712 50.3089 158.248C49.5925 156.34 48.8882 154.467 48.2019 152.655C48.0293 152.19 47.8548 151.732 47.6782 151.283L47.0762 149.681L54.0473 150.566L54.6132 152.74Z" fill="black"/>
<path opacity="0.2" d="M71.4333 141.982C68.339 141.32 65.1123 140.392 65.1123 140.392L64.709 137.34C64.709 137.34 70.3979 137.948 71.4333 141.982Z" fill="black"/>
<path d="M43.1577 213.108C42.969 213.114 42.783 213.061 42.626 212.956C42.469 212.852 42.3488 212.7 42.2824 212.523C42.2159 212.347 42.2066 212.153 42.2556 211.971C42.3046 211.789 42.4096 211.626 42.5557 211.507C52.6031 203.259 52.4105 190.334 52.2238 177.831C52.0794 168.404 51.9469 159.494 56.3837 153.438C62.6083 144.926 87.6455 131.423 91.7933 131.037C94.7612 130.742 185.284 105.585 232.74 92.3228C232.97 92.2582 233.217 92.2878 233.426 92.4052C233.635 92.5226 233.789 92.7182 233.853 92.9489C233.918 93.1796 233.888 93.4266 233.771 93.6354C233.653 93.8443 233.458 93.9979 233.227 94.0626C227.611 95.6338 95.6822 132.494 91.9619 132.837C88.392 133.169 63.6077 146.617 57.8405 154.509C53.765 160.078 53.8914 168.693 54.0298 177.807C54.2104 190.136 54.4211 204.114 43.6995 212.909C43.546 213.034 43.3554 213.104 43.1577 213.108Z" fill="#263238"/>
<path opacity="0.4" d="M233.256 94.0565L220.879 97.524C186.836 107.024 95.061 132.56 91.9908 132.843C88.4209 133.174 63.6366 146.623 57.8695 154.515C53.7939 160.084 53.9203 168.698 54.0588 177.813C54.2394 190.142 54.4501 204.12 43.7285 212.915C43.5598 213.055 43.3455 213.128 43.1265 213.12C42.9377 213.126 42.7518 213.073 42.5948 212.968C42.4378 212.864 42.3176 212.712 42.2511 212.535C42.1847 212.359 42.1753 212.165 42.2243 211.983C42.2734 211.801 42.3783 211.638 42.5245 211.519C52.5719 203.271 52.3792 190.346 52.1926 177.843C52.0481 168.416 51.9157 159.506 56.3524 153.45C62.5771 144.938 87.6143 131.435 91.762 131.049C94.5553 130.772 174.754 108.511 223.769 94.8331L232.708 92.3348C232.939 92.2701 233.186 92.2998 233.395 92.4172C233.604 92.5346 233.757 92.7302 233.822 92.9609C233.887 93.1916 233.857 93.4385 233.74 93.6474C233.622 93.8562 233.427 94.0099 233.196 94.0746L233.256 94.0565Z" fill="white"/>
<path opacity="0.2" d="M233.256 94.0567L220.879 97.5242C221.747 96.5064 222.737 95.6005 223.829 94.8272L232.768 92.3289C232.999 92.2643 233.246 92.2939 233.455 92.4113C233.664 92.5287 233.817 92.7243 233.882 92.955C233.947 93.1857 233.917 93.4327 233.8 93.6415C233.682 93.8504 233.487 94.0041 233.256 94.0687V94.0567Z" fill="black"/>
<path d="M49.3086 150.982L54.0403 150.566C54.0403 150.566 56.5145 149.001 56.9901 149.103C57.4657 149.206 62.1794 151.511 62.1794 151.511C62.1794 151.511 60.0423 154.263 59.6871 154.834C59.3319 155.406 55.0758 152.709 55.0758 152.709L50.3862 153.209L49.3086 150.982Z" fill="#EBB376"/>
<path d="M43.1568 139.435C41.0077 140.97 35.4091 153.486 36.0051 155.418C36.6011 157.351 54.0229 153.54 54.0229 153.54L53.2524 150.283H43.8792L46.1066 146.768C46.1066 146.768 47.4792 145.431 46.6364 142.325C46.0284 140.085 43.1568 139.435 43.1568 139.435Z" fill="#263238"/>
<path d="M224.672 140.693L221.102 139.002C221.102 139.002 219.296 135.546 218.766 134.993C218.236 134.439 215.678 136.588 215.678 136.961C215.678 137.334 217.532 140.826 218.013 141.037C218.73 141.142 219.458 141.142 220.175 141.037L223.57 142.68L224.672 140.693Z" fill="#9F5B53"/>
<path d="M233.004 119.28L233.72 116.722C233.72 116.722 234.852 113.387 234.731 112.616C234.51 111.704 234.224 110.809 233.877 109.937C233.877 109.937 230.746 113.748 230.746 114.224C230.746 114.699 231.986 116.427 231.986 116.427L231.384 119.28H233.004Z" fill="#9F5B53"/>
<path d="M235.755 138.34C235.755 138.34 233.058 134.987 232.263 131.868C231.469 128.75 233.871 118.624 233.871 118.624L231.336 117.95C231.336 117.95 228.326 128.31 228.224 132.091C228.122 135.871 233.744 146.966 233.744 146.966L235.755 138.34Z" fill="#503FEA"/>
<path opacity="0.2" d="M234.124 145.299L233.738 146.942C233.738 146.942 231.8 143.119 230.217 139.194C231.864 140.378 233.107 142.041 233.775 143.956C233.927 144.393 234.044 144.842 234.124 145.299Z" fill="black"/>
<path d="M250.033 145.684C249.999 146.383 249.915 147.08 249.781 147.767C249.504 149.272 249.034 151.048 248.498 153.004C248.209 154.034 247.896 155.135 247.619 156.297C246.277 161.517 245.549 163.593 244.555 170.258L225.502 165.737C226.532 160.032 228.102 154.438 230.192 149.031C230.745 147.592 231.396 146.153 232.052 144.733C233.104 142.505 234.342 140.37 235.754 138.352C235.754 138.352 238.836 141.169 248.516 142.861C249.69 143.041 250.094 144.065 250.033 145.684Z" fill="#503FEA"/>
<path opacity="0.2" d="M247.639 143.511C247.639 144.113 249.921 146.978 249.782 147.725C249.523 147.899 249.216 148.092 248.867 148.327C242.42 152.077 233.962 150.175 230.205 149.013C230.759 147.574 232.011 144.932 232.661 143.511L237.182 144.516C237.182 144.516 244.575 142.831 247.639 143.511Z" fill="black"/>
<path d="M239.891 139.49C240.583 139.225 246.266 140.639 245.844 140.76C245.423 140.88 243.304 147.382 240.336 146.894C237.368 146.406 237.422 140.429 239.891 139.49Z" fill="#503FEA"/>
<path d="M214.161 246.013L210.585 246.79L208.496 238.567L212.078 237.79L214.161 246.013Z" fill="#9F5B53"/>
<path d="M209.694 245.297H214.142C214.215 245.297 214.285 245.322 214.341 245.368C214.397 245.414 214.436 245.479 214.449 245.55L215.172 248.807C215.188 248.876 215.19 248.948 215.177 249.019C215.165 249.089 215.138 249.156 215.1 249.216C215.061 249.276 215.011 249.328 214.952 249.368C214.893 249.408 214.826 249.436 214.756 249.451H214.636C213.197 249.451 212.15 249.336 210.344 249.336C209.23 249.336 205.871 249.451 204.324 249.451C202.777 249.451 202.59 247.934 203.216 247.795C206.04 247.193 208.165 246.326 209.068 245.52C209.152 245.443 209.251 245.384 209.358 245.345C209.466 245.307 209.58 245.291 209.694 245.297Z" fill="#263238"/>
<path d="M208.484 245.941C208.235 245.96 207.987 245.894 207.779 245.755C207.712 245.699 207.66 245.628 207.628 245.547C207.597 245.465 207.586 245.377 207.599 245.291C207.596 245.24 207.608 245.19 207.634 245.146C207.66 245.102 207.698 245.067 207.743 245.044C208.153 244.833 209.333 245.562 209.465 245.646C209.48 245.654 209.493 245.666 209.5 245.681C209.508 245.696 209.51 245.714 209.507 245.73C209.505 245.748 209.498 245.764 209.486 245.777C209.474 245.79 209.458 245.799 209.441 245.803C209.128 245.885 208.807 245.931 208.484 245.941ZM207.936 245.183C207.901 245.171 207.863 245.171 207.828 245.183C207.828 245.183 207.773 245.213 207.767 245.285C207.761 245.342 207.769 245.4 207.79 245.453C207.811 245.507 207.844 245.554 207.888 245.592C208.297 245.779 208.762 245.803 209.188 245.658C208.805 245.42 208.38 245.259 207.936 245.183Z" fill="#503FEA"/>
<path d="M209.417 245.809H209.374C209.001 245.604 208.267 244.797 208.339 244.412C208.353 244.347 208.388 244.289 208.44 244.247C208.491 244.206 208.556 244.183 208.622 244.183C208.688 244.174 208.755 244.18 208.818 244.2C208.882 244.22 208.94 244.253 208.989 244.298C209.411 244.641 209.501 245.694 209.507 245.742C209.508 245.758 209.504 245.774 209.497 245.787C209.489 245.801 209.478 245.813 209.465 245.821C209.456 245.823 209.447 245.823 209.439 245.821C209.43 245.819 209.423 245.815 209.417 245.809ZM208.682 244.322H208.64C208.526 244.322 208.52 244.388 208.514 244.412C208.465 244.653 208.935 245.261 209.308 245.544C209.288 245.133 209.143 244.738 208.893 244.412C208.866 244.383 208.833 244.361 208.797 244.345C208.761 244.329 208.722 244.322 208.682 244.322Z" fill="#503FEA"/>
<path d="M244.713 170.757C244.713 170.757 241.624 185.482 234.4 189.419C233.571 189.886 232.663 190.194 231.722 190.328C231.722 190.328 224.395 193.338 218.062 196.186C214.209 197.926 210.724 199.623 209.478 200.574C206.179 203.085 214.258 242.275 214.258 242.275L208.767 242.335C208.767 242.335 197.215 207.636 199.135 198.528C201.056 189.419 221.789 175.477 221.789 175.477L224.979 166.7L244.713 170.757Z" fill="#263238"/>
<path opacity="0.2" d="M234.401 189.437C233.572 189.904 232.663 190.212 231.722 190.346C231.722 190.346 224.396 193.356 218.062 196.204C222.138 188.709 229.404 183.839 229.404 183.839L234.401 189.437Z" fill="black"/>
<path d="M260.19 246.013L256.614 246.79L254.525 238.567L258.107 237.79L260.19 246.013Z" fill="#9F5B53"/>
<path d="M255.723 245.297H260.172C260.244 245.297 260.315 245.322 260.371 245.368C260.427 245.414 260.465 245.479 260.479 245.55L261.201 248.807C261.217 248.876 261.219 248.948 261.206 249.019C261.194 249.089 261.168 249.156 261.129 249.216C261.09 249.276 261.04 249.328 260.981 249.368C260.922 249.408 260.856 249.436 260.786 249.451H260.665C259.227 249.451 258.179 249.336 256.373 249.336C255.259 249.336 251.9 249.451 250.353 249.451C248.806 249.451 248.619 247.934 249.245 247.795C252.069 247.193 254.194 246.326 255.097 245.52C255.181 245.443 255.28 245.384 255.388 245.345C255.495 245.307 255.609 245.291 255.723 245.297Z" fill="#263238"/>
<path d="M254.513 245.941C254.264 245.96 254.016 245.894 253.809 245.755C253.741 245.699 253.689 245.628 253.658 245.547C253.626 245.465 253.616 245.377 253.628 245.291C253.625 245.24 253.638 245.19 253.663 245.146C253.689 245.102 253.727 245.067 253.773 245.044C254.182 244.833 255.362 245.562 255.494 245.646C255.51 245.654 255.522 245.666 255.53 245.681C255.537 245.696 255.54 245.714 255.537 245.73C255.534 245.748 255.527 245.764 255.515 245.777C255.503 245.79 255.487 245.799 255.47 245.803C255.157 245.885 254.836 245.931 254.513 245.941ZM253.965 245.183C253.93 245.171 253.892 245.171 253.857 245.183C253.857 245.183 253.803 245.213 253.797 245.285C253.79 245.342 253.798 245.4 253.819 245.453C253.84 245.507 253.874 245.554 253.917 245.592C254.326 245.779 254.791 245.803 255.217 245.658C254.835 245.42 254.41 245.259 253.965 245.183Z" fill="#503FEA"/>
<path d="M255.446 245.809H255.404C255.03 245.604 254.296 244.797 254.368 244.412C254.382 244.347 254.418 244.289 254.469 244.247C254.521 244.206 254.585 244.183 254.651 244.183C254.717 244.174 254.784 244.18 254.847 244.2C254.911 244.22 254.969 244.253 255.018 244.298C255.44 244.641 255.53 245.694 255.536 245.742C255.537 245.758 255.534 245.774 255.526 245.787C255.519 245.801 255.508 245.813 255.494 245.821C255.486 245.823 255.477 245.823 255.468 245.821C255.46 245.819 255.452 245.815 255.446 245.809ZM254.711 244.322H254.645C254.531 244.322 254.525 244.388 254.519 244.412C254.471 244.653 254.94 245.261 255.313 245.544C255.29 245.127 255.139 244.727 254.88 244.4C254.834 244.356 254.775 244.328 254.711 244.322Z" fill="#503FEA"/>
<path d="M245.947 142.608C245.05 143.21 240.914 142.981 240.914 142.981L238.994 145.082L238.807 141.608C238.807 141.608 237.513 141.073 237.868 140.699C238.319 140.733 238.771 140.676 239.199 140.533C239.627 140.389 240.022 140.161 240.361 139.863C241.197 139.044 241.36 137.726 241.348 136.419C241.348 136.419 241.348 136.383 241.348 136.371L244.882 134.565L247.326 133.307C246.176 135.787 244.532 140.441 245.947 142.608Z" fill="#9F5B53"/>
<path opacity="0.2" d="M246.049 135.39C244.881 138.346 241.835 139.664 240.336 139.857C241.173 139.038 241.335 137.72 241.323 136.413C241.326 136.395 241.326 136.377 241.323 136.359L244.857 134.553C244.863 135.035 246.217 134.938 246.049 135.39Z" fill="black"/>
<path d="M248.294 135.269C248.294 135.269 250.587 136.473 251.352 135.035C252.117 133.596 251.027 133.512 252.153 132.994C253.278 132.476 254.88 132.115 254.513 131.025C254.145 129.936 253.008 129.821 254.272 128.617C255.536 127.413 255.813 125.716 253.923 125.385C252.032 125.053 252.755 123.579 252.658 122.977C252.562 122.375 251.503 121.953 250.353 122.194C249.203 122.435 248.721 120.731 248.011 120.201C247.301 119.672 246.319 120.322 246.06 121.038C245.802 121.755 245.121 120.803 244.11 120.683C243.099 120.563 243.333 121.628 243.02 122.621C242.707 123.615 242.087 122.971 241.365 123.789C240.642 124.608 240.576 130.195 248.294 135.269Z" fill="#263238"/>
<path d="M249.294 131.838C247.567 134.547 246.585 136.335 244.647 137.214C244.386 137.334 244.116 137.435 243.84 137.515C240.072 138.623 236.965 134.992 237.959 131.399C238.148 130.75 238.389 130.118 238.681 129.508C240.03 126.685 242.624 123.795 245.724 124.175C246.372 124.249 246.998 124.45 247.568 124.766C248.137 125.082 248.639 125.508 249.044 126.019C249.449 126.529 249.749 127.114 249.927 127.741C250.105 128.368 250.158 129.024 250.083 129.671C249.992 130.445 249.722 131.187 249.294 131.838Z" fill="#9F5B53"/>
<path d="M243.99 130.032C243.863 130.303 243.592 130.423 243.424 130.333C243.255 130.243 243.237 129.948 243.376 129.695C243.514 129.442 243.779 129.304 243.941 129.394C244.104 129.484 244.134 129.785 243.99 130.032Z" fill="#263238"/>
<path d="M241.071 128.425C241.033 128.538 240.953 128.632 240.848 128.687C240.742 128.742 240.619 128.754 240.505 128.72C240.342 128.623 240.318 128.34 240.463 128.082C240.607 127.823 240.86 127.69 241.028 127.787C241.197 127.883 241.209 128.178 241.071 128.425Z" fill="#263238"/>
<path d="M241.931 129.069C241.183 129.684 240.354 130.194 239.469 130.586C239.575 130.811 239.729 131.011 239.92 131.17C240.111 131.329 240.336 131.444 240.576 131.507L241.931 129.069Z" fill="#892B29"/>
<path d="M245.737 129.358C245.705 129.363 245.673 129.359 245.644 129.347C245.614 129.336 245.588 129.317 245.568 129.292C245.446 129.112 245.283 128.963 245.093 128.859C244.902 128.754 244.69 128.696 244.472 128.69C244.447 128.694 244.421 128.694 244.396 128.687C244.372 128.681 244.349 128.669 244.329 128.652C244.309 128.636 244.293 128.616 244.282 128.592C244.271 128.569 244.266 128.544 244.266 128.518C244.266 128.492 244.271 128.467 244.282 128.444C244.293 128.421 244.309 128.4 244.329 128.384C244.349 128.367 244.372 128.356 244.396 128.349C244.421 128.343 244.447 128.342 244.472 128.347C244.747 128.348 245.017 128.417 245.259 128.546C245.501 128.675 245.708 128.86 245.863 129.087C245.877 129.105 245.888 129.125 245.894 129.147C245.9 129.168 245.902 129.191 245.899 129.214C245.896 129.236 245.889 129.258 245.878 129.278C245.866 129.297 245.851 129.314 245.833 129.328C245.804 129.345 245.771 129.356 245.737 129.358Z" fill="#263238"/>
<path d="M241.28 133.12C241.685 133.252 242.115 133.284 242.534 133.213C242.953 133.143 243.349 132.973 243.688 132.717C243.704 132.699 243.712 132.677 243.712 132.654C243.712 132.63 243.704 132.608 243.688 132.591C243.672 132.574 243.649 132.565 243.625 132.565C243.602 132.565 243.579 132.574 243.562 132.591C243.241 132.822 242.87 132.975 242.479 133.037C242.088 133.1 241.688 133.071 241.311 132.952C241.3 132.947 241.288 132.945 241.277 132.945C241.265 132.945 241.254 132.948 241.244 132.953C241.233 132.958 241.224 132.966 241.217 132.975C241.21 132.984 241.205 132.995 241.202 133.006C241.197 133.016 241.195 133.028 241.195 133.04C241.196 133.051 241.198 133.063 241.204 133.073C241.209 133.083 241.216 133.092 241.225 133.1C241.234 133.107 241.245 133.112 241.256 133.114L241.28 133.12Z" fill="#263238"/>
<path d="M240.8 125.926C240.791 125.893 240.791 125.858 240.8 125.824C240.819 125.783 240.854 125.751 240.897 125.735C240.94 125.72 240.987 125.721 241.029 125.74C241.281 125.853 241.503 126.025 241.675 126.242C241.847 126.459 241.964 126.714 242.016 126.986C242.021 127.031 242.008 127.077 241.98 127.113C241.952 127.149 241.911 127.173 241.865 127.179C241.82 127.184 241.774 127.171 241.738 127.143C241.702 127.115 241.679 127.073 241.673 127.028C241.625 126.816 241.529 126.617 241.391 126.449C241.253 126.281 241.077 126.147 240.878 126.059C240.857 126.043 240.839 126.024 240.825 126.001C240.812 125.978 240.803 125.953 240.8 125.926Z" fill="#263238"/>
<path d="M243.279 124.427C244.158 124.536 244.592 125.631 244.592 125.631C245.654 126.02 246.682 126.499 247.662 127.064C247.961 127.308 248.186 127.63 248.311 127.995C248.437 128.36 248.458 128.753 248.372 129.129C248.342 129.418 247.632 129.683 247.632 129.683C247.632 129.683 246.331 132.753 245.976 133.602L246.157 136.437C248.546 134.926 250.46 132.77 251.677 130.219C253.73 125.944 245.164 122.182 245.164 122.182L243.279 124.427Z" fill="#263238"/>
<path d="M248.777 136.124C247.977 136.563 247.035 136.666 246.158 136.413C244.997 136.064 245.063 134.872 245.924 134.107C246.694 133.445 248.241 132.789 249.138 133.56C249.335 133.727 249.486 133.942 249.577 134.183C249.668 134.425 249.697 134.685 249.661 134.941C249.625 135.197 249.526 135.439 249.371 135.646C249.216 135.853 249.012 136.017 248.777 136.124Z" fill="#9F5B53"/>
<path d="M245.844 140.76L241.058 142.138L238.993 144.938L239.553 141.512C239.553 141.512 239.041 140.724 239.89 139.49L236.977 140.092L235.219 143.029L238.638 142.229L238.873 145.642L240.865 143.294L242.497 145.871L247.349 142.794L245.844 140.76Z" fill="#503FEA"/>
<path opacity="0.2" d="M245.844 140.76L241.058 142.138L238.993 144.938L239.553 141.512C239.553 141.512 239.041 140.724 239.89 139.49L236.977 140.092L235.219 143.029L238.638 142.229L238.873 145.642L240.865 143.294L242.497 145.871L247.349 142.794L245.844 140.76Z" fill="black"/>
<path d="M225.756 163.744L225.01 166.718L244.707 170.757L245.002 167.452L225.756 163.744Z" fill="black"/>
<path d="M234.55 165.303C234.394 165.081 230.011 164.135 229.596 164.448C229.596 164.448 228.747 167.38 228.892 167.687C229.036 167.994 233.298 168.59 233.708 168.674C234.117 168.759 234.707 165.55 234.55 165.303ZM233.346 168.313C233.021 168.247 229.518 167.759 229.397 167.507C229.277 167.254 229.999 164.846 229.999 164.846C230.342 164.587 233.942 165.363 234.069 165.544C234.195 165.725 233.671 168.349 233.346 168.283V168.313Z" fill="white"/>
<path d="M233.515 166.303L232.642 166.122C232.562 166.107 232.48 166.122 232.411 166.164C232.342 166.206 232.291 166.273 232.269 166.351C232.256 166.394 232.253 166.44 232.259 166.485C232.265 166.53 232.281 166.573 232.304 166.611C232.328 166.65 232.36 166.683 232.397 166.709C232.435 166.734 232.477 166.752 232.521 166.76L233.394 166.929C233.479 166.945 233.567 166.928 233.638 166.88C233.71 166.832 233.76 166.757 233.777 166.673C233.793 166.588 233.776 166.5 233.728 166.429C233.68 166.357 233.605 166.307 233.521 166.291L233.515 166.303Z" fill="white"/>
<path d="M244.707 170.757C244.707 170.757 245.086 193.031 244.46 199.533C243.834 206.035 260.064 241.619 260.064 241.619H254.809C254.809 241.619 238.886 215.564 235.238 207.546C231.59 199.527 228.893 180.395 228.893 180.395L244.707 170.757Z" fill="#263238"/>
<path d="M250.1 144.119C249.287 142.277 236.808 145.004 235.682 144.685C234.557 144.366 222.842 139.459 222.842 139.459L221.824 142.072C221.824 142.072 232.329 148.092 234.629 149.043C236.928 149.994 246.121 149.537 248.475 148.519C248.878 148.346 249.241 148.092 249.543 147.774C249.845 147.455 250.079 147.079 250.231 146.667C250.383 146.256 250.449 145.818 250.427 145.38C250.405 144.942 250.293 144.513 250.1 144.119Z" fill="#503FEA"/>
<path d="M247.892 96.2778L244.112 72.1978L224.198 86.2785L230.82 89.0839C224.426 103.737 203.687 146.665 168.001 178.318C122.435 218.743 58.6596 238.633 58.0215 238.825L61.5492 250.342C64.2582 249.511 128.419 229.524 176.013 187.306C213.939 153.666 235.262 109.299 241.957 93.7674L247.892 96.2778Z" fill="#503FEA"/>
<path opacity="0.4" d="M244.28 92.0637L244.112 72.1978L224.198 86.2785L230.82 89.0839C224.426 103.737 203.687 146.665 168.001 178.318C122.435 218.743 58.6596 238.633 58.0215 238.825L59.1412 246.128C61.8502 245.297 126.011 227.116 173.605 184.898C211.531 151.258 231.65 106.289 238.345 90.7574L244.28 92.0637Z" fill="white"/>
<path d="M240.801 97.295C240.707 97.2958 240.614 97.2815 240.524 97.2529L228.96 93.5145C228.841 93.4836 228.729 93.4287 228.632 93.3532C228.535 93.2777 228.454 93.1831 228.395 93.0753C228.336 92.9674 228.299 92.8486 228.287 92.7261C228.276 92.6036 228.289 92.48 228.327 92.3629C228.365 92.2458 228.426 92.1377 228.507 92.0451C228.588 91.9526 228.687 91.8776 228.799 91.8248C228.91 91.7719 229.03 91.7424 229.153 91.7379C229.276 91.7334 229.399 91.7541 229.514 91.7988L241.078 95.5312C241.284 95.5964 241.46 95.7332 241.573 95.9168C241.687 96.1005 241.731 96.3187 241.698 96.5321C241.664 96.7454 241.555 96.9397 241.391 97.0797C241.226 97.2197 241.017 97.2961 240.801 97.295Z" fill="#263238"/>
<path opacity="0.4" d="M240.801 97.295C240.707 97.2958 240.614 97.2815 240.524 97.2529L228.96 93.5145C228.841 93.4836 228.729 93.4287 228.632 93.3532C228.535 93.2777 228.454 93.1831 228.395 93.0753C228.336 92.9674 228.299 92.8486 228.287 92.7261C228.276 92.6036 228.289 92.48 228.327 92.3629C228.365 92.2458 228.426 92.1377 228.507 92.0451C228.588 91.9526 228.687 91.8776 228.799 91.8248C228.91 91.7719 229.03 91.7424 229.153 91.7379C229.276 91.7334 229.399 91.7541 229.514 91.7988L241.078 95.5312C241.284 95.5964 241.46 95.7332 241.573 95.9168C241.687 96.1005 241.731 96.3187 241.698 96.5321C241.664 96.7454 241.555 96.9397 241.391 97.0797C241.226 97.2197 241.017 97.2961 240.801 97.295Z" fill="white"/>
<path d="M102.298 209.99C102.058 209.99 101.828 209.894 101.659 209.725C101.49 209.556 101.395 209.326 101.395 209.087C101.395 180.347 109.744 176.579 111.309 176.115L137.858 157.543L137.918 157.507L239.909 97.0303C240.114 96.9131 240.358 96.8813 240.587 96.9419C240.816 97.0025 241.012 97.1506 241.132 97.3543C241.253 97.5579 241.289 97.8009 241.233 98.0308C241.176 98.2607 241.031 98.4592 240.83 98.5835L138.887 159.042L112.212 177.704C112.099 177.783 111.969 177.837 111.833 177.861C111.767 177.861 103.201 179.968 103.201 209.105C103.196 209.341 103.099 209.566 102.93 209.732C102.761 209.897 102.534 209.99 102.298 209.99Z" fill="#263238"/>
<path opacity="0.4" d="M102.298 209.99C102.058 209.99 101.828 209.894 101.659 209.725C101.49 209.556 101.395 209.326 101.395 209.087C101.395 180.347 109.744 176.579 111.309 176.115L137.858 157.543L137.918 157.507L239.909 97.0303C240.114 96.9131 240.358 96.8813 240.587 96.9419C240.816 97.0025 241.012 97.1506 241.132 97.3543C241.253 97.5579 241.289 97.8009 241.233 98.0308C241.176 98.2607 241.031 98.4592 240.83 98.5835L138.887 159.042L112.212 177.704C112.099 177.783 111.969 177.837 111.833 177.861C111.767 177.861 103.201 179.968 103.201 209.105C103.196 209.341 103.099 209.566 102.93 209.732C102.761 209.897 102.534 209.99 102.298 209.99Z" fill="white"/>
<path d="M109.233 180.167C109.233 180.167 104.592 183.177 101.064 184.086C100.193 184.38 99.2588 184.432 98.3608 184.236C95.7361 183.405 97.2953 178.324 98.8605 175.116C99.1133 174.592 99.3661 174.122 99.6009 173.725L104.188 176.561C104.188 176.561 101.407 180.528 101.726 180.775C102.045 181.021 106.331 178.631 106.542 178.553C106.753 178.475 109.233 180.167 109.233 180.167Z" fill="#503FEA"/>
<path opacity="0.2" d="M109.232 180.167C109.232 180.167 104.59 183.177 101.063 184.086C100.083 181.161 99.3464 178.161 98.8594 175.116C99.1122 174.592 99.3651 174.122 99.5998 173.725L104.187 176.561C104.187 176.561 101.406 180.528 101.725 180.775C102.044 181.021 106.33 178.631 106.541 178.553C106.752 178.475 109.232 180.167 109.232 180.167Z" fill="black"/>
<path d="M131.838 162.696L134.559 160.288C134.777 159.601 135.076 158.942 135.45 158.326C135.745 158.079 140.699 157.694 140.699 157.694C140.699 157.694 140.796 160.313 140.404 160.993C140.013 161.673 135.968 161.968 135.968 161.968L133.8 164.057L131.838 162.696Z" fill="#EEC1BB"/>
<path d="M146.333 219.76C145.557 230.933 143.48 246.79 143.48 246.79L140.807 247.392C140.807 247.392 138.339 234.118 138.73 221.801C138.8 219.116 139.053 216.439 139.489 213.788C139.489 213.788 130.23 210.23 123.8 207.046C120.73 205.529 118.304 204.09 117.841 203.163C116.408 200.304 122.922 193.585 122.922 193.585C123.126 193.748 127.057 196.252 131.632 199.22C137.707 203.157 144.913 207.913 146.08 209.099C146.779 209.779 146.719 214.186 146.333 219.76Z" fill="#EEC1BB"/>
<path opacity="0.2" d="M146.334 219.76C143.863 220.656 141.319 221.335 138.73 221.789C138.8 219.104 139.054 216.427 139.489 213.776C139.489 213.776 130.23 210.218 123.801 207.034L131.627 199.208C137.701 203.145 144.907 207.901 146.075 209.087C146.779 209.779 146.719 214.186 146.334 219.76Z" fill="black"/>
<path d="M125.492 191.719C125.492 191.719 151.18 206.486 154.671 209.821C158.163 213.156 178.318 244.322 178.318 244.322L176.62 245.941C176.62 245.941 159.884 231.577 153.208 217.924L125.516 204.542L125.492 191.719Z" fill="#EEC1BB"/>
<path d="M105.952 164.454C105.994 164.483 106.038 164.507 106.085 164.527C106.715 164.884 107.411 165.111 108.131 165.195C110.226 165.381 111.575 164.912 112.345 163.864C113.417 162.311 113.393 159.831 112.803 156.911C112.608 155.743 112.228 154.613 111.677 153.564C111.677 153.564 111.677 153.522 111.677 153.516L111.605 153.396C111.27 152.808 110.793 152.314 110.218 151.959C109.642 151.603 108.987 151.398 108.312 151.361C107.724 151.312 107.133 151.328 106.548 151.409C100.829 152.15 101.136 161.794 105.952 164.454Z" fill="#EEC1BB"/>
<path opacity="0.2" d="M106.107 164.527C106.74 164.864 107.434 165.069 108.148 165.129C110.237 165.315 111.58 164.773 112.362 163.72C111.191 164.187 109.901 164.261 108.684 163.931C108.237 163.827 107.773 163.827 107.327 163.931C106.88 164.034 106.463 164.238 106.107 164.527Z" fill="black"/>
<path d="M105.723 169.234C105.223 170.848 107.288 171.702 107.288 171.702C110.9 170.498 111.713 168.735 111.713 168.735C108.944 166.929 110.16 162.751 110.16 162.751L109.558 162.992L105.344 163.437C105.344 163.437 106.301 165.743 106.409 166.26C106.939 168.975 105.723 169.234 105.723 169.234Z" fill="#EBB376"/>
<path d="M111.713 153.51C111.713 153.51 112.592 157.489 109.022 159.747C109.022 159.747 107.969 164.159 105.567 164.563C102.292 165.105 98.7464 160.836 99.2159 155.912C99.83 149.543 109.113 147.731 111.713 153.51Z" fill="#263238"/>
<path d="M110.767 158.326C110.676 157.724 110.026 156.712 109.069 156.995C108.112 157.278 107.865 159.849 110.43 160.06C110.821 160.132 110.977 159.65 110.767 158.326Z" fill="#EBB376"/>
<path d="M177.199 242.407L174.43 244.538C174.373 244.584 174.333 244.647 174.317 244.718C174.301 244.789 174.308 244.864 174.339 244.93L175.748 247.94C175.778 248.003 175.821 248.06 175.873 248.108C175.926 248.155 175.987 248.191 176.054 248.215C176.12 248.238 176.191 248.249 176.261 248.245C176.332 248.241 176.401 248.223 176.464 248.192C176.5 248.176 176.535 248.156 176.567 248.132C177.687 247.235 177.723 247.097 179.149 246.001C180.022 245.327 182.761 243.376 183.965 242.443C185.169 241.51 184.411 240.192 183.833 240.463C181.232 241.667 179.017 242.311 177.813 242.221C177.592 242.204 177.373 242.27 177.199 242.407Z" fill="#263238"/>
<path d="M177.801 242.353C177.785 242.361 177.768 242.363 177.751 242.36C177.734 242.358 177.718 242.35 177.706 242.338C177.694 242.327 177.685 242.311 177.682 242.295C177.678 242.278 177.68 242.261 177.686 242.245C177.74 242.1 178.234 240.806 178.679 240.728C178.729 240.717 178.78 240.721 178.827 240.739C178.874 240.758 178.915 240.789 178.944 240.83C179.006 240.891 179.051 240.967 179.075 241.05C179.099 241.133 179.102 241.221 179.083 241.306C179.011 241.551 178.856 241.764 178.643 241.908C178.38 242.088 178.098 242.237 177.801 242.353ZM177.927 242.106C178.352 241.962 178.705 241.66 178.914 241.263C178.926 241.206 178.923 241.147 178.907 241.092C178.89 241.036 178.859 240.985 178.818 240.944C178.77 240.896 178.728 240.884 178.71 240.902C178.672 240.91 178.637 240.926 178.607 240.95C178.309 241.289 178.078 241.681 177.927 242.106Z" fill="#503FEA"/>
<path d="M177.794 242.383C177.779 242.384 177.764 242.381 177.751 242.374C177.737 242.368 177.725 242.359 177.716 242.347C177.716 242.305 177.114 241.42 177.24 240.89C177.254 240.826 177.282 240.765 177.32 240.711C177.358 240.658 177.407 240.612 177.463 240.577C177.514 240.536 177.578 240.514 177.643 240.514C177.709 240.514 177.773 240.536 177.824 240.577C178.119 240.836 178.029 241.914 177.854 242.305L177.824 242.335L177.794 242.383ZM177.391 240.902C177.389 241.319 177.513 241.726 177.746 242.07C177.89 241.62 177.868 241.134 177.686 240.698C177.686 240.698 177.619 240.631 177.535 240.698H177.499C177.439 240.751 177.401 240.823 177.391 240.902Z" fill="#503FEA"/>
<path d="M143.95 245.014L140.453 245.08C140.381 245.084 140.313 245.112 140.258 245.158C140.204 245.205 140.166 245.269 140.152 245.339L139.496 248.596C139.476 248.732 139.51 248.87 139.589 248.982C139.669 249.094 139.788 249.172 139.923 249.198C139.963 249.204 140.004 249.204 140.044 249.198C141.47 249.144 141.585 249.053 143.385 249.017C144.492 249.017 147.833 249.047 149.362 249.017C150.892 248.987 151.06 247.47 150.434 247.344C147.611 246.79 145.486 245.983 144.571 245.195C144.395 245.057 144.173 244.993 143.95 245.014Z" fill="#263238"/>
<path d="M144.262 245.399C144.245 245.397 144.229 245.388 144.217 245.375C144.205 245.362 144.197 245.345 144.196 245.327C144.192 245.311 144.193 245.294 144.199 245.278C144.206 245.263 144.217 245.25 144.232 245.243C144.359 245.158 145.521 244.412 145.93 244.611C145.976 244.631 146.016 244.665 146.044 244.708C146.071 244.751 146.086 244.801 146.087 244.851C146.098 244.937 146.089 245.024 146.058 245.105C146.028 245.186 145.977 245.258 145.912 245.315C145.71 245.461 145.462 245.531 145.214 245.514C144.893 245.512 144.574 245.473 144.262 245.399ZM144.509 245.273C144.936 245.41 145.4 245.377 145.804 245.183C145.846 245.143 145.878 245.094 145.897 245.04C145.916 244.985 145.921 244.927 145.912 244.87C145.912 244.803 145.876 244.773 145.858 244.773C145.82 244.765 145.781 244.765 145.743 244.773C145.304 244.861 144.886 245.03 144.509 245.273Z" fill="#503FEA"/>
<path d="M144.238 245.417C144.224 245.41 144.212 245.399 144.205 245.385C144.197 245.371 144.194 245.355 144.196 245.339C144.196 245.291 144.262 244.243 144.677 243.888C144.727 243.844 144.785 243.81 144.848 243.79C144.912 243.771 144.979 243.765 145.045 243.774C145.11 243.772 145.174 243.794 145.226 243.834C145.278 243.875 145.314 243.932 145.328 243.996C145.406 244.376 144.726 245.2 144.322 245.405H144.28C144.268 245.414 144.253 245.419 144.238 245.417ZM144.792 243.99C144.544 244.324 144.401 244.725 144.382 245.14C144.756 244.851 145.207 244.231 145.153 243.996C145.153 243.996 145.153 243.912 145.027 243.912H144.984C144.913 243.913 144.844 243.941 144.792 243.99Z" fill="#503FEA"/>
<path d="M124.775 187.764L112.031 193.116C106.763 180.022 99.5996 173.725 99.5996 173.725C104.705 167.603 114.132 164.785 114.132 164.785C115.524 165.919 116.726 167.268 117.69 168.783C118.753 170.428 119.679 172.157 120.459 173.954C122.352 178.402 123.798 183.029 124.775 187.764Z" fill="#503FEA"/>
<path d="M111.592 156.171C111.592 156.171 115.596 152.089 111.761 149.398C107.926 146.707 104.122 150.301 104.122 150.301C104.122 150.301 95.0132 152.595 97.0119 158.645C99.0105 164.695 100.287 165.195 97.4273 168.337C94.5678 171.48 91.6541 176.115 94.64 179.035C97.6259 181.955 107.92 178.824 111.008 174.345C114.097 169.866 108.474 160.373 111.592 156.171Z" fill="#263238"/>
<path d="M123.85 183.839L110.004 188.588C110.004 188.588 113.068 203.669 115.289 206.191C117.511 208.713 132.362 220.392 134.463 219.471C136.564 218.55 150.5 206.191 150.5 206.191L126.92 190.021L123.85 183.839Z" fill="#263238"/>
<path d="M121.832 186.674L124.775 185.699L124.047 184.242L121.26 185.223L121.832 186.674Z" fill="black"/>
<path d="M113.032 188.119L110.016 189.178L110.419 190.467L113.369 189.485L113.032 188.119Z" fill="black"/>
<path d="M114.001 189.275L121.243 186.873L120.701 185.416L113.604 187.914L114.001 189.275Z" fill="black"/>
<path opacity="0.2" d="M120.459 173.978C117.413 173.623 115.697 169.042 115.697 169.042C116.356 168.923 117.022 168.845 117.69 168.807C118.753 170.452 119.679 172.182 120.459 173.978Z" fill="black"/>
<path d="M114.133 164.785C117.444 164.292 124.849 166.977 125.493 166.947C126.137 166.917 133.319 161.27 133.319 161.27L135.185 162.913C135.185 162.913 127.66 170.673 126.113 170.739C124.566 170.805 116.481 170.222 116.481 170.222C116.481 170.222 114.501 169.517 114.121 167.729C113.89 166.761 113.895 165.752 114.133 164.785Z" fill="#503FEA"/>
<path d="M102.511 294.835H103.823C103.755 295.464 103.575 296.027 103.283 296.523C102.992 297.02 102.579 297.414 102.046 297.706C101.513 297.993 100.847 298.137 100.05 298.137C99.4665 298.137 98.9355 298.027 98.457 297.809C97.9831 297.59 97.5752 297.28 97.2334 296.879C96.8916 296.473 96.6273 295.988 96.4404 295.423C96.2581 294.853 96.167 294.22 96.167 293.522V292.531C96.167 291.834 96.2581 291.203 96.4404 290.638C96.6273 290.068 96.8939 289.58 97.2402 289.175C97.5911 288.769 98.0127 288.457 98.5049 288.238C98.9971 288.02 99.5508 287.91 100.166 287.91C100.918 287.91 101.554 288.051 102.073 288.334C102.593 288.617 102.996 289.008 103.283 289.51C103.575 290.007 103.755 290.583 103.823 291.239H102.511C102.447 290.774 102.328 290.376 102.155 290.043C101.982 289.706 101.736 289.446 101.417 289.264C101.098 289.081 100.681 288.99 100.166 288.99C99.724 288.99 99.3343 289.075 98.9971 289.243C98.6644 289.412 98.3841 289.651 98.1562 289.961C97.9329 290.271 97.7643 290.642 97.6504 291.075C97.5365 291.508 97.4795 291.989 97.4795 292.518V293.522C97.4795 294.01 97.5296 294.468 97.6299 294.896C97.7347 295.325 97.8919 295.701 98.1016 296.024C98.3112 296.348 98.5778 296.603 98.9014 296.79C99.2249 296.972 99.6077 297.063 100.05 297.063C100.61 297.063 101.057 296.975 101.39 296.797C101.722 296.619 101.973 296.364 102.142 296.031C102.315 295.699 102.438 295.3 102.511 294.835ZM106.694 287.5V298H105.43V287.5H106.694ZM106.394 294.021L105.867 294.001C105.872 293.495 105.947 293.028 106.093 292.6C106.239 292.167 106.444 291.791 106.708 291.472C106.972 291.153 107.287 290.907 107.651 290.733C108.021 290.556 108.428 290.467 108.875 290.467C109.24 290.467 109.568 290.517 109.859 290.617C110.151 290.713 110.399 290.868 110.604 291.082C110.814 291.296 110.974 291.574 111.083 291.916C111.192 292.253 111.247 292.666 111.247 293.153V298H109.976V293.14C109.976 292.752 109.919 292.442 109.805 292.21C109.691 291.973 109.524 291.802 109.306 291.697C109.087 291.588 108.818 291.533 108.499 291.533C108.185 291.533 107.897 291.599 107.638 291.731C107.382 291.864 107.161 292.046 106.975 292.278C106.792 292.511 106.649 292.777 106.544 293.078C106.444 293.374 106.394 293.689 106.394 294.021ZM120.065 290.009H121.036C121.036 290.506 120.97 290.923 120.838 291.26C120.71 291.597 120.485 291.85 120.161 292.019C119.838 292.187 119.382 292.271 118.794 292.271V291.492C119.204 291.492 119.498 291.442 119.676 291.342C119.854 291.237 119.963 291.075 120.004 290.856C120.045 290.638 120.065 290.355 120.065 290.009ZM117.666 296.291V290.604H118.938V298H117.728L117.666 296.291ZM117.905 294.732L118.432 294.719C118.432 295.211 118.379 295.667 118.274 296.086C118.174 296.501 118.01 296.861 117.782 297.166C117.554 297.471 117.256 297.711 116.887 297.884C116.518 298.052 116.069 298.137 115.54 298.137C115.18 298.137 114.85 298.084 114.549 297.979C114.253 297.875 113.997 297.713 113.783 297.494C113.569 297.275 113.403 296.991 113.284 296.64C113.17 296.289 113.113 295.867 113.113 295.375V290.604H114.378V295.389C114.378 295.721 114.414 295.997 114.487 296.216C114.565 296.43 114.667 296.601 114.795 296.729C114.927 296.852 115.073 296.938 115.232 296.988C115.396 297.038 115.565 297.063 115.738 297.063C116.276 297.063 116.702 296.961 117.017 296.756C117.331 296.546 117.557 296.266 117.693 295.915C117.835 295.56 117.905 295.165 117.905 294.732ZM126.17 296.735V292.928C126.17 292.636 126.111 292.383 125.992 292.169C125.878 291.95 125.705 291.782 125.473 291.663C125.24 291.545 124.953 291.485 124.611 291.485C124.292 291.485 124.012 291.54 123.771 291.649C123.534 291.759 123.347 291.902 123.21 292.08C123.078 292.258 123.012 292.449 123.012 292.654H121.747C121.747 292.39 121.815 292.128 121.952 291.868C122.089 291.608 122.285 291.374 122.54 291.164C122.8 290.95 123.11 290.781 123.47 290.658C123.834 290.531 124.24 290.467 124.687 290.467C125.224 290.467 125.698 290.558 126.108 290.74C126.523 290.923 126.847 291.198 127.079 291.567C127.316 291.932 127.435 292.39 127.435 292.941V296.387C127.435 296.633 127.455 296.895 127.496 297.173C127.542 297.451 127.608 297.69 127.694 297.891V298H126.375C126.311 297.854 126.261 297.66 126.225 297.419C126.188 297.173 126.17 296.945 126.17 296.735ZM126.389 293.516L126.402 294.404H125.124C124.764 294.404 124.443 294.434 124.16 294.493C123.878 294.548 123.641 294.632 123.449 294.746C123.258 294.86 123.112 295.004 123.012 295.177C122.911 295.345 122.861 295.544 122.861 295.771C122.861 296.004 122.914 296.216 123.019 296.407C123.123 296.599 123.281 296.751 123.49 296.865C123.704 296.975 123.966 297.029 124.276 297.029C124.664 297.029 125.006 296.947 125.302 296.783C125.598 296.619 125.833 296.419 126.006 296.182C126.184 295.945 126.279 295.715 126.293 295.491L126.833 296.1C126.801 296.291 126.715 296.503 126.573 296.735C126.432 296.968 126.243 297.191 126.006 297.405C125.773 297.615 125.495 297.79 125.172 297.932C124.853 298.068 124.493 298.137 124.092 298.137C123.59 298.137 123.151 298.039 122.772 297.843C122.399 297.647 122.107 297.385 121.897 297.057C121.692 296.724 121.59 296.353 121.59 295.942C121.59 295.546 121.667 295.197 121.822 294.896C121.977 294.591 122.201 294.338 122.492 294.138C122.784 293.933 123.135 293.778 123.545 293.673C123.955 293.568 124.413 293.516 124.919 293.516H126.389ZM135.856 297.098C136.157 297.098 136.435 297.036 136.69 296.913C136.946 296.79 137.155 296.621 137.319 296.407C137.483 296.188 137.577 295.94 137.6 295.662H138.803C138.78 296.1 138.632 296.507 138.358 296.886C138.09 297.259 137.736 297.562 137.299 297.795C136.861 298.023 136.381 298.137 135.856 298.137C135.3 298.137 134.815 298.039 134.4 297.843C133.99 297.647 133.648 297.378 133.375 297.036C133.106 296.694 132.903 296.302 132.767 295.86C132.634 295.414 132.568 294.942 132.568 294.445V294.158C132.568 293.661 132.634 293.192 132.767 292.75C132.903 292.303 133.106 291.909 133.375 291.567C133.648 291.226 133.99 290.957 134.4 290.761C134.815 290.565 135.3 290.467 135.856 290.467C136.435 290.467 136.941 290.585 137.374 290.822C137.807 291.055 138.146 291.374 138.393 291.779C138.643 292.18 138.78 292.636 138.803 293.146H137.6C137.577 292.841 137.49 292.565 137.34 292.319C137.194 292.073 136.993 291.877 136.738 291.731C136.488 291.581 136.194 291.506 135.856 291.506C135.469 291.506 135.143 291.583 134.879 291.738C134.619 291.889 134.412 292.094 134.257 292.354C134.106 292.609 133.997 292.894 133.929 293.208C133.865 293.518 133.833 293.835 133.833 294.158V294.445C133.833 294.769 133.865 295.088 133.929 295.402C133.993 295.717 134.1 296.002 134.25 296.257C134.405 296.512 134.612 296.717 134.872 296.872C135.136 297.022 135.465 297.098 135.856 297.098ZM139.89 294.384V294.227C139.89 293.693 139.967 293.199 140.122 292.743C140.277 292.283 140.5 291.884 140.792 291.547C141.084 291.205 141.437 290.941 141.852 290.754C142.266 290.562 142.731 290.467 143.246 290.467C143.766 290.467 144.233 290.562 144.647 290.754C145.067 290.941 145.422 291.205 145.714 291.547C146.01 291.884 146.236 292.283 146.391 292.743C146.546 293.199 146.623 293.693 146.623 294.227V294.384C146.623 294.917 146.546 295.411 146.391 295.867C146.236 296.323 146.01 296.722 145.714 297.063C145.422 297.401 145.069 297.665 144.654 297.856C144.244 298.043 143.779 298.137 143.26 298.137C142.74 298.137 142.273 298.043 141.858 297.856C141.444 297.665 141.088 297.401 140.792 297.063C140.5 296.722 140.277 296.323 140.122 295.867C139.967 295.411 139.89 294.917 139.89 294.384ZM141.154 294.227V294.384C141.154 294.753 141.198 295.102 141.284 295.43C141.371 295.753 141.501 296.04 141.674 296.291C141.852 296.542 142.073 296.74 142.337 296.886C142.601 297.027 142.909 297.098 143.26 297.098C143.606 297.098 143.909 297.027 144.169 296.886C144.433 296.74 144.652 296.542 144.825 296.291C144.998 296.04 145.128 295.753 145.215 295.43C145.306 295.102 145.352 294.753 145.352 294.384V294.227C145.352 293.862 145.306 293.518 145.215 293.194C145.128 292.866 144.996 292.577 144.818 292.326C144.645 292.071 144.426 291.87 144.162 291.725C143.902 291.579 143.597 291.506 143.246 291.506C142.9 291.506 142.594 291.579 142.33 291.725C142.07 291.87 141.852 292.071 141.674 292.326C141.501 292.577 141.371 292.866 141.284 293.194C141.198 293.518 141.154 293.862 141.154 294.227ZM142.494 289.51L143.82 287.5H145.345L143.513 289.51H142.494ZM152.939 292.073V298H151.668V290.604H152.871L152.939 292.073ZM152.68 294.021L152.092 294.001C152.096 293.495 152.162 293.028 152.29 292.6C152.418 292.167 152.607 291.791 152.857 291.472C153.108 291.153 153.42 290.907 153.794 290.733C154.168 290.556 154.601 290.467 155.093 290.467C155.439 290.467 155.758 290.517 156.05 290.617C156.341 290.713 156.594 290.866 156.809 291.075C157.023 291.285 157.189 291.554 157.308 291.882C157.426 292.21 157.485 292.606 157.485 293.071V298H156.221V293.133C156.221 292.745 156.155 292.436 156.022 292.203C155.895 291.971 155.713 291.802 155.476 291.697C155.239 291.588 154.961 291.533 154.642 291.533C154.268 291.533 153.956 291.599 153.705 291.731C153.454 291.864 153.254 292.046 153.104 292.278C152.953 292.511 152.844 292.777 152.775 293.078C152.712 293.374 152.68 293.689 152.68 294.021ZM157.472 293.324L156.624 293.584C156.629 293.178 156.695 292.789 156.822 292.415C156.954 292.041 157.144 291.709 157.39 291.417C157.64 291.125 157.948 290.895 158.312 290.727C158.677 290.553 159.094 290.467 159.563 290.467C159.96 290.467 160.311 290.519 160.616 290.624C160.926 290.729 161.186 290.891 161.396 291.109C161.61 291.324 161.771 291.599 161.881 291.937C161.99 292.274 162.045 292.675 162.045 293.14V298H160.773V293.126C160.773 292.711 160.707 292.39 160.575 292.162C160.448 291.93 160.265 291.768 160.028 291.677C159.796 291.581 159.518 291.533 159.194 291.533C158.916 291.533 158.67 291.581 158.456 291.677C158.242 291.772 158.062 291.905 157.916 292.073C157.77 292.237 157.659 292.426 157.581 292.641C157.508 292.855 157.472 293.083 157.472 293.324ZM168.484 296.291V290.604H169.756V298H168.546L168.484 296.291ZM168.724 294.732L169.25 294.719C169.25 295.211 169.198 295.667 169.093 296.086C168.993 296.501 168.828 296.861 168.601 297.166C168.373 297.471 168.074 297.711 167.705 297.884C167.336 298.052 166.887 298.137 166.358 298.137C165.998 298.137 165.668 298.084 165.367 297.979C165.071 297.875 164.816 297.713 164.602 297.494C164.387 297.275 164.221 296.991 164.103 296.64C163.989 296.289 163.932 295.867 163.932 295.375V290.604H165.196V295.389C165.196 295.721 165.233 295.997 165.306 296.216C165.383 296.43 165.486 296.601 165.613 296.729C165.745 296.852 165.891 296.938 166.051 296.988C166.215 297.038 166.383 297.063 166.557 297.063C167.094 297.063 167.521 296.961 167.835 296.756C168.149 296.546 168.375 296.266 168.512 295.915C168.653 295.56 168.724 295.165 168.724 294.732ZM165.688 299.682C165.688 299.477 165.75 299.303 165.873 299.162C166.001 299.021 166.188 298.95 166.434 298.95C166.675 298.95 166.86 299.021 166.987 299.162C167.119 299.303 167.186 299.477 167.186 299.682C167.186 299.878 167.119 300.044 166.987 300.181C166.86 300.322 166.675 300.393 166.434 300.393C166.188 300.393 166.001 300.322 165.873 300.181C165.75 300.044 165.688 299.878 165.688 299.682ZM174.644 297.098C174.944 297.098 175.222 297.036 175.478 296.913C175.733 296.79 175.942 296.621 176.106 296.407C176.271 296.188 176.364 295.94 176.387 295.662H177.59C177.567 296.1 177.419 296.507 177.146 296.886C176.877 297.259 176.523 297.562 176.086 297.795C175.648 298.023 175.168 298.137 174.644 298.137C174.088 298.137 173.602 298.039 173.188 297.843C172.777 297.647 172.436 297.378 172.162 297.036C171.893 296.694 171.69 296.302 171.554 295.86C171.422 295.414 171.355 294.942 171.355 294.445V294.158C171.355 293.661 171.422 293.192 171.554 292.75C171.69 292.303 171.893 291.909 172.162 291.567C172.436 291.226 172.777 290.957 173.188 290.761C173.602 290.565 174.088 290.467 174.644 290.467C175.222 290.467 175.728 290.585 176.161 290.822C176.594 291.055 176.934 291.374 177.18 291.779C177.43 292.18 177.567 292.636 177.59 293.146H176.387C176.364 292.841 176.277 292.565 176.127 292.319C175.981 292.073 175.781 291.877 175.525 291.731C175.275 291.581 174.981 291.506 174.644 291.506C174.256 291.506 173.93 291.583 173.666 291.738C173.406 291.889 173.199 292.094 173.044 292.354C172.894 292.609 172.784 292.894 172.716 293.208C172.652 293.518 172.62 293.835 172.62 294.158V294.445C172.62 294.769 172.652 295.088 172.716 295.402C172.78 295.717 172.887 296.002 173.037 296.257C173.192 296.512 173.399 296.717 173.659 296.872C173.924 297.022 174.252 297.098 174.644 297.098ZM185.581 290.604V291.574H181.582V290.604H185.581ZM182.936 288.806H184.2V296.168C184.2 296.419 184.239 296.608 184.316 296.735C184.394 296.863 184.494 296.947 184.617 296.988C184.74 297.029 184.872 297.05 185.014 297.05C185.118 297.05 185.228 297.041 185.342 297.022C185.46 297 185.549 296.981 185.608 296.968L185.615 298C185.515 298.032 185.383 298.062 185.219 298.089C185.059 298.121 184.866 298.137 184.638 298.137C184.328 298.137 184.043 298.075 183.783 297.952C183.523 297.829 183.316 297.624 183.161 297.337C183.011 297.045 182.936 296.653 182.936 296.161V288.806ZM188.438 290.604V298H187.167V290.604H188.438ZM187.071 288.642C187.071 288.437 187.133 288.263 187.256 288.122C187.383 287.981 187.57 287.91 187.816 287.91C188.058 287.91 188.243 287.981 188.37 288.122C188.502 288.263 188.568 288.437 188.568 288.642C188.568 288.838 188.502 289.006 188.37 289.147C188.243 289.284 188.058 289.353 187.816 289.353C187.57 289.353 187.383 289.284 187.256 289.147C187.133 289.006 187.071 288.838 187.071 288.642ZM193.538 298.137C193.023 298.137 192.556 298.05 192.137 297.877C191.722 297.699 191.364 297.451 191.063 297.132C190.767 296.813 190.539 296.435 190.38 295.997C190.22 295.56 190.141 295.081 190.141 294.562V294.274C190.141 293.673 190.229 293.137 190.407 292.668C190.585 292.194 190.826 291.793 191.132 291.465C191.437 291.137 191.784 290.888 192.171 290.72C192.558 290.551 192.959 290.467 193.374 290.467C193.903 290.467 194.358 290.558 194.741 290.74C195.129 290.923 195.445 291.178 195.691 291.506C195.938 291.829 196.12 292.212 196.238 292.654C196.357 293.092 196.416 293.57 196.416 294.09V294.657H190.893V293.625H195.151V293.529C195.133 293.201 195.065 292.882 194.946 292.572C194.832 292.262 194.65 292.007 194.399 291.807C194.149 291.606 193.807 291.506 193.374 291.506C193.087 291.506 192.823 291.567 192.581 291.69C192.34 291.809 192.132 291.987 191.959 292.224C191.786 292.461 191.651 292.75 191.556 293.092C191.46 293.434 191.412 293.828 191.412 294.274V294.562C191.412 294.912 191.46 295.243 191.556 295.553C191.656 295.858 191.799 296.127 191.986 296.359C192.178 296.592 192.408 296.774 192.677 296.906C192.95 297.038 193.26 297.104 193.606 297.104C194.053 297.104 194.431 297.013 194.741 296.831C195.051 296.649 195.322 296.405 195.555 296.1L196.32 296.708C196.161 296.95 195.958 297.18 195.712 297.398C195.466 297.617 195.163 297.795 194.803 297.932C194.447 298.068 194.026 298.137 193.538 298.137ZM193.75 287.5L195.445 289.366V289.435H194.393L193.367 288.279L192.349 289.435H191.31V289.359L192.984 287.5H193.75ZM202.418 296.291V290.604H203.689V298H202.479L202.418 296.291ZM202.657 294.732L203.184 294.719C203.184 295.211 203.131 295.667 203.026 296.086C202.926 296.501 202.762 296.861 202.534 297.166C202.306 297.471 202.008 297.711 201.639 297.884C201.27 298.052 200.821 298.137 200.292 298.137C199.932 298.137 199.602 298.084 199.301 297.979C199.005 297.875 198.749 297.713 198.535 297.494C198.321 297.275 198.155 296.991 198.036 296.64C197.922 296.289 197.865 295.867 197.865 295.375V290.604H199.13V295.389C199.13 295.721 199.166 295.997 199.239 296.216C199.317 296.43 199.419 296.601 199.547 296.729C199.679 296.852 199.825 296.938 199.984 296.988C200.148 297.038 200.317 297.063 200.49 297.063C201.028 297.063 201.454 296.961 201.769 296.756C202.083 296.546 202.309 296.266 202.445 295.915C202.587 295.56 202.657 295.165 202.657 294.732Z" fill="#9F9FA2"/>
</svg>
