<svg width="18" height="18" viewBox="0 0 18 18" fill="none" xmlns="http://www.w3.org/2000/svg">
<path d="M9.00002 1.5C10.9466 3.22215 13.4871 4.11881 16.0834 4C16.4614 5.28585 16.577 6.63456 16.4235 7.96598C16.2699 9.29741 15.8503 10.5844 15.1895 11.7504C14.5288 12.9165 13.6403 13.9378 12.5771 14.7537C11.5138 15.5696 10.2973 16.1635 9.00002 16.5C7.7027 16.1635 6.48626 15.5696 5.42298 14.7537C4.3597 13.9378 3.47128 12.9165 2.81052 11.7504C2.14976 10.5844 1.73014 9.29741 1.57659 7.96598C1.42304 6.63456 1.5387 5.28585 1.91669 4C4.51296 4.11881 7.0535 3.22215 9.00002 1.5" stroke="white" stroke-width="1.5" stroke-linecap="round" stroke-linejoin="round"/>
</svg>
