<svg width="18" height="18" viewBox="0 0 18 18" fill="none" xmlns="http://www.w3.org/2000/svg">
<path d="M8.99905 1.5C10.9456 3.22215 13.4861 4.11881 16.0824 4C16.4604 5.28585 16.576 6.63456 16.4225 7.96598C16.2689 9.29741 15.8493 10.5844 15.1886 11.7504C14.5278 12.9165 13.6394 13.9378 12.5761 14.7537C11.5128 15.5696 10.2964 16.1635 8.99905 16.5C7.70172 16.1635 6.48528 15.5696 5.422 14.7537C4.35872 13.9378 3.47031 12.9165 2.80954 11.7504C2.14878 10.5844 1.72916 9.29741 1.57561 7.96598C1.42206 6.63456 1.53772 5.28585 1.91571 4C4.51199 4.11881 7.05252 3.22215 8.99905 1.5" stroke="white" stroke-width="1.5" stroke-linecap="round" stroke-linejoin="round"/>
</svg>
