<svg width="14" height="14" viewBox="0 0 14 14" fill="none" xmlns="http://www.w3.org/2000/svg">
<path fill-rule="evenodd" clip-rule="evenodd" d="M7 0C3.13359 0 0 3.13359 0 7C0 10.8664 3.13359 14 7 14C10.8664 14 14 10.8664 14 7C14 3.13359 10.8664 0 7 0ZM7 5.25C7.48316 5.25 7.875 4.85816 7.875 4.375C7.875 3.89184 7.48316 3.5 7 3.5C6.51684 3.5 6.125 3.89102 6.125 4.375C6.125 4.85898 6.51602 5.25 7 5.25ZM7.65625 6.78125V9.1875H8.09375C8.45742 9.1875 8.75 9.48144 8.75 9.84375C8.75 10.2061 8.45605 10.5 8.09375 10.5H5.90625C5.54531 10.5 5.25 10.2047 5.25 9.84375C5.25 9.48281 5.54531 9.1875 5.90625 9.1875H6.34375V7.4375H6.125C5.76406 7.4375 5.46875 7.14219 5.46875 6.78125C5.46875 6.42031 5.76406 6.125 6.125 6.125H7C7.36367 6.125 7.65625 6.42031 7.65625 6.78125Z" fill="#5F647E"/>
</svg>
