<svg width="16" height="16" viewBox="0 0 16 16" fill="none" xmlns="http://www.w3.org/2000/svg">
<path d="M2 4C2.39556 4 2.78224 3.8827 3.11114 3.66294C3.44004 3.44318 3.69638 3.13082 3.84776 2.76537C3.99913 2.39992 4.03874 1.99778 3.96157 1.60982C3.8844 1.22186 3.69392 0.865492 3.41421 0.585787C3.13451 0.306082 2.77814 0.115601 2.39018 0.0384303C2.00222 -0.0387401 1.60009 0.000866562 1.23463 0.152242C0.869181 0.303617 0.556824 0.559963 0.337061 0.888861C0.117298 1.21776 0 1.60444 0 2C0 2.53043 0.210714 3.03914 0.585786 3.41421C0.960859 3.78929 1.46957 4 2 4ZM8 16C8.39556 16 8.78224 15.8827 9.11114 15.6629C9.44004 15.4432 9.69638 15.1308 9.84776 14.7654C9.99913 14.3999 10.0387 13.9978 9.96157 13.6098C9.8844 13.2219 9.69392 12.8655 9.41421 12.5858C9.13451 12.3061 8.77814 12.1156 8.39018 12.0384C8.00222 11.9613 7.60009 12.0009 7.23463 12.1522C6.86918 12.3036 6.55682 12.56 6.33706 12.8889C6.1173 13.2178 6 13.6044 6 14C6 14.5304 6.21071 15.0391 6.58579 15.4142C6.96086 15.7893 7.46957 16 8 16ZM2 16C2.39556 16 2.78224 15.8827 3.11114 15.6629C3.44004 15.4432 3.69638 15.1308 3.84776 14.7654C3.99913 14.3999 4.03874 13.9978 3.96157 13.6098C3.8844 13.2219 3.69392 12.8655 3.41421 12.5858C3.13451 12.3061 2.77814 12.1156 2.39018 12.0384C2.00222 11.9613 1.60009 12.0009 1.23463 12.1522C0.869181 12.3036 0.556824 12.56 0.337061 12.8889C0.117298 13.2178 0 13.6044 0 14C0 14.5304 0.210714 15.0391 0.585786 15.4142C0.960859 15.7893 1.46957 16 2 16ZM2 10C2.39556 10 2.78224 9.8827 3.11114 9.66294C3.44004 9.44318 3.69638 9.13082 3.84776 8.76537C3.99913 8.39992 4.03874 7.99778 3.96157 7.60982C3.8844 7.22186 3.69392 6.86549 3.41421 6.58579C3.13451 6.30608 2.77814 6.1156 2.39018 6.03843C2.00222 5.96126 1.60009 6.00087 1.23463 6.15224C0.869181 6.30362 0.556824 6.55996 0.337061 6.88886C0.117298 7.21776 0 7.60444 0 8C0 8.53043 0.210714 9.03914 0.585786 9.41421C0.960859 9.78929 1.46957 10 2 10ZM8 10C8.39556 10 8.78224 9.8827 9.11114 9.66294C9.44004 9.44318 9.69638 9.13082 9.84776 8.76537C9.99913 8.39992 10.0387 7.99778 9.96157 7.60982C9.8844 7.22186 9.69392 6.86549 9.41421 6.58579C9.13451 6.30608 8.77814 6.1156 8.39018 6.03843C8.00222 5.96126 7.60009 6.00087 7.23463 6.15224C6.86918 6.30362 6.55682 6.55996 6.33706 6.88886C6.1173 7.21776 6 7.60444 6 8C6 8.53043 6.21071 9.03914 6.58579 9.41421C6.96086 9.78929 7.46957 10 8 10ZM12 2C12 2.39556 12.1173 2.78224 12.3371 3.11114C12.5568 3.44004 12.8692 3.69639 13.2346 3.84776C13.6001 3.99914 14.0022 4.03874 14.3902 3.96157C14.7781 3.8844 15.1345 3.69392 15.4142 3.41421C15.6939 3.13451 15.8844 2.77814 15.9616 2.39018C16.0387 2.00222 15.9991 1.60009 15.8478 1.23463C15.6964 0.869182 15.44 0.556825 15.1111 0.337062C14.7822 0.117299 14.3956 1.07779e-06 14 1.07779e-06C13.4696 1.07779e-06 12.9609 0.210715 12.5858 0.585787C12.2107 0.96086 12 1.46957 12 2ZM8 4C8.39556 4 8.78224 3.8827 9.11114 3.66294C9.44004 3.44318 9.69638 3.13082 9.84776 2.76537C9.99913 2.39992 10.0387 1.99778 9.96157 1.60982C9.8844 1.22186 9.69392 0.865492 9.41421 0.585787C9.13451 0.306082 8.77814 0.115601 8.39018 0.0384303C8.00222 -0.0387401 7.60009 0.000866562 7.23463 0.152242C6.86918 0.303617 6.55682 0.559963 6.33706 0.888861C6.1173 1.21776 6 1.60444 6 2C6 2.53043 6.21071 3.03914 6.58579 3.41421C6.96086 3.78929 7.46957 4 8 4ZM14 10C14.3956 10 14.7822 9.8827 15.1111 9.66294C15.44 9.44318 15.6964 9.13082 15.8478 8.76537C15.9991 8.39992 16.0387 7.99778 15.9616 7.60982C15.8844 7.22186 15.6939 6.86549 15.4142 6.58579C15.1345 6.30608 14.7781 6.1156 14.3902 6.03843C14.0022 5.96126 13.6001 6.00087 13.2346 6.15224C12.8692 6.30362 12.5568 6.55996 12.3371 6.88886C12.1173 7.21776 12 7.60444 12 8C12 8.53043 12.2107 9.03914 12.5858 9.41421C12.9609 9.78929 13.4696 10 14 10ZM14 16C14.3956 16 14.7822 15.8827 15.1111 15.6629C15.44 15.4432 15.6964 15.1308 15.8478 14.7654C15.9991 14.3999 16.0387 13.9978 15.9616 13.6098C15.8844 13.2219 15.6939 12.8655 15.4142 12.5858C15.1345 12.3061 14.7781 12.1156 14.3902 12.0384C14.0022 11.9613 13.6001 12.0009 13.2346 12.1522C12.8692 12.3036 12.5568 12.56 12.3371 12.8889C12.1173 13.2178 12 13.6044 12 14C12 14.5304 12.2107 15.0391 12.5858 15.4142C12.9609 15.7893 13.4696 16 14 16Z" fill="white"/>
</svg>
