<svg width="8" height="8" viewBox="0 0 8 8" fill="none" xmlns="http://www.w3.org/2000/svg">
<path d="M7.17006 6.48864C7.36531 6.68389 7.36531 7.00067 7.17006 7.19594C6.97482 7.39121 6.65803 7.39119 6.46276 7.19594L4.00032 4.71517L1.52038 7.19511C1.32513 7.39036 1.00835 7.39036 0.813079 7.19511C0.617809 6.99986 0.61783 6.68307 0.813079 6.4878L3.29385 4.0087L0.812391 1.51C0.617142 1.31475 0.617142 0.997964 0.812391 0.802694C1.00764 0.607425 1.32443 0.607446 1.5197 0.802694L4.00032 3.30223L6.48027 0.822284C6.67551 0.627035 6.9923 0.627035 7.18757 0.822284C7.38284 1.01753 7.38282 1.33432 7.18757 1.52959L4.7068 4.0087L7.17006 6.48864Z" fill="#212121"/>
</svg>
