<svg width="13" height="16" viewBox="0 0 13 16" fill="none" xmlns="http://www.w3.org/2000/svg">
<path d="M1.4252 0.9C0.698603 0.9 0.100195 1.49841 0.100195 2.225V4.325C0.100195 5.05159 0.698603 5.65 1.4252 5.65H2.2002V7.475V12.025C2.2002 12.9429 2.95732 13.7 3.8752 13.7H6.7502V13.775C6.7502 14.5016 7.3486 15.1 8.0752 15.1H10.8752C11.6018 15.1 12.2002 14.5016 12.2002 13.775V11.675C12.2002 10.9484 11.6018 10.35 10.8752 10.35H8.0752C7.3486 10.35 6.7502 10.9484 6.7502 11.675V12.45H3.8752C3.73173 12.45 3.62819 12.4071 3.56065 12.3395C3.49311 12.272 3.4502 12.1685 3.4502 12.025V8.1H6.7502V8.175C6.7502 8.90159 7.3486 9.5 8.0752 9.5H10.8752C11.6018 9.5 12.2002 8.90159 12.2002 8.175V6.075C12.2002 5.34841 11.6018 4.75 10.8752 4.75H8.0752C7.3486 4.75 6.7502 5.34841 6.7502 6.075V6.85H3.4502V5.65H4.2252C4.95179 5.65 5.5502 5.05159 5.5502 4.325V2.225C5.5502 1.49841 4.95179 0.9 4.2252 0.9H1.4252ZM1.4252 2.15H4.2252C4.2686 2.15 4.3002 2.18159 4.3002 2.225V4.325C4.3002 4.36841 4.2686 4.4 4.2252 4.4H1.4252C1.38179 4.4 1.3502 4.36841 1.3502 4.325V2.225C1.3502 2.18159 1.38179 2.15 1.4252 2.15ZM8.0752 6H10.8752C10.9186 6 10.9502 6.03159 10.9502 6.075V8.175C10.9502 8.21841 10.9186 8.25 10.8752 8.25H8.0752C8.03179 8.25 8.0002 8.21841 8.0002 8.175V6.075C8.0002 6.03159 8.03179 6 8.0752 6ZM8.0752 11.6H10.8752C10.9186 11.6 10.9502 11.6316 10.9502 11.675V13.775C10.9502 13.8184 10.9186 13.85 10.8752 13.85H8.0752C8.03179 13.85 8.0002 13.8184 8.0002 13.775V11.675C8.0002 11.6316 8.03179 11.6 8.0752 11.6Z" fill="#5F647E" stroke="#5F647E" stroke-width="0.2"/>
</svg>
